STARTFONT 2.1
FONT -FontForge-IBM Plex Mono-Bold-R-Normal--29-280-75-75-P-160-ISO10646-1
SIZE 28 75 75
FONTBOUNDINGBOX 27 42 -9 -8
COMMENT "Generated by fontforge, http://fontforge.sourceforge.net"
COMMENT "Copyright 2017 IBM Corp. All rights reserved."
STARTPROPERTIES 41
FOUNDRY "FontForge"
FAMILY_NAME "IBM Plex Mono"
WEIGHT_NAME "Bold"
SLANT "R"
SETWIDTH_NAME "Normal"
ADD_STYLE_NAME ""
PIXEL_SIZE 29
POINT_SIZE 280
RESOLUTION_X 75
RESOLUTION_Y 75
SPACING "P"
AVERAGE_WIDTH 160
CHARSET_REGISTRY "ISO10646"
CHARSET_ENCODING "1"
FONTNAME_REGISTRY ""
CHARSET_COLLECTIONS "ISO8859-2 ISO8859-5 ISO8859-9 ISO8859-4 ISO10646-1"
FONT_NAME "IBMPlexMono-Bold"
FACE_NAME "IBM Plex Mono Bold"
COPYRIGHT "Copyright 2017 IBM Corp. All rights reserved."
FONT_VERSION "2.1"
FONT_ASCENT 23
FONT_DESCENT 6
UNDERLINE_POSITION -4
UNDERLINE_THICKNESS 3
X_HEIGHT 14
CAP_HEIGHT 19
DEFAULT_CHAR 1
RAW_ASCENT 780
RAW_DESCENT 220
NORM_SPACE 17
RELATIVE_WEIGHT 70
RELATIVE_SETWIDTH 50
SUPERSCRIPT_X 0
SUPERSCRIPT_Y 10
SUPERSCRIPT_SIZE 17
SUBSCRIPT_X 0
SUBSCRIPT_Y 2
SUBSCRIPT_SIZE 17
FIGURE_WIDTH 17
AVG_LOWERCASE_WIDTH 170
AVG_UPPERCASE_WIDTH 170
ENDPROPERTIES
CHARS 847
STARTCHAR .null
ENCODING 0
SWIDTH 0 0
DWIDTH 0 0
BBX 1 1 0 0
BITMAP
00
ENDCHAR
STARTCHAR uni000D
ENCODING 13
SWIDTH 600 0
DWIDTH 17 0
BBX 1 1 0 0
BITMAP
00
ENDCHAR
STARTCHAR space
ENCODING 32
SWIDTH 600 0
DWIDTH 17 0
BBX 1 1 0 0
BITMAP
00
ENDCHAR
STARTCHAR exclam
ENCODING 33
SWIDTH 600 0
DWIDTH 17 0
BBX 5 20 6 0
BITMAP
F8
F8
F8
F8
F8
F8
F8
70
70
70
70
20
00
00
70
F8
F8
F8
F8
70
ENDCHAR
STARTCHAR quotedbl
ENCODING 34
SWIDTH 600 0
DWIDTH 17 0
BBX 11 9 3 12
BITMAP
F1E0
F1E0
F1E0
F1E0
F1E0
F1E0
F1E0
F1E0
F1E0
ENDCHAR
STARTCHAR numbersign
ENCODING 35
SWIDTH 600 0
DWIDTH 17 0
BBX 17 20 0 0
BITMAP
039E00
039E00
079C00
079C00
071C00
073C00
7F3F80
7F3F80
7F3F80
0E3800
0E3800
FE7F00
FE7F00
FE7F00
1E7000
1C7000
1CF000
1CF000
3CE000
3CE000
ENDCHAR
STARTCHAR dollar
ENCODING 36
SWIDTH 600 0
DWIDTH 17 0
BBX 15 26 1 -3
BITMAP
0380
0380
0380
0FF0
3FFC
7FFE
7BBC
FB88
F380
FB80
7F80
7FC0
3FF8
0FFC
03FE
039E
039E
039E
239E
7BBE
FFFC
7FF8
1FE0
0380
0380
0380
ENDCHAR
STARTCHAR percent
ENCODING 37
SWIDTH 600 0
DWIDTH 17 0
BBX 17 20 0 0
BITMAP
3E0380
7F0700
FF8700
E38E00
E38E00
E39C00
E39C00
FFBC00
7F3800
3E4000
003E00
0F7F00
0EFF80
1CE380
1CE380
38E380
38E380
70FF80
707F00
E03E00
ENDCHAR
STARTCHAR ampersand
ENCODING 38
SWIDTH 600 0
DWIDTH 17 0
BBX 17 20 0 0
BITMAP
07C000
1FF000
3FF800
3C7800
3C2000
3C0000
3C0000
1E0000
1F0000
1F1F80
3F9F80
7BDF80
73FE00
F1FC00
F0FC00
F07C00
78FC00
7FDE00
3F9F00
1F0F80
ENDCHAR
STARTCHAR quotesingle
ENCODING 39
SWIDTH 600 0
DWIDTH 17 0
BBX 3 9 7 12
BITMAP
E0
E0
E0
E0
E0
E0
E0
E0
E0
ENDCHAR
STARTCHAR parenleft
ENCODING 40
SWIDTH 600 0
DWIDTH 17 0
BBX 10 26 5 -4
BITMAP
07C0
0F00
1E00
1C00
3C00
3800
7800
7000
F000
F000
E000
E000
E000
E000
E000
E000
F000
F000
7000
7800
3800
3C00
1C00
1E00
0F00
07C0
ENDCHAR
STARTCHAR parenright
ENCODING 41
SWIDTH 600 0
DWIDTH 17 0
BBX 10 26 2 -4
BITMAP
F800
3C00
1E00
0E00
0F00
0700
0780
0380
03C0
03C0
01C0
01C0
01C0
01C0
01C0
03C0
03C0
03C0
0380
0780
0700
0F00
0E00
1E00
3C00
F800
ENDCHAR
STARTCHAR asterisk
ENCODING 42
SWIDTH 600 0
DWIDTH 17 0
BBX 15 15 1 1
BITMAP
0380
0380
0380
8384
F39E
FFFE
FFFE
3FF8
07C0
0FE0
1EF0
3EF8
7C7C
3838
0820
ENDCHAR
STARTCHAR plus
ENCODING 43
SWIDTH 600 0
DWIDTH 17 0
BBX 13 13 2 2
BITMAP
0700
0700
0700
0700
0700
FFF8
FFF8
FFF8
0700
0700
0700
0700
0700
ENDCHAR
STARTCHAR comma
ENCODING 44
SWIDTH 600 0
DWIDTH 17 0
BBX 7 9 5 -4
BITMAP
7E
7C
7C
78
78
F0
F0
F0
E0
ENDCHAR
STARTCHAR hyphen
ENCODING 45
SWIDTH 600 0
DWIDTH 17 0
BBX 9 4 4 7
BITMAP
FF80
FF80
FF80
FF80
ENDCHAR
STARTCHAR period
ENCODING 46
SWIDTH 600 0
DWIDTH 17 0
BBX 7 6 5 0
BITMAP
7C
7C
FE
FE
7C
7C
ENDCHAR
STARTCHAR slash
ENCODING 47
SWIDTH 600 0
DWIDTH 17 0
BBX 13 26 2 -4
BITMAP
0078
0078
00F0
00F0
00F0
01E0
01E0
01C0
03C0
03C0
0380
0780
0780
0F00
0F00
0F00
1E00
1E00
1E00
3C00
3C00
3800
7800
7800
F000
F000
ENDCHAR
STARTCHAR zero
ENCODING 48
SWIDTH 600 0
DWIDTH 17 0
BBX 15 20 1 0
BITMAP
0FE0
1FF0
3FF8
7C7C
F83C
F01E
F01E
F39E
F39E
F39E
F01E
F01E
F01E
F01E
F01E
F83C
7C7C
3FF8
1FF0
0FE0
ENDCHAR
STARTCHAR one
ENCODING 49
SWIDTH 600 0
DWIDTH 17 0
BBX 16 20 1 0
BITMAP
0FE0
1FE0
1FE0
3DE0
7DE0
F9E0
F1E0
71E0
21E0
01E0
01E0
01E0
01E0
01E0
01E0
01E0
01E0
3FFF
3FFF
3FFF
ENDCHAR
STARTCHAR two
ENCODING 50
SWIDTH 600 0
DWIDTH 17 0
BBX 15 20 1 0
BITMAP
0FE0
3FF0
7FF8
F87C
F03C
103C
003C
003C
007C
00F8
00F0
01E0
07C0
0F80
1F00
7E00
FC00
FFFE
FFFE
FFFE
ENDCHAR
STARTCHAR three
ENCODING 51
SWIDTH 600 0
DWIDTH 17 0
BBX 16 20 0 0
BITMAP
07F0
1FFC
3FFE
7C3E
181E
001F
001E
003E
03FC
03F0
03FC
003E
001F
001F
101F
381F
7C3E
FFFE
3FFC
0FF0
ENDCHAR
STARTCHAR four
ENCODING 52
SWIDTH 600 0
DWIDTH 17 0
BBX 15 20 1 0
BITMAP
01F8
01F8
03F8
07F8
07F8
0F78
1E78
1C78
3C78
7878
7878
F078
E078
FFFE
FFFE
FFFE
0078
0078
0078
0078
ENDCHAR
STARTCHAR five
ENCODING 53
SWIDTH 600 0
DWIDTH 17 0
BBX 15 20 1 0
BITMAP
7FFC
7FFC
7FFC
7800
7800
7800
7000
71F0
77F8
77FC
787E
003E
001E
001E
201E
703E
F87C
7FFC
3FF8
0FE0
ENDCHAR
STARTCHAR six
ENCODING 54
SWIDTH 600 0
DWIDTH 17 0
BBX 15 20 1 0
BITMAP
01F8
07E0
0FC0
1F80
1F00
3E00
7C00
79F0
FBF8
FFFC
FC3E
F83E
F01E
F01E
F01E
F83E
7C3C
3FFC
1FF8
07E0
ENDCHAR
STARTCHAR seven
ENCODING 55
SWIDTH 600 0
DWIDTH 17 0
BBX 15 20 1 0
BITMAP
FFFE
FFFE
FFFE
F03E
F03C
F07C
F07C
0078
00F8
00F0
01F0
01F0
01E0
03E0
03C0
07C0
07C0
0780
0F80
0F00
ENDCHAR
STARTCHAR eight
ENCODING 56
SWIDTH 600 0
DWIDTH 17 0
BBX 15 20 1 0
BITMAP
0FE0
3FF8
7FFC
7C7C
F83E
F83E
783C
7C7C
3FF8
0FE0
3FF8
787C
F83E
F01E
F01E
F83E
F87E
7FFC
3FF8
0FE0
ENDCHAR
STARTCHAR nine
ENCODING 57
SWIDTH 600 0
DWIDTH 17 0
BBX 15 20 1 0
BITMAP
0FE0
3FF0
7FF8
7C7C
F83E
F01E
F01E
F01E
F83E
F87E
7FFE
3FBE
1F3C
007C
00F8
01F0
03F0
07E0
0FC0
3F00
ENDCHAR
STARTCHAR colon
ENCODING 58
SWIDTH 600 0
DWIDTH 17 0
BBX 7 16 5 0
BITMAP
7C
7C
FE
FE
7C
7C
00
00
00
00
7C
7C
FE
FE
7C
7C
ENDCHAR
STARTCHAR semicolon
ENCODING 59
SWIDTH 600 0
DWIDTH 17 0
BBX 7 20 5 -4
BITMAP
7C
7C
FE
FE
7C
7C
00
00
00
00
00
7E
7C
7C
78
78
F0
F0
F0
E0
ENDCHAR
STARTCHAR less
ENCODING 60
SWIDTH 600 0
DWIDTH 17 0
BBX 13 17 2 0
BITMAP
0008
0038
00F8
03F8
0FF0
3FC0
FF00
FC00
F000
FC00
FF00
3FC0
0FF0
03F8
00F8
0038
0008
ENDCHAR
STARTCHAR equal
ENCODING 61
SWIDTH 600 0
DWIDTH 17 0
BBX 14 10 2 4
BITMAP
FFFC
FFFC
FFFC
0000
0000
0000
0000
FFFC
FFFC
FFFC
ENDCHAR
STARTCHAR greater
ENCODING 62
SWIDTH 600 0
DWIDTH 17 0
BBX 13 17 2 0
BITMAP
8000
E000
F800
FE00
7F80
1FE0
07F8
01F8
0078
01F8
07F8
1FE0
7F80
FE00
F800
E000
8000
ENDCHAR
STARTCHAR question
ENCODING 63
SWIDTH 600 0
DWIDTH 17 0
BBX 13 20 2 0
BITMAP
1F80
7FE0
FFF0
F0F8
7078
0078
00F8
01F0
0FF0
0FC0
0F00
0F00
0000
0000
0F00
1F80
1F80
1F80
1F80
0F00
ENDCHAR
STARTCHAR at
ENCODING 64
SWIDTH 600 0
DWIDTH 17 0
BBX 15 23 1 -3
BITMAP
0FE0
1FF8
3FFC
783C
701E
701E
E1CE
E3EE
E3FE
E79E
E70E
E70E
E70E
E78E
E7FE
E3EE
F1EE
7000
7800
7C00
3FF0
1FF0
07F0
ENDCHAR
STARTCHAR A
ENCODING 65
SWIDTH 600 0
DWIDTH 17 0
BBX 17 20 0 0
BITMAP
07F000
07F000
07F000
0FF800
0F7800
0F7800
0F7800
1E7C00
1E3C00
1E3C00
1E3C00
3C3E00
3FFE00
3FFE00
7FFF00
781F00
780F00
780F00
F80F80
F00F80
ENDCHAR
STARTCHAR B
ENCODING 66
SWIDTH 600 0
DWIDTH 17 0
BBX 14 20 2 0
BITMAP
FFC0
FFF0
FFF8
F0F8
F078
F078
F078
F0F8
FFE0
FFE0
FFF0
F078
F07C
F07C
F07C
F07C
F07C
FFF8
FFF0
FFE0
ENDCHAR
STARTCHAR C
ENCODING 67
SWIDTH 600 0
DWIDTH 17 0
BBX 15 20 1 0
BITMAP
07E0
1FF8
3FFC
7C3E
783E
781C
F800
F800
F800
F800
F800
F800
F800
F800
781C
783E
7C3C
3FFC
1FF8
07E0
ENDCHAR
STARTCHAR D
ENCODING 68
SWIDTH 600 0
DWIDTH 17 0
BBX 14 20 2 0
BITMAP
FF80
FFE0
FFF0
F0F8
F078
F07C
F07C
F03C
F03C
F03C
F03C
F03C
F03C
F07C
F07C
F078
F0F8
FFF0
FFE0
FF80
ENDCHAR
STARTCHAR E
ENCODING 69
SWIDTH 600 0
DWIDTH 17 0
BBX 13 20 2 0
BITMAP
FFF8
FFF8
FFF8
F800
F800
F800
F800
F800
FFF8
FFF8
FFF8
F800
F800
F800
F800
F800
F800
FFF8
FFF8
FFF8
ENDCHAR
STARTCHAR F
ENCODING 70
SWIDTH 600 0
DWIDTH 17 0
BBX 14 20 2 0
BITMAP
FFFC
FFFC
FFFC
F800
F800
F800
F800
F800
FFF8
FFF8
FFF8
F800
F800
F800
F800
F800
F800
F800
F800
F800
ENDCHAR
STARTCHAR G
ENCODING 71
SWIDTH 600 0
DWIDTH 17 0
BBX 15 20 1 0
BITMAP
0FE0
1FF0
3FF8
7C7C
783C
F83E
F800
F000
F000
F1FE
F1FE
F1FE
F01E
F81E
F81E
F83E
7C7E
7FDE
3FDE
0F1E
ENDCHAR
STARTCHAR H
ENCODING 72
SWIDTH 600 0
DWIDTH 17 0
BBX 13 20 2 0
BITMAP
F078
F078
F078
F078
F078
F078
F078
F078
F078
FFF8
FFF8
FFF8
F078
F078
F078
F078
F078
F078
F078
F078
ENDCHAR
STARTCHAR I
ENCODING 73
SWIDTH 600 0
DWIDTH 17 0
BBX 13 20 2 0
BITMAP
FFF8
FFF8
FFF8
0F80
0F80
0F80
0F80
0F80
0F80
0F80
0F80
0F80
0F80
0F80
0F80
0F80
0F80
FFF8
FFF8
FFF8
ENDCHAR
STARTCHAR J
ENCODING 74
SWIDTH 600 0
DWIDTH 17 0
BBX 14 20 1 0
BITMAP
1FFC
1FFC
1FFC
007C
007C
007C
007C
007C
007C
007C
007C
007C
007C
007C
307C
F078
F8F8
7FF8
3FF0
0FC0
ENDCHAR
STARTCHAR K
ENCODING 75
SWIDTH 600 0
DWIDTH 17 0
BBX 15 20 2 0
BITMAP
F03E
F07C
F0F8
F0F8
F1F0
F3E0
F3C0
F7C0
FF80
FFC0
FFC0
FFE0
FBE0
F9F0
F1F0
F0F8
F0F8
F07C
F03C
F03E
ENDCHAR
STARTCHAR L
ENCODING 76
SWIDTH 600 0
DWIDTH 17 0
BBX 13 20 3 0
BITMAP
F000
F000
F000
F000
F000
F000
F000
F000
F000
F000
F000
F000
F000
F000
F000
F000
F000
FFF8
FFF8
FFF8
ENDCHAR
STARTCHAR M
ENCODING 77
SWIDTH 600 0
DWIDTH 17 0
BBX 15 20 1 0
BITMAP
F83E
FC3E
FC7E
FC7E
FE7E
FEFE
FEFE
FFFE
F7DE
F7DE
F39E
F39E
F39E
F11E
F11E
F11E
F01E
F01E
F01E
F01E
ENDCHAR
STARTCHAR N
ENCODING 78
SWIDTH 600 0
DWIDTH 17 0
BBX 13 20 2 0
BITMAP
F838
F838
FC38
FC38
FC38
FE38
FE38
EE38
EF38
E738
E738
E7B8
E3B8
E3F8
E3F8
E1F8
E1F8
E1F8
E0F8
E0F8
ENDCHAR
STARTCHAR O
ENCODING 79
SWIDTH 600 0
DWIDTH 17 0
BBX 15 20 1 0
BITMAP
0FE0
1FF0
3FF8
7C7C
F83C
F83E
F01E
F01E
F01E
F01E
F01E
F01E
F01E
F01E
F83E
F83C
7C7C
3FF8
1FF0
0FE0
ENDCHAR
STARTCHAR P
ENCODING 80
SWIDTH 600 0
DWIDTH 17 0
BBX 14 20 2 0
BITMAP
FFE0
FFF0
FFF8
F07C
F07C
F07C
F07C
F07C
F07C
FFF8
FFF0
FFE0
F000
F000
F000
F000
F000
F000
F000
F000
ENDCHAR
STARTCHAR Q
ENCODING 81
SWIDTH 600 0
DWIDTH 17 0
BBX 15 25 1 -5
BITMAP
0FE0
1FF0
3FF8
7C7C
F83C
F83E
F01E
F01E
F01E
F01E
F01E
F01E
F01E
F01E
F83E
F83E
7C7C
7FFC
3FF8
0FE0
0380
0380
03FC
03FC
01FC
ENDCHAR
STARTCHAR R
ENCODING 82
SWIDTH 600 0
DWIDTH 17 0
BBX 14 20 2 0
BITMAP
FFE0
FFF0
FFF8
F07C
F07C
F03C
F03C
F07C
F07C
FFF8
FFF0
FFC0
F1E0
F1E0
F1F0
F0F0
F0F8
F078
F07C
F07C
ENDCHAR
STARTCHAR S
ENCODING 83
SWIDTH 600 0
DWIDTH 17 0
BBX 15 20 1 0
BITMAP
0FF0
3FFC
7FFE
7C3C
7808
7800
7800
7C00
7FC0
3FF8
1FFC
01FC
003E
003E
003E
603E
F87C
FFFC
7FF8
1FE0
ENDCHAR
STARTCHAR T
ENCODING 84
SWIDTH 600 0
DWIDTH 17 0
BBX 16 20 1 0
BITMAP
FFFF
FFFF
FFFF
07C0
07C0
07C0
07C0
07C0
07C0
07C0
07C0
07C0
07C0
07C0
07C0
07C0
07C0
07C0
07C0
07C0
ENDCHAR
STARTCHAR U
ENCODING 85
SWIDTH 600 0
DWIDTH 17 0
BBX 15 20 1 0
BITMAP
F83E
F83E
F83E
F83E
F83E
F83E
F83E
F83E
F83E
F83E
F83E
F83E
F83E
F83E
783C
783C
7C7C
7FFC
3FF8
0FE0
ENDCHAR
STARTCHAR V
ENCODING 86
SWIDTH 600 0
DWIDTH 17 0
BBX 17 20 0 0
BITMAP
F80F80
F80F80
780F00
7C1F00
7C1F00
3C1E00
3C1E00
3E1E00
3E3E00
1E3C00
1E3C00
1F3C00
1F7C00
0F7800
0F7800
0F7800
0FF800
07F000
07F000
07F000
ENDCHAR
STARTCHAR W
ENCODING 87
SWIDTH 600 0
DWIDTH 17 0
BBX 17 20 0 0
BITMAP
F00780
F00780
F00780
F00780
F1E780
F3E780
73E700
73E700
73E700
736700
736700
777700
777700
7F7700
7F7700
7E3700
7E3F00
7E3F00
7E3F00
7E3F00
ENDCHAR
STARTCHAR X
ENCODING 88
SWIDTH 600 0
DWIDTH 17 0
BBX 17 20 0 0
BITMAP
FC0F80
7C1F00
3E1E00
3E3E00
1F3C00
1F7C00
0FF800
07F000
07F000
03E000
07F000
07F000
0FF800
0F7800
1E7C00
1E3C00
3C3E00
7C1F00
781F00
F80F80
ENDCHAR
STARTCHAR Y
ENCODING 89
SWIDTH 600 0
DWIDTH 17 0
BBX 17 20 0 0
BITMAP
F80F80
780F00
7C1F00
3C1E00
3E3E00
1E3C00
1F3C00
1F7C00
0F7800
0FF800
07F000
07F000
03E000
03E000
03E000
03E000
03E000
03E000
03E000
03E000
ENDCHAR
STARTCHAR Z
ENCODING 90
SWIDTH 600 0
DWIDTH 17 0
BBX 15 20 1 0
BITMAP
FFFC
FFFC
FFFC
007C
007C
00F8
01F0
03F0
03E0
07C0
0F80
0F80
1F00
3E00
3E00
7C00
F800
FFFE
FFFE
FFFE
ENDCHAR
STARTCHAR bracketleft
ENCODING 91
SWIDTH 600 0
DWIDTH 17 0
BBX 10 26 5 -4
BITMAP
FFC0
FFC0
FFC0
F000
F000
F000
F000
F000
F000
F000
F000
F000
F000
F000
F000
F000
F000
F000
F000
F000
F000
F000
F000
FFC0
FFC0
FFC0
ENDCHAR
STARTCHAR backslash
ENCODING 92
SWIDTH 600 0
DWIDTH 17 0
BBX 13 26 2 -4
BITMAP
F000
F000
7800
7800
7800
3C00
3C00
1C00
1E00
1E00
0E00
0F00
0F00
0780
0780
0780
03C0
03C0
03C0
01E0
01E0
00E0
00F0
00F0
0070
0078
ENDCHAR
STARTCHAR bracketright
ENCODING 93
SWIDTH 600 0
DWIDTH 17 0
BBX 10 26 2 -4
BITMAP
FFC0
FFC0
FFC0
03C0
03C0
03C0
03C0
03C0
03C0
03C0
03C0
03C0
03C0
03C0
03C0
03C0
03C0
03C0
03C0
03C0
03C0
03C0
03C0
FFC0
FFC0
FFC0
ENDCHAR
STARTCHAR asciicircum
ENCODING 94
SWIDTH 600 0
DWIDTH 17 0
BBX 15 13 1 7
BITMAP
07C0
0FE0
0FE0
0FE0
1EF0
1EF0
3C78
3C78
783C
783C
F01E
F01E
600C
ENDCHAR
STARTCHAR underscore
ENCODING 95
SWIDTH 600 0
DWIDTH 17 0
BBX 14 3 2 -5
BITMAP
FFFC
FFFC
FFFC
ENDCHAR
STARTCHAR grave
ENCODING 96
SWIDTH 600 0
DWIDTH 17 0
BBX 7 7 4 17
BITMAP
10
70
F8
78
3C
1C
0A
ENDCHAR
STARTCHAR a
ENCODING 97
SWIDTH 600 0
DWIDTH 17 0
BBX 15 15 1 0
BITMAP
0FC0
3FF0
7FF8
7878
207C
007C
1FFC
3FFC
7FFC
F87C
F87C
F87C
7FFE
7FBE
1F1E
ENDCHAR
STARTCHAR b
ENCODING 98
SWIDTH 600 0
DWIDTH 17 0
BBX 14 21 2 0
BITMAP
F000
F000
F000
F000
F000
F000
F3E0
F7F0
FFF8
F8F8
F07C
F03C
F03C
F03C
F03C
F07C
F07C
F8F8
FFF8
F7F0
F3E0
ENDCHAR
STARTCHAR c
ENCODING 99
SWIDTH 600 0
DWIDTH 17 0
BBX 14 15 2 0
BITMAP
0FC0
3FF0
7FF8
F878
F020
F000
F000
F000
F000
F000
F020
F878
7FFC
3FF0
0FC0
ENDCHAR
STARTCHAR d
ENCODING 100
SWIDTH 600 0
DWIDTH 17 0
BBX 15 21 1 0
BITMAP
003E
003E
003E
003E
003E
003E
1F3E
3FBE
7FFE
7C7E
F83E
F03E
F03E
F03E
F03E
F03E
F83E
7C7E
7FFE
3FBE
1F3E
ENDCHAR
STARTCHAR e
ENCODING 101
SWIDTH 600 0
DWIDTH 17 0
BBX 15 15 1 0
BITMAP
07C0
1FF0
3FF8
7C7C
783C
F81E
FFFE
FFFE
FFFE
F800
7800
7C18
3FFC
1FFC
07E0
ENDCHAR
STARTCHAR f
ENCODING 102
SWIDTH 600 0
DWIDTH 17 0
BBX 14 21 2 0
BITMAP
03FC
07FC
0FFC
0F80
0F80
0F80
FFFC
FFFC
FFFC
0F80
0F80
0F80
0F80
0F80
0F80
0F80
0F80
0F80
FFF8
FFF8
FFF8
ENDCHAR
STARTCHAR g
ENCODING 103
SWIDTH 600 0
DWIDTH 17 0
BBX 16 24 1 -6
BITMAP
001E
003E
003E
0FF0
3FF8
3FF8
787C
783C
783C
787C
7FF8
3FF0
1FE0
3000
7000
7FF8
7FFE
1FFE
701F
F00F
F01F
FFFE
7FFC
1FF0
ENDCHAR
STARTCHAR h
ENCODING 104
SWIDTH 600 0
DWIDTH 17 0
BBX 13 21 2 0
BITMAP
F000
F000
F000
F000
F000
F000
F3E0
F7F0
FFF8
F8F8
F078
F078
F078
F078
F078
F078
F078
F078
F078
F078
F078
ENDCHAR
STARTCHAR i
ENCODING 105
SWIDTH 600 0
DWIDTH 17 0
BBX 14 22 2 0
BITMAP
0380
07C0
07C0
07C0
0380
0000
0000
FFC0
FFC0
FFC0
07C0
07C0
07C0
07C0
07C0
07C0
07C0
07C0
07C0
FFFC
FFFC
FFFC
ENDCHAR
STARTCHAR j
ENCODING 106
SWIDTH 600 0
DWIDTH 17 0
BBX 11 28 2 -6
BITMAP
03C0
03E0
03E0
03E0
01C0
0000
0000
FFE0
FFE0
FFE0
03E0
03E0
03E0
03E0
03E0
03E0
03E0
03E0
03E0
03E0
03E0
03E0
03E0
03E0
03C0
FFC0
FFC0
FF00
ENDCHAR
STARTCHAR k
ENCODING 107
SWIDTH 600 0
DWIDTH 17 0
BBX 14 21 2 0
BITMAP
F000
F000
F000
F000
F000
F000
F07C
F0F8
F1F0
F3E0
F7C0
FF80
FF80
FFC0
FFC0
F3E0
F1F0
F1F0
F0F8
F07C
F07C
ENDCHAR
STARTCHAR l
ENCODING 108
SWIDTH 600 0
DWIDTH 17 0
BBX 13 21 2 0
BITMAP
FF80
FF80
FF80
0F80
0F80
0F80
0F80
0F80
0F80
0F80
0F80
0F80
0F80
0F80
0F80
0F80
0F80
0F80
FFF8
FFF8
FFF8
ENDCHAR
STARTCHAR m
ENCODING 109
SWIDTH 600 0
DWIDTH 17 0
BBX 15 15 1 0
BITMAP
E73C
EF3E
FFFE
E7CE
E38E
E38E
E38E
E38E
E38E
E38E
E38E
E38E
E38E
E38E
E38E
ENDCHAR
STARTCHAR n
ENCODING 110
SWIDTH 600 0
DWIDTH 17 0
BBX 13 15 2 0
BITMAP
F3E0
F7F0
FFF8
F8F8
F078
F078
F078
F078
F078
F078
F078
F078
F078
F078
F078
ENDCHAR
STARTCHAR o
ENCODING 111
SWIDTH 600 0
DWIDTH 17 0
BBX 15 15 1 0
BITMAP
0FE0
1FF0
3FF8
7C7C
F83E
F03E
F01E
F01E
F01E
F03E
F83E
7C7C
3FF8
1FF0
0FE0
ENDCHAR
STARTCHAR p
ENCODING 112
SWIDTH 600 0
DWIDTH 17 0
BBX 14 21 2 -6
BITMAP
F3E0
F7F0
FFF8
F8F8
F07C
F03C
F03C
F03C
F03C
F07C
F07C
F8F8
FFF8
F7F0
F3E0
F000
F000
F000
F000
F000
F000
ENDCHAR
STARTCHAR q
ENCODING 113
SWIDTH 600 0
DWIDTH 17 0
BBX 15 21 1 -6
BITMAP
1F3E
3FBE
7FFE
7C7E
F83E
F03E
F03E
F03E
F03E
F03E
F83E
7C7E
7FFE
3FBE
1F3E
003E
003E
003E
003E
003E
003E
ENDCHAR
STARTCHAR r
ENCODING 114
SWIDTH 600 0
DWIDTH 17 0
BBX 14 15 2 0
BITMAP
FF3C
FF7C
FFFC
1F80
1F00
1F00
1F00
1F00
1F00
1F00
1F00
1F00
FFF8
FFF8
FFF8
ENDCHAR
STARTCHAR s
ENCODING 115
SWIDTH 600 0
DWIDTH 17 0
BBX 14 15 1 0
BITMAP
0FE0
1FF8
3FFC
7C38
7810
7C00
7FC0
3FF8
0FFC
007C
203C
783C
FFFC
7FF8
0FE0
ENDCHAR
STARTCHAR t
ENCODING 116
SWIDTH 600 0
DWIDTH 17 0
BBX 14 20 1 0
BITMAP
0F00
0F00
0F00
0F00
0F00
FFFC
FFFC
FFFC
0F00
0F00
0F00
0F00
0F00
0F00
0F00
0F00
0F00
0FFC
07FC
03FC
ENDCHAR
STARTCHAR u
ENCODING 117
SWIDTH 600 0
DWIDTH 17 0
BBX 13 15 2 0
BITMAP
F078
F078
F078
F078
F078
F078
F078
F078
F078
F078
F078
F8F8
FFF8
7F78
3E78
ENDCHAR
STARTCHAR v
ENCODING 118
SWIDTH 600 0
DWIDTH 17 0
BBX 15 15 1 0
BITMAP
F01E
F81E
F83E
783C
783C
3C78
3C78
3C78
1E70
1EF0
1EF0
0FE0
0FE0
0FE0
07C0
ENDCHAR
STARTCHAR w
ENCODING 119
SWIDTH 600 0
DWIDTH 17 0
BBX 17 15 0 0
BITMAP
F1E380
F3E780
F3E780
F3E780
73E700
736700
736700
737700
777700
777700
7F7700
7E3700
7E3F00
3E3E00
3E3E00
ENDCHAR
STARTCHAR x
ENCODING 120
SWIDTH 600 0
DWIDTH 17 0
BBX 17 15 0 0
BITMAP
7C1F00
3E1E00
1E3C00
1F7C00
0FF800
07F000
07E000
03E000
07F000
0FF800
0F7800
1E7C00
3E3E00
3C1E00
F81F80
ENDCHAR
STARTCHAR y
ENCODING 121
SWIDTH 600 0
DWIDTH 17 0
BBX 17 21 0 -6
BITMAP
F80F80
780F00
7C1F00
3C1E00
3E1E00
1E3C00
1E3C00
1E3C00
0F7800
0F7800
077000
07F000
07F000
03E000
03E000
03C000
03C000
03C000
3F8000
3F0000
3E0000
ENDCHAR
STARTCHAR z
ENCODING 122
SWIDTH 600 0
DWIDTH 17 0
BBX 13 15 2 0
BITMAP
FFF8
FFF8
FFF8
00F8
01F0
03E0
07C0
0F80
1F00
3E00
7C00
F800
FFF8
FFF8
FFF8
ENDCHAR
STARTCHAR braceleft
ENCODING 123
SWIDTH 600 0
DWIDTH 17 0
BBX 13 26 2 -4
BITMAP
07F8
0FF8
0FF8
0E00
0E00
0E00
0F00
0700
0780
03C0
03C0
0380
FF80
FC00
FF80
03C0
03C0
0380
0780
0F00
0E00
0E00
0E00
0FF8
0FF8
07F8
ENDCHAR
STARTCHAR bar
ENCODING 124
SWIDTH 600 0
DWIDTH 17 0
BBX 3 26 7 -4
BITMAP
E0
E0
E0
E0
E0
E0
E0
E0
E0
E0
E0
E0
E0
E0
E0
E0
E0
E0
E0
E0
E0
E0
E0
E0
E0
E0
ENDCHAR
STARTCHAR braceright
ENCODING 125
SWIDTH 600 0
DWIDTH 17 0
BBX 13 26 2 -4
BITMAP
FF00
FF80
FF80
0380
0380
0380
0780
0700
0F00
1E00
1E00
1E00
0FF8
01F8
0FF8
1E00
1E00
0E00
0F00
0780
0380
0380
0380
FF80
FF80
FF00
ENDCHAR
STARTCHAR asciitilde
ENCODING 126
SWIDTH 600 0
DWIDTH 17 0
BBX 15 5 1 6
BITMAP
3E0C
7F9E
FFFE
F3FC
6078
ENDCHAR
STARTCHAR uni00A0
ENCODING 160
SWIDTH 600 0
DWIDTH 17 0
BBX 1 1 0 0
BITMAP
00
ENDCHAR
STARTCHAR exclamdown
ENCODING 161
SWIDTH 600 0
DWIDTH 17 0
BBX 5 21 6 -6
BITMAP
70
F8
F8
F8
F8
70
00
00
20
70
70
70
70
70
F8
F8
F8
F8
F8
F8
F8
ENDCHAR
STARTCHAR cent
ENCODING 162
SWIDTH 600 0
DWIDTH 17 0
BBX 14 21 2 -3
BITMAP
0780
0780
0780
0FE0
3FF0
7FF8
FB78
F320
F300
F300
F300
F300
F300
F320
FB78
7FFC
3FF0
0FE0
0780
0780
0780
ENDCHAR
STARTCHAR sterling
ENCODING 163
SWIDTH 600 0
DWIDTH 17 0
BBX 15 20 1 0
BITMAP
07F0
0FFC
1FFE
3E1C
7C08
7C00
7C00
7C00
3C00
3C00
FFF0
FFF0
FFF0
1F00
1E00
3E00
7C00
7FFE
7FFE
7FFE
ENDCHAR
STARTCHAR yen
ENCODING 165
SWIDTH 600 0
DWIDTH 17 0
BBX 17 20 0 0
BITMAP
F80780
F80F80
780F00
7C1F00
3C1E00
3C1E00
1E3C00
1E3C00
0F3C00
0F7800
0F7800
7FFF00
7FFF00
7FFF00
03E000
03E000
03E000
7FFF00
7FFF00
7FFF00
ENDCHAR
STARTCHAR brokenbar
ENCODING 166
SWIDTH 600 0
DWIDTH 17 0
BBX 3 26 7 -4
BITMAP
E0
E0
E0
E0
E0
E0
E0
E0
E0
E0
00
00
00
00
00
E0
E0
E0
E0
E0
E0
E0
E0
E0
E0
E0
ENDCHAR
STARTCHAR section
ENCODING 167
SWIDTH 600 0
DWIDTH 17 0
BBX 14 25 2 -5
BITMAP
0FC0
3FF0
7FF8
7870
7020
7000
7C00
7F80
3FF0
1FF8
71F8
E07C
E038
F038
FC70
FFC0
3FE0
0FF0
01F0
0078
2078
30F0
7FF0
FFE0
1F80
ENDCHAR
STARTCHAR dieresis
ENCODING 168
SWIDTH 600 0
DWIDTH 17 0
BBX 11 5 3 17
BITMAP
71C0
FBE0
FBE0
FBE0
71C0
ENDCHAR
STARTCHAR copyright
ENCODING 169
SWIDTH 600 0
DWIDTH 17 0
BBX 17 19 0 1
BITMAP
03E000
0FF800
3C1E00
300600
63E300
C7F180
CFF980
CE3180
DE0180
DE0180
DE0180
CE3180
CFF980
C7F980
63E300
300600
3C1E00
0FF800
03E000
ENDCHAR
STARTCHAR ordfeminine
ENCODING 170
SWIDTH 600 0
DWIDTH 17 0
BBX 11 10 3 10
BITMAP
3F00
7F80
63C0
01C0
3FC0
7FC0
E1C0
E1C0
7FE0
3CE0
ENDCHAR
STARTCHAR guillemotleft
ENCODING 171
SWIDTH 600 0
DWIDTH 17 0
BBX 14 14 2 1
BITMAP
0408
0C18
3C3C
7EF8
F9F0
F1E0
E1C0
E1C0
F1E0
F9F0
7CF8
3E3C
0C18
0408
ENDCHAR
STARTCHAR logicalnot
ENCODING 172
SWIDTH 600 0
DWIDTH 17 0
BBX 13 9 2 1
BITMAP
FFF8
FFF8
FFF8
0078
0078
0078
0078
0078
0078
ENDCHAR
STARTCHAR uni00AD
ENCODING 173
SWIDTH 600 0
DWIDTH 17 0
BBX 9 4 4 7
BITMAP
FF80
FF80
FF80
FF80
ENDCHAR
STARTCHAR registered
ENCODING 174
SWIDTH 600 0
DWIDTH 17 0
BBX 11 10 3 10
BITMAP
1F00
2080
5F40
DB60
DE60
DA60
DB60
4040
2080
1F00
ENDCHAR
STARTCHAR macron
ENCODING 175
SWIDTH 600 0
DWIDTH 17 0
BBX 9 3 4 18
BITMAP
FF80
FF80
FF80
ENDCHAR
STARTCHAR degree
ENCODING 176
SWIDTH 600 0
DWIDTH 17 0
BBX 11 10 3 10
BITMAP
1F00
3F80
71C0
E0E0
E0E0
E0E0
E0E0
71C0
3F80
1F00
ENDCHAR
STARTCHAR plusminus
ENCODING 177
SWIDTH 600 0
DWIDTH 17 0
BBX 13 18 2 0
BITMAP
0700
0700
0700
0700
0700
FFF8
FFF8
FFF8
0700
0700
0700
0700
0700
0000
0000
FFF8
FFF8
FFF8
ENDCHAR
STARTCHAR twosuperior
ENCODING 178
SWIDTH 600 0
DWIDTH 17 0
BBX 9 11 4 9
BITMAP
3E00
7F00
E780
0380
0700
0F00
1E00
3800
7000
FF80
FF80
ENDCHAR
STARTCHAR threesuperior
ENCODING 179
SWIDTH 600 0
DWIDTH 17 0
BBX 9 11 4 9
BITMAP
3E00
FF00
6780
0780
1F00
1F00
0780
4380
6780
FF00
3E00
ENDCHAR
STARTCHAR acute
ENCODING 180
SWIDTH 600 0
DWIDTH 17 0
BBX 7 7 6 17
BITMAP
10
1C
3E
3C
78
70
A0
ENDCHAR
STARTCHAR mu
ENCODING 181
SWIDTH 600 0
DWIDTH 17 0
BBX 13 21 2 -6
BITMAP
F078
F078
F078
F078
F078
F078
F078
F078
F078
F078
F078
F8F8
FFF8
FF78
EE78
E000
F000
F000
F000
F000
F000
ENDCHAR
STARTCHAR paragraph
ENCODING 182
SWIDTH 600 0
DWIDTH 17 0
BBX 16 24 0 -4
BITMAP
0FFF
1FFF
3FFF
7FCF
7FCF
FFCF
FFCF
FFCF
7FCF
7FCF
3FCF
1FCF
0FCF
01CF
01CF
01CF
01CF
01CF
01CF
01CF
01CF
01CF
01CF
01CF
ENDCHAR
STARTCHAR periodcentered
ENCODING 183
SWIDTH 600 0
DWIDTH 17 0
BBX 7 6 5 6
BITMAP
7C
7C
FE
FE
7C
7C
ENDCHAR
STARTCHAR cedilla
ENCODING 184
SWIDTH 600 0
DWIDTH 17 0
BBX 8 7 5 -6
BITMAP
18
30
3E
07
6F
FE
1C
ENDCHAR
STARTCHAR onesuperior
ENCODING 185
SWIDTH 600 0
DWIDTH 17 0
BBX 8 11 5 9
BITMAP
7C
FC
DC
1C
1C
1C
1C
1C
1C
FF
FF
ENDCHAR
STARTCHAR ordmasculine
ENCODING 186
SWIDTH 600 0
DWIDTH 17 0
BBX 11 10 3 10
BITMAP
1F00
7FC0
71C0
E0E0
E0E0
E0E0
E0E0
71C0
7FC0
1F00
ENDCHAR
STARTCHAR guillemotright
ENCODING 187
SWIDTH 600 0
DWIDTH 17 0
BBX 15 14 1 1
BITMAP
4080
60C0
F0F0
7DF8
3E7C
1E3E
0E1E
0E1E
1E3E
3E7C
7CF8
F1F0
60C0
4080
ENDCHAR
STARTCHAR onequarter
ENCODING 188
SWIDTH 600 0
DWIDTH 17 0
BBX 17 20 0 0
BITMAP
3C0380
FC0700
5C0700
1C0E00
1C0E00
1C1C00
1C1C00
1C3800
7F7000
7F0000
000F00
070F00
0E1F00
1C3700
1C3700
386700
387F80
707F80
700700
E00700
ENDCHAR
STARTCHAR onehalf
ENCODING 189
SWIDTH 600 0
DWIDTH 17 0
BBX 17 20 0 0
BITMAP
3C0380
FC0700
5C0700
1C0E00
1C0E00
1C1C00
1C1C00
1C3800
7F7000
7F0000
001E00
077F00
0E7380
1C0380
1C0700
380E00
381C00
703800
707F80
E07F80
ENDCHAR
STARTCHAR threequarters
ENCODING 190
SWIDTH 600 0
DWIDTH 17 0
BBX 17 20 0 0
BITMAP
3E0380
7F0700
E70700
070E00
1E0E00
1E1C00
071C00
673800
FF7000
3E0000
000F00
070F00
0E1F00
1C3700
1C3700
386700
387F80
707F80
700700
E00700
ENDCHAR
STARTCHAR questiondown
ENCODING 191
SWIDTH 600 0
DWIDTH 17 0
BBX 13 21 2 -6
BITMAP
0780
0FC0
0FC0
0FC0
0FC0
0780
0000
0000
0780
0780
1F80
3F80
7F00
F800
F800
F000
F870
F878
7FF8
3FF0
0FC0
ENDCHAR
STARTCHAR Agrave
ENCODING 192
SWIDTH 600 0
DWIDTH 17 0
BBX 17 28 0 0
BITMAP
010000
070000
0F8000
078000
03C000
01C000
00A000
000000
07F000
07F000
07F000
0FF800
0F7800
0F7800
0F7800
1E7C00
1E3C00
1E3C00
1E3C00
3C3E00
3FFE00
3FFE00
7FFF00
781F00
780F00
780F00
F80F80
F00F80
ENDCHAR
STARTCHAR Aacute
ENCODING 193
SWIDTH 600 0
DWIDTH 17 0
BBX 17 28 0 0
BITMAP
004000
007000
00F800
00F000
01E000
01C000
028000
000000
07F000
07F000
07F000
0FF800
0F7800
0F7800
0F7800
1E7C00
1E3C00
1E3C00
1E3C00
3C3E00
3FFE00
3FFE00
7FFF00
781F00
780F00
780F00
F80F80
F00F80
ENDCHAR
STARTCHAR Acircumflex
ENCODING 194
SWIDTH 600 0
DWIDTH 17 0
BBX 17 27 0 0
BITMAP
03E000
07F000
07F000
0F7800
1E3C00
0C1800
000000
07F000
07F000
07F000
0FF800
0F7800
0F7800
0F7800
1E7C00
1E3C00
1E3C00
1E3C00
3C3E00
3FFE00
3FFE00
7FFF00
781F00
780F00
780F00
F80F80
F00F80
ENDCHAR
STARTCHAR Atilde
ENCODING 195
SWIDTH 600 0
DWIDTH 17 0
BBX 17 26 0 0
BITMAP
0F8800
1FFC00
1FFC00
08F800
000000
000000
07F000
07F000
07F000
0FF800
0F7800
0F7800
0F7800
1E7C00
1E3C00
1E3C00
1E3C00
3C3E00
3FFE00
3FFE00
7FFF00
781F00
780F00
780F00
F80F80
F00F80
ENDCHAR
STARTCHAR Adieresis
ENCODING 196
SWIDTH 600 0
DWIDTH 17 0
BBX 17 27 0 0
BITMAP
0E3800
1F7C00
1F7C00
1F7C00
0E3800
000000
000000
07F000
07F000
07F000
0FF800
0F7800
0F7800
0F7800
1E7C00
1E3C00
1E3C00
1E3C00
3C3E00
3FFE00
3FFE00
7FFF00
781F00
780F00
780F00
F80F80
F00F80
ENDCHAR
STARTCHAR Aring
ENCODING 197
SWIDTH 600 0
DWIDTH 17 0
BBX 17 29 0 0
BITMAP
03E000
07F000
0E3000
0E3800
0E3800
0E3000
07F000
03E000
000000
07F000
07F000
07F000
0FF800
0F7800
0F7800
0F7800
1E7C00
1E3C00
1E3C00
1E3C00
3C3E00
3FFE00
3FFE00
7FFF00
781F00
780F00
780F00
F80F80
F00F80
ENDCHAR
STARTCHAR AE
ENCODING 198
SWIDTH 600 0
DWIDTH 17 0
BBX 16 20 0 0
BITMAP
0FFF
0FFF
0FFF
1EF0
1EF0
1EF0
1EF0
1CF0
3CFF
3CFF
3CFF
3CF0
7FF0
7FF0
7FF0
78F0
F8F0
F0FF
F0FF
F0FF
ENDCHAR
STARTCHAR Ccedilla
ENCODING 199
SWIDTH 600 0
DWIDTH 17 0
BBX 15 26 1 -6
BITMAP
07E0
1FF8
3FFC
7C3E
783E
781C
F800
F800
F800
F800
F800
F800
F800
F800
781C
783E
7C3C
3FFC
1FF8
07E0
0300
03E0
00F0
0470
07F0
0FC0
ENDCHAR
STARTCHAR Egrave
ENCODING 200
SWIDTH 600 0
DWIDTH 17 0
BBX 13 28 2 0
BITMAP
0400
1E00
3E00
1F00
0F00
0780
0200
0000
FFF8
FFF8
FFF8
F800
F800
F800
F800
F800
FFF8
FFF8
FFF8
F800
F800
F800
F800
F800
F800
FFF8
FFF8
FFF8
ENDCHAR
STARTCHAR Eacute
ENCODING 201
SWIDTH 600 0
DWIDTH 17 0
BBX 13 28 2 0
BITMAP
0100
01C0
03E0
03C0
0780
0700
0A00
0000
FFF8
FFF8
FFF8
F800
F800
F800
F800
F800
FFF8
FFF8
FFF8
F800
F800
F800
F800
F800
F800
FFF8
FFF8
FFF8
ENDCHAR
STARTCHAR Ecircumflex
ENCODING 202
SWIDTH 600 0
DWIDTH 17 0
BBX 13 27 2 0
BITMAP
0F80
1FC0
1FE0
3DE0
78F0
3060
0000
FFF8
FFF8
FFF8
F800
F800
F800
F800
F800
FFF8
FFF8
FFF8
F800
F800
F800
F800
F800
F800
FFF8
FFF8
FFF8
ENDCHAR
STARTCHAR Edieresis
ENCODING 203
SWIDTH 600 0
DWIDTH 17 0
BBX 13 27 2 0
BITMAP
38E0
7CF0
7DF0
7CF0
38E0
0000
0000
FFF8
FFF8
FFF8
F800
F800
F800
F800
F800
FFF8
FFF8
FFF8
F800
F800
F800
F800
F800
F800
FFF8
FFF8
FFF8
ENDCHAR
STARTCHAR Igrave
ENCODING 204
SWIDTH 600 0
DWIDTH 17 0
BBX 13 28 2 0
BITMAP
0400
1C00
3E00
1E00
0F00
0700
0280
0000
FFF8
FFF8
FFF8
0F80
0F80
0F80
0F80
0F80
0F80
0F80
0F80
0F80
0F80
0F80
0F80
0F80
0F80
FFF8
FFF8
FFF8
ENDCHAR
STARTCHAR Iacute
ENCODING 205
SWIDTH 600 0
DWIDTH 17 0
BBX 13 28 2 0
BITMAP
0100
01C0
03E0
03C0
0780
0700
0A00
0000
FFF8
FFF8
FFF8
0F80
0F80
0F80
0F80
0F80
0F80
0F80
0F80
0F80
0F80
0F80
0F80
0F80
0F80
FFF8
FFF8
FFF8
ENDCHAR
STARTCHAR Icircumflex
ENCODING 206
SWIDTH 600 0
DWIDTH 17 0
BBX 13 27 2 0
BITMAP
0F80
1FC0
1FC0
3DE0
78F0
3060
0000
FFF8
FFF8
FFF8
0F80
0F80
0F80
0F80
0F80
0F80
0F80
0F80
0F80
0F80
0F80
0F80
0F80
0F80
FFF8
FFF8
FFF8
ENDCHAR
STARTCHAR Idieresis
ENCODING 207
SWIDTH 600 0
DWIDTH 17 0
BBX 13 27 2 0
BITMAP
38E0
7DF0
7DF0
7DF0
38E0
0000
0000
FFF8
FFF8
FFF8
0F80
0F80
0F80
0F80
0F80
0F80
0F80
0F80
0F80
0F80
0F80
0F80
0F80
0F80
FFF8
FFF8
FFF8
ENDCHAR
STARTCHAR Eth
ENCODING 208
SWIDTH 600 0
DWIDTH 17 0
BBX 16 20 0 0
BITMAP
3FE0
3FF8
3FFC
3C3E
3C1E
3C1F
3C1F
3C0F
FF8F
FF8F
FF8F
3C0F
3C0F
3C1F
3C1F
3C1E
3C3E
3FFC
3FF8
3FE0
ENDCHAR
STARTCHAR Ntilde
ENCODING 209
SWIDTH 600 0
DWIDTH 17 0
BBX 13 26 2 0
BITMAP
3E20
7FF0
7FF0
23E0
0000
0000
F838
F838
FC38
FC38
FC38
FE38
FE38
EE38
EF38
E738
E738
E7B8
E3B8
E3F8
E3F8
E1F8
E1F8
E1F8
E0F8
E0F8
ENDCHAR
STARTCHAR Ograve
ENCODING 210
SWIDTH 600 0
DWIDTH 17 0
BBX 15 28 1 0
BITMAP
0200
0E00
1F00
0F00
0780
0380
0140
0000
0FE0
1FF0
3FF8
7C7C
F83C
F83E
F01E
F01E
F01E
F01E
F01E
F01E
F01E
F01E
F83E
F83C
7C7C
3FF8
1FF0
0FE0
ENDCHAR
STARTCHAR Oacute
ENCODING 211
SWIDTH 600 0
DWIDTH 17 0
BBX 15 28 1 0
BITMAP
0080
00E0
01F0
01E0
03C0
0380
0500
0000
0FE0
1FF0
3FF8
7C7C
F83C
F83E
F01E
F01E
F01E
F01E
F01E
F01E
F01E
F01E
F83E
F83C
7C7C
3FF8
1FF0
0FE0
ENDCHAR
STARTCHAR Ocircumflex
ENCODING 212
SWIDTH 600 0
DWIDTH 17 0
BBX 15 27 1 0
BITMAP
07C0
0FE0
0FE0
1EF0
3C78
1830
0000
0FE0
1FF0
3FF8
7C7C
F83C
F83E
F01E
F01E
F01E
F01E
F01E
F01E
F01E
F01E
F83E
F83C
7C7C
3FF8
1FF0
0FE0
ENDCHAR
STARTCHAR Otilde
ENCODING 213
SWIDTH 600 0
DWIDTH 17 0
BBX 15 26 1 0
BITMAP
1F10
3FF8
3FF8
11F0
0000
0000
0FE0
1FF0
3FF8
7C7C
F83C
F83E
F01E
F01E
F01E
F01E
F01E
F01E
F01E
F01E
F83E
F83C
7C7C
3FF8
1FF0
0FE0
ENDCHAR
STARTCHAR Odieresis
ENCODING 214
SWIDTH 600 0
DWIDTH 17 0
BBX 15 27 1 0
BITMAP
1C70
3EF8
3EF8
3EF8
1C70
0000
0000
0FE0
1FF0
3FF8
7C7C
F83C
F83E
F01E
F01E
F01E
F01E
F01E
F01E
F01E
F01E
F83E
F83C
7C7C
3FF8
1FF0
0FE0
ENDCHAR
STARTCHAR multiply
ENCODING 215
SWIDTH 600 0
DWIDTH 17 0
BBX 13 13 2 2
BITMAP
2020
7070
F8F8
7DF0
3FE0
1FC0
0F80
1FC0
3FE0
7DF0
F8F8
F078
6030
ENDCHAR
STARTCHAR Oslash
ENCODING 216
SWIDTH 600 0
DWIDTH 17 0
BBX 17 24 0 -2
BITMAP
000400
000700
07F780
0FFF00
1FFE00
3E3E00
7C3E00
7C3F00
787F00
78EF00
78EF00
79CF00
79CF00
7B8F00
7B8F00
7F0F00
7E1F00
7E1E00
3E3E00
3FFC00
7FF800
77F000
F00000
200000
ENDCHAR
STARTCHAR Ugrave
ENCODING 217
SWIDTH 600 0
DWIDTH 17 0
BBX 15 28 1 0
BITMAP
0200
0E00
1F00
0F00
0780
0380
0140
0000
F83E
F83E
F83E
F83E
F83E
F83E
F83E
F83E
F83E
F83E
F83E
F83E
F83E
F83E
783C
783C
7C7C
7FFC
3FF8
0FE0
ENDCHAR
STARTCHAR Uacute
ENCODING 218
SWIDTH 600 0
DWIDTH 17 0
BBX 15 28 1 0
BITMAP
0080
00E0
01F0
01E0
03C0
0380
0500
0000
F83E
F83E
F83E
F83E
F83E
F83E
F83E
F83E
F83E
F83E
F83E
F83E
F83E
F83E
783C
783C
7C7C
7FFC
3FF8
0FE0
ENDCHAR
STARTCHAR Ucircumflex
ENCODING 219
SWIDTH 600 0
DWIDTH 17 0
BBX 15 27 1 0
BITMAP
07C0
0FE0
0FE0
1EF0
3C78
1830
0000
F83E
F83E
F83E
F83E
F83E
F83E
F83E
F83E
F83E
F83E
F83E
F83E
F83E
F83E
783C
783C
7C7C
7FFC
3FF8
0FE0
ENDCHAR
STARTCHAR Udieresis
ENCODING 220
SWIDTH 600 0
DWIDTH 17 0
BBX 15 27 1 0
BITMAP
1C70
3EF8
3EF8
3EF8
1C70
0000
0000
F83E
F83E
F83E
F83E
F83E
F83E
F83E
F83E
F83E
F83E
F83E
F83E
F83E
F83E
783C
783C
7C7C
7FFC
3FF8
0FE0
ENDCHAR
STARTCHAR Yacute
ENCODING 221
SWIDTH 600 0
DWIDTH 17 0
BBX 17 28 0 0
BITMAP
004000
007000
00F800
00F000
01E000
01C000
028000
000000
F80F80
780F00
7C1F00
3C1E00
3E3E00
1E3C00
1F3C00
1F7C00
0F7800
0FF800
07F000
07F000
03E000
03E000
03E000
03E000
03E000
03E000
03E000
03E000
ENDCHAR
STARTCHAR Thorn
ENCODING 222
SWIDTH 600 0
DWIDTH 17 0
BBX 14 20 2 0
BITMAP
F000
F000
F000
FFC0
FFF0
FFF8
F0F8
F07C
F07C
F07C
F07C
F07C
F078
FFF8
FFF0
FFC0
F000
F000
F000
F000
ENDCHAR
STARTCHAR germandbls
ENCODING 223
SWIDTH 600 0
DWIDTH 17 0
BBX 14 27 2 -6
BITMAP
3F80
FF80
FF80
F000
F000
F000
FFF8
FFF8
FFF8
F078
F0F0
F1F0
F1E0
F3C0
F3C0
F3F0
F3F8
F07C
F03C
F03C
F03C
003C
003C
007C
07F8
07F0
07C0
ENDCHAR
STARTCHAR agrave
ENCODING 224
SWIDTH 600 0
DWIDTH 17 0
BBX 15 24 1 0
BITMAP
0200
0E00
1F00
0F00
0780
0380
0300
0000
0000
0FC0
3FF0
7FF8
7878
207C
007C
1FFC
3FFC
7FFC
F87C
F87C
F87C
7FFE
7FBE
1F1E
ENDCHAR
STARTCHAR aacute
ENCODING 225
SWIDTH 600 0
DWIDTH 17 0
BBX 15 24 1 0
BITMAP
0080
01E0
01F0
03C0
03C0
0780
0100
0000
0000
0FC0
3FF0
7FF8
7878
207C
007C
1FFC
3FFC
7FFC
F87C
F87C
F87C
7FFE
7FBE
1F1E
ENDCHAR
STARTCHAR acircumflex
ENCODING 226
SWIDTH 600 0
DWIDTH 17 0
BBX 15 23 1 0
BITMAP
07C0
0FC0
1FE0
3CF0
3878
1020
0000
0000
0FC0
3FF0
7FF8
7878
207C
007C
1FFC
3FFC
7FFC
F87C
F87C
F87C
7FFE
7FBE
1F1E
ENDCHAR
STARTCHAR atilde
ENCODING 227
SWIDTH 600 0
DWIDTH 17 0
BBX 15 21 1 0
BITMAP
1E10
3FF0
3FF8
11E0
0000
0000
0FC0
3FF0
7FF8
7878
207C
007C
1FFC
3FFC
7FFC
F87C
F87C
F87C
7FFE
7FBE
1F1E
ENDCHAR
STARTCHAR adieresis
ENCODING 228
SWIDTH 600 0
DWIDTH 17 0
BBX 15 22 1 0
BITMAP
3C70
3CF8
3CF8
3CF8
3C70
0000
0000
0FC0
3FF0
7FF8
7878
207C
007C
1FFC
3FFC
7FFC
F87C
F87C
F87C
7FFE
7FBE
1F1E
ENDCHAR
STARTCHAR aring
ENCODING 229
SWIDTH 600 0
DWIDTH 17 0
BBX 15 24 1 0
BITMAP
0780
0FE0
1CE0
1C70
1C70
1CE0
0FE0
0780
0000
0FC0
3FF0
7FF8
7878
207C
007C
1FFC
3FFC
7FFC
F87C
F87C
F87C
7FFE
7FBE
1F1E
ENDCHAR
STARTCHAR ae
ENCODING 230
SWIDTH 600 0
DWIDTH 17 0
BBX 17 15 0 0
BITMAP
1E3C00
7F7E00
7FFF00
F3C700
63C380
03FF80
3FFF80
7FFF80
FFC000
F3C000
E3C300
F3E780
FEFF00
7EFE00
3C3C00
ENDCHAR
STARTCHAR ccedilla
ENCODING 231
SWIDTH 600 0
DWIDTH 17 0
BBX 14 20 2 -5
BITMAP
0FC0
3FF0
7FF8
F878
F020
F000
F000
F000
F000
F000
F020
F878
7FFC
3FF0
0FE0
0600
07C0
01E0
08E0
1FC0
ENDCHAR
STARTCHAR egrave
ENCODING 232
SWIDTH 600 0
DWIDTH 17 0
BBX 15 24 1 0
BITMAP
0200
0E00
1F00
0F00
0780
0380
0100
0000
0000
07C0
1FF0
3FF8
7C7C
783C
F81E
FFFE
FFFE
FFFE
F800
7800
7C18
3FFC
1FFC
07E0
ENDCHAR
STARTCHAR eacute
ENCODING 233
SWIDTH 600 0
DWIDTH 17 0
BBX 15 24 1 0
BITMAP
0080
00E0
01F0
01E0
03C0
0380
0500
0000
0000
07C0
1FF0
3FF8
7C7C
783C
F81E
FFFE
FFFE
FFFE
F800
7800
7C18
3FFC
1FFC
07E0
ENDCHAR
STARTCHAR ecircumflex
ENCODING 234
SWIDTH 600 0
DWIDTH 17 0
BBX 15 23 1 0
BITMAP
07C0
0FE0
0FF0
1EF0
3C78
1830
0000
0000
07C0
1FF0
3FF8
7C7C
783C
F81E
FFFE
FFFE
FFFE
F800
7800
7C18
3FFC
1FFC
07E0
ENDCHAR
STARTCHAR edieresis
ENCODING 235
SWIDTH 600 0
DWIDTH 17 0
BBX 15 22 1 0
BITMAP
1C70
3EF8
3EF8
3EF8
1C70
0000
0000
07C0
1FF0
3FF8
7C7C
783C
F81E
FFFE
FFFE
FFFE
F800
7800
7C18
3FFC
1FFC
07E0
ENDCHAR
STARTCHAR igrave
ENCODING 236
SWIDTH 600 0
DWIDTH 17 0
BBX 13 24 3 0
BITMAP
0400
1C00
3E00
1E00
0F00
0700
0280
0000
0000
FF80
FF80
FF80
0F80
0F80
0F80
0F80
0F80
0F80
0F80
0F80
0F80
FFF8
FFF8
FFF8
ENDCHAR
STARTCHAR iacute
ENCODING 237
SWIDTH 600 0
DWIDTH 17 0
BBX 13 24 3 0
BITMAP
0100
03C0
03E0
07C0
0780
0F00
0200
0000
0000
FF80
FF80
FF80
0F80
0F80
0F80
0F80
0F80
0F80
0F80
0F80
0F80
FFF8
FFF8
FFF8
ENDCHAR
STARTCHAR icircumflex
ENCODING 238
SWIDTH 600 0
DWIDTH 17 0
BBX 13 23 3 0
BITMAP
0F80
1FC0
3FC0
3DE0
78F0
2060
0000
0000
FF80
FF80
FF80
0F80
0F80
0F80
0F80
0F80
0F80
0F80
0F80
0F80
FFF8
FFF8
FFF8
ENDCHAR
STARTCHAR idieresis
ENCODING 239
SWIDTH 600 0
DWIDTH 17 0
BBX 13 22 3 0
BITMAP
38E0
7DF0
7DF0
7DF0
38E0
0000
0000
FF80
FF80
FF80
0F80
0F80
0F80
0F80
0F80
0F80
0F80
0F80
0F80
FFF8
FFF8
FFF8
ENDCHAR
STARTCHAR eth
ENCODING 240
SWIDTH 600 0
DWIDTH 17 0
BBX 15 21 1 0
BITMAP
7F30
1FF8
07E0
07E0
1FF0
0CF8
007C
1F3C
3FFC
7FDE
7C7E
F83E
F01E
F01E
F01E
F01E
F83E
7C7C
7FFC
3FF8
0FE0
ENDCHAR
STARTCHAR ntilde
ENCODING 241
SWIDTH 600 0
DWIDTH 17 0
BBX 13 21 2 0
BITMAP
1E20
7FF0
7FF0
23E0
0000
0000
F3E0
F7F0
FFF8
F8F8
F078
F078
F078
F078
F078
F078
F078
F078
F078
F078
F078
ENDCHAR
STARTCHAR ograve
ENCODING 242
SWIDTH 600 0
DWIDTH 17 0
BBX 15 24 1 0
BITMAP
0200
0E00
1F00
0F00
0780
0380
0140
0000
0000
0FE0
1FF0
3FF8
7C7C
F83E
F03E
F01E
F01E
F01E
F03E
F83E
7C7C
3FF8
1FF0
0FE0
ENDCHAR
STARTCHAR oacute
ENCODING 243
SWIDTH 600 0
DWIDTH 17 0
BBX 15 24 1 0
BITMAP
0080
00E0
01F0
01E0
03C0
0380
0500
0000
0000
0FE0
1FF0
3FF8
7C7C
F83E
F03E
F01E
F01E
F01E
F03E
F83E
7C7C
3FF8
1FF0
0FE0
ENDCHAR
STARTCHAR ocircumflex
ENCODING 244
SWIDTH 600 0
DWIDTH 17 0
BBX 15 23 1 0
BITMAP
07C0
0FE0
0FE0
1EF0
3C78
1830
0000
0000
0FE0
1FF0
3FF8
7C7C
F83E
F03E
F01E
F01E
F01E
F03E
F83E
7C7C
3FF8
1FF0
0FE0
ENDCHAR
STARTCHAR otilde
ENCODING 245
SWIDTH 600 0
DWIDTH 17 0
BBX 15 21 1 0
BITMAP
1F10
3FF8
3FF8
11F0
0000
0000
0FE0
1FF0
3FF8
7C7C
F83E
F03E
F01E
F01E
F01E
F03E
F83E
7C7C
3FF8
1FF0
0FE0
ENDCHAR
STARTCHAR odieresis
ENCODING 246
SWIDTH 600 0
DWIDTH 17 0
BBX 15 22 1 0
BITMAP
1C70
3EF8
3EF8
3EF8
1C70
0000
0000
0FE0
1FF0
3FF8
7C7C
F83E
F03E
F01E
F01E
F01E
F03E
F83E
7C7C
3FF8
1FF0
0FE0
ENDCHAR
STARTCHAR divide
ENCODING 247
SWIDTH 600 0
DWIDTH 17 0
BBX 13 17 2 0
BITMAP
0700
0F80
0F80
0F80
0700
0000
0000
FFF8
FFF8
FFF8
0000
0000
0700
0F80
0F80
0F80
0700
ENDCHAR
STARTCHAR oslash
ENCODING 248
SWIDTH 600 0
DWIDTH 17 0
BBX 17 17 0 -1
BITMAP
000600
07F780
0FFF00
1FFE00
3E3E00
7C7F00
7C7F00
78EF00
79CF00
7B8F00
7F1F00
7F1F00
3E3E00
3FFC00
7FF800
77F000
B00000
ENDCHAR
STARTCHAR ugrave
ENCODING 249
SWIDTH 600 0
DWIDTH 17 0
BBX 13 24 2 0
BITMAP
0400
1C00
3E00
1E00
0F00
0700
0280
0000
0000
F078
F078
F078
F078
F078
F078
F078
F078
F078
F078
F078
F8F8
FFF8
7F78
3E78
ENDCHAR
STARTCHAR uacute
ENCODING 250
SWIDTH 600 0
DWIDTH 17 0
BBX 13 24 2 0
BITMAP
0100
01C0
03E0
03C0
0780
0F00
0200
0000
0000
F078
F078
F078
F078
F078
F078
F078
F078
F078
F078
F078
F8F8
FFF8
7F78
3E78
ENDCHAR
STARTCHAR ucircumflex
ENCODING 251
SWIDTH 600 0
DWIDTH 17 0
BBX 13 23 2 0
BITMAP
0F80
1FC0
3FC0
3DE0
78F0
2060
0000
0000
F078
F078
F078
F078
F078
F078
F078
F078
F078
F078
F078
F8F8
FFF8
7F78
3E78
ENDCHAR
STARTCHAR udieresis
ENCODING 252
SWIDTH 600 0
DWIDTH 17 0
BBX 13 22 2 0
BITMAP
38E0
7DF0
7DF0
7DF0
38E0
0000
0000
F078
F078
F078
F078
F078
F078
F078
F078
F078
F078
F078
F8F8
FFF8
7F78
3E78
ENDCHAR
STARTCHAR yacute
ENCODING 253
SWIDTH 600 0
DWIDTH 17 0
BBX 17 30 0 -6
BITMAP
004000
007000
00F800
00F000
01E000
01C000
028000
000000
000000
F80F80
780F00
7C1F00
3C1E00
3E1E00
1E3C00
1E3C00
1E3C00
0F7800
0F7800
077000
07F000
07F000
03E000
03E000
03C000
03C000
03C000
3F8000
3F0000
3E0000
ENDCHAR
STARTCHAR thorn
ENCODING 254
SWIDTH 600 0
DWIDTH 17 0
BBX 14 27 2 -6
BITMAP
F000
F000
F000
F000
F000
F000
F3E0
F7F0
FFF8
F8F8
F07C
F03C
F03C
F03C
F03C
F07C
F07C
F8F8
FFF8
F7F0
F3E0
F000
F000
F000
F000
F000
F000
ENDCHAR
STARTCHAR ydieresis
ENCODING 255
SWIDTH 600 0
DWIDTH 17 0
BBX 17 28 0 -6
BITMAP
0E3800
1F3C00
1F7C00
1F3C00
0E3800
000000
000000
F80F80
780F00
7C1F00
3C1E00
3E1E00
1E3C00
1E3C00
1E3C00
0F7800
0F7800
077000
07F000
07F000
03E000
03E000
03C000
03C000
03C000
3F8000
3F0000
3E0000
ENDCHAR
STARTCHAR Amacron
ENCODING 256
SWIDTH 600 0
DWIDTH 17 0
BBX 17 26 0 0
BITMAP
0FF800
0FF800
0FF800
000000
000000
000000
07F000
07F000
07F000
0FF800
0F7800
0F7800
0F7800
1E7C00
1E3C00
1E3C00
1E3C00
3C3E00
3FFE00
3FFE00
7FFF00
781F00
780F00
780F00
F80F80
F00F80
ENDCHAR
STARTCHAR amacron
ENCODING 257
SWIDTH 600 0
DWIDTH 17 0
BBX 15 21 1 0
BITMAP
1FF0
1FF0
1FF0
0000
0000
0000
0FC0
3FF0
7FF8
7878
207C
007C
1FFC
3FFC
7FFC
F87C
F87C
F87C
7FFE
7FBE
1F1E
ENDCHAR
STARTCHAR Abreve
ENCODING 258
SWIDTH 600 0
DWIDTH 17 0
BBX 17 27 0 0
BITMAP
0C1800
1C1C00
1E3C00
0FF800
07F000
03E000
000000
07F000
07F000
07F000
0FF800
0F7800
0F7800
0F7800
1E7C00
1E3C00
1E3C00
1E3C00
3C3E00
3FFE00
3FFE00
7FFF00
781F00
780F00
780F00
F80F80
F00F80
ENDCHAR
STARTCHAR abreve
ENCODING 259
SWIDTH 600 0
DWIDTH 17 0
BBX 15 23 1 0
BITMAP
1830
3878
3C70
1FF0
0FE0
07C0
0000
0000
0FC0
3FF0
7FF8
7878
207C
007C
1FFC
3FFC
7FFC
F87C
F87C
F87C
7FFE
7FBE
1F1E
ENDCHAR
STARTCHAR Aogonek
ENCODING 260
SWIDTH 600 0
DWIDTH 17 0
BBX 18 26 0 -6
BITMAP
07F000
07F000
07F000
0FF800
0F7800
0F7800
0F7800
1E7C00
1E3C00
1E3C00
1E3C00
3C3E00
3FFE00
3FFE00
7FFF00
781F00
780F00
780F00
F80F80
F00F80
000700
000E00
001C00
001C80
001FC0
000F80
ENDCHAR
STARTCHAR aogonek
ENCODING 261
SWIDTH 600 0
DWIDTH 17 0
BBX 16 21 1 -6
BITMAP
0FC0
3FF0
7FF8
7878
207C
007C
1FFC
3FFC
7FFC
F87C
F87C
F87C
7FFE
7FBE
1F1E
000E
0038
0070
0072
007F
003E
ENDCHAR
STARTCHAR Cacute
ENCODING 262
SWIDTH 600 0
DWIDTH 17 0
BBX 15 28 1 0
BITMAP
0080
00E0
01F0
01E0
03C0
0380
0180
0000
07E0
1FF8
3FFC
7C3E
783E
781C
F800
F800
F800
F800
F800
F800
F800
F800
781C
783E
7C3C
3FFC
1FF8
07E0
ENDCHAR
STARTCHAR cacute
ENCODING 263
SWIDTH 600 0
DWIDTH 17 0
BBX 14 24 2 0
BITMAP
0100
01C0
03E0
03C0
0780
0780
0300
0000
0000
0FC0
3FF0
7FF8
F878
F020
F000
F000
F000
F000
F000
F020
F878
7FFC
3FF0
0FC0
ENDCHAR
STARTCHAR Ccircumflex
ENCODING 264
SWIDTH 600 0
DWIDTH 17 0
BBX 15 27 1 0
BITMAP
03C0
07E0
0FF0
1E78
3C38
0810
0000
07E0
1FF8
3FFC
7C3E
783E
781C
F800
F800
F800
F800
F800
F800
F800
F800
781C
783E
7C3C
3FFC
1FF8
07E0
ENDCHAR
STARTCHAR ccircumflex
ENCODING 265
SWIDTH 600 0
DWIDTH 17 0
BBX 14 23 2 0
BITMAP
0780
0FC0
1FE0
3CF0
7878
1020
0000
0000
0FC0
3FF0
7FF8
F878
F020
F000
F000
F000
F000
F000
F020
F878
7FFC
3FF0
0FC0
ENDCHAR
STARTCHAR Cdotaccent
ENCODING 266
SWIDTH 600 0
DWIDTH 17 0
BBX 15 27 1 0
BITMAP
03C0
07C0
07C0
07C0
03C0
0000
0000
07E0
1FF8
3FFC
7C3E
783E
781C
F800
F800
F800
F800
F800
F800
F800
F800
781C
783E
7C3C
3FFC
1FF8
07E0
ENDCHAR
STARTCHAR cdotaccent
ENCODING 267
SWIDTH 600 0
DWIDTH 17 0
BBX 14 22 2 0
BITMAP
0780
0F80
0F80
0F80
0780
0000
0000
0FC0
3FF0
7FF8
F878
F020
F000
F000
F000
F000
F000
F020
F878
7FFC
3FF0
0FC0
ENDCHAR
STARTCHAR Ccaron
ENCODING 268
SWIDTH 600 0
DWIDTH 17 0
BBX 15 28 1 0
BITMAP
0810
3C38
1E78
0FF0
07E0
03C0
0000
0000
07E0
1FF8
3FFC
7C3E
783E
781C
F800
F800
F800
F800
F800
F800
F800
F800
781C
783E
7C3C
3FFC
1FF8
07E0
ENDCHAR
STARTCHAR ccaron
ENCODING 269
SWIDTH 600 0
DWIDTH 17 0
BBX 14 23 2 0
BITMAP
1020
7870
3CF8
1FE0
0FC0
0780
0000
0000
0FC0
3FF0
7FF8
F878
F020
F000
F000
F000
F000
F000
F020
F878
7FFC
3FF0
0FC0
ENDCHAR
STARTCHAR Dcaron
ENCODING 270
SWIDTH 600 0
DWIDTH 17 0
BBX 14 28 2 0
BITMAP
2040
F0E0
79F0
3FC0
1F80
0F00
0000
0000
FF80
FFE0
FFF0
F0F8
F078
F07C
F07C
F03C
F03C
F03C
F03C
F03C
F03C
F07C
F07C
F078
F0F8
FFF0
FFE0
FF80
ENDCHAR
STARTCHAR dcaron
ENCODING 271
SWIDTH 600 0
DWIDTH 17 0
BBX 17 21 1 0
BITMAP
00F380
00F780
00F780
00F700
00F700
00F700
3CF000
7EF000
FFF000
F9F000
F0F000
F0F000
F0F000
F0F000
F0F000
F0F000
F0F000
F9F000
FFF000
7EF000
3CF000
ENDCHAR
STARTCHAR Dcroat
ENCODING 272
SWIDTH 600 0
DWIDTH 17 0
BBX 16 20 0 0
BITMAP
3FE0
3FF8
3FFC
3C3E
3C1E
3C1F
3C1F
3C0F
FF8F
FF8F
FF8F
3C0F
3C0F
3C1F
3C1F
3C1E
3C3E
3FFC
3FF8
3FE0
ENDCHAR
STARTCHAR dcroat
ENCODING 273
SWIDTH 600 0
DWIDTH 17 0
BBX 16 21 1 0
BITMAP
003C
03FF
03FF
03FF
003C
003C
1F3C
3FBC
7FFC
7C7C
F83C
F03C
F03C
F03C
F03C
F03C
F83C
7C7C
7FFC
3FBC
1F3C
ENDCHAR
STARTCHAR Emacron
ENCODING 274
SWIDTH 600 0
DWIDTH 17 0
BBX 13 26 2 0
BITMAP
3FE0
3FE0
3FE0
0000
0000
0000
FFF8
FFF8
FFF8
F800
F800
F800
F800
F800
FFF8
FFF8
FFF8
F800
F800
F800
F800
F800
F800
FFF8
FFF8
FFF8
ENDCHAR
STARTCHAR emacron
ENCODING 275
SWIDTH 600 0
DWIDTH 17 0
BBX 15 21 1 0
BITMAP
1FF0
1FF0
1FF0
0000
0000
0000
07C0
1FF0
3FF8
7C7C
783C
F81E
FFFE
FFFE
FFFE
F800
7800
7C18
3FFC
1FFC
07E0
ENDCHAR
STARTCHAR Ebreve
ENCODING 276
SWIDTH 600 0
DWIDTH 17 0
BBX 13 27 2 0
BITMAP
3060
7070
38F0
3FE0
1FC0
0F80
0000
FFF8
FFF8
FFF8
F800
F800
F800
F800
F800
FFF8
FFF8
FFF8
F800
F800
F800
F800
F800
F800
FFF8
FFF8
FFF8
ENDCHAR
STARTCHAR ebreve
ENCODING 277
SWIDTH 600 0
DWIDTH 17 0
BBX 15 23 1 0
BITMAP
1830
3838
3C78
1FF0
0FE0
07C0
0000
0000
07C0
1FF0
3FF8
7C7C
783C
F81E
FFFE
FFFE
FFFE
F800
7800
7C18
3FFC
1FFC
07E0
ENDCHAR
STARTCHAR Edotaccent
ENCODING 278
SWIDTH 600 0
DWIDTH 17 0
BBX 13 27 2 0
BITMAP
0780
0F80
0F80
0F80
0700
0000
0000
FFF8
FFF8
FFF8
F800
F800
F800
F800
F800
FFF8
FFF8
FFF8
F800
F800
F800
F800
F800
F800
FFF8
FFF8
FFF8
ENDCHAR
STARTCHAR edotaccent
ENCODING 279
SWIDTH 600 0
DWIDTH 17 0
BBX 15 22 1 0
BITMAP
0380
07C0
07C0
07C0
0380
0000
0000
07C0
1FF0
3FF8
7C7C
783C
F81E
FFFE
FFFE
FFFE
F800
7800
7C18
3FFC
1FFC
07E0
ENDCHAR
STARTCHAR Eogonek
ENCODING 280
SWIDTH 600 0
DWIDTH 17 0
BBX 14 26 2 -6
BITMAP
FFF8
FFF8
FFF8
F000
F000
F000
F000
F000
FFF8
FFF8
FFF8
F000
F000
F000
F000
F000
F000
FFF8
FFF8
FFF8
0070
00E0
01C0
01C8
01FC
00F8
ENDCHAR
STARTCHAR eogonek
ENCODING 281
SWIDTH 600 0
DWIDTH 17 0
BBX 15 21 1 -6
BITMAP
07C0
1FF0
3FF8
7C7C
783C
F81E
FFFE
FFFE
FFFE
F800
7800
7C18
3FFC
1FFC
07F8
00E0
01C0
0380
0390
03F8
01F0
ENDCHAR
STARTCHAR Ecaron
ENCODING 282
SWIDTH 600 0
DWIDTH 17 0
BBX 13 28 2 0
BITMAP
3020
7870
3CE0
1FE0
1FC0
0F80
0000
0000
FFF8
FFF8
FFF8
F800
F800
F800
F800
F800
FFF8
FFF8
FFF8
F800
F800
F800
F800
F800
F800
FFF8
FFF8
FFF8
ENDCHAR
STARTCHAR ecaron
ENCODING 283
SWIDTH 600 0
DWIDTH 17 0
BBX 15 23 1 0
BITMAP
1810
3C78
1EF0
0FF0
0FE0
07C0
0000
0000
07C0
1FF0
3FF8
7C7C
783C
F81E
FFFE
FFFE
FFFE
F800
7800
7C18
3FFC
1FFC
07E0
ENDCHAR
STARTCHAR Gcircumflex
ENCODING 284
SWIDTH 600 0
DWIDTH 17 0
BBX 15 27 1 0
BITMAP
07C0
0FE0
0FF0
1EF0
3C78
1830
0000
0FE0
1FF0
3FF8
7C7C
783C
F83E
F800
F000
F000
F1FE
F1FE
F1FE
F01E
F81E
F81E
F83E
7C7E
7FDE
3FDE
0F1E
ENDCHAR
STARTCHAR gcircumflex
ENCODING 285
SWIDTH 600 0
DWIDTH 17 0
BBX 16 29 1 -6
BITMAP
07C0
0FC0
1FE0
1EF0
3878
1030
0000
0000
0FFF
3FFF
3FFF
787C
783C
783C
787C
7FF8
3FF0
1FE0
3000
7000
7FF8
7FFE
1FFE
701F
F00F
F01F
FFFE
7FFC
1FF0
ENDCHAR
STARTCHAR Gbreve
ENCODING 286
SWIDTH 600 0
DWIDTH 17 0
BBX 15 27 1 0
BITMAP
1830
3838
3C78
1FF0
0FE0
07C0
0000
0FE0
1FF0
3FF8
7C7C
783C
F83E
F800
F000
F000
F1FE
F1FE
F1FE
F01E
F81E
F81E
F83E
7C7E
7FDE
3FDE
0F1E
ENDCHAR
STARTCHAR gbreve
ENCODING 287
SWIDTH 600 0
DWIDTH 17 0
BBX 16 29 1 -6
BITMAP
1830
3878
3C70
1FF0
0FE0
07C0
0000
0000
0FFF
3FFF
3FFF
787C
783C
783C
787C
7FF8
3FF0
1FE0
3000
7000
7FF8
7FFE
1FFE
701F
F00F
F01F
FFFE
7FFC
1FF0
ENDCHAR
STARTCHAR Gdotaccent
ENCODING 288
SWIDTH 600 0
DWIDTH 17 0
BBX 15 27 1 0
BITMAP
0380
07C0
07C0
07C0
0380
0000
0000
0FE0
1FF0
3FF8
7C7C
783C
F83E
F800
F000
F000
F1FE
F1FE
F1FE
F01E
F81E
F81E
F83E
7C7E
7FDE
3FDE
0F1E
ENDCHAR
STARTCHAR gdotaccent
ENCODING 289
SWIDTH 600 0
DWIDTH 17 0
BBX 16 28 1 -6
BITMAP
0780
07C0
07C0
07C0
039E
003E
003E
0FF0
3FF8
3FF8
787C
783C
783C
787C
7FF8
3FF0
1FE0
3000
7000
7FF8
7FFE
1FFE
701F
F00F
F01F
FFFE
7FFC
1FF0
ENDCHAR
STARTCHAR Gcommaaccent
ENCODING 290
SWIDTH 600 0
DWIDTH 17 0
BBX 15 28 1 -8
BITMAP
0FE0
1FF0
3FF8
7C7C
783C
F83E
F800
F000
F000
F1FE
F1FE
F1FE
F01E
F81E
F81E
F83E
7C7E
7FDE
3FDE
0F1E
0000
0000
07C0
0780
0780
0780
0700
0700
ENDCHAR
STARTCHAR gcommaaccent
ENCODING 291
SWIDTH 600 0
DWIDTH 17 0
BBX 16 29 1 -6
BITMAP
01C0
01C0
03C0
03C0
03C0
07DE
003E
003E
0FF0
3FF8
3FF8
787C
783C
783C
787C
7FF8
3FF0
1FE0
3000
7000
7FF8
7FFE
1FFE
701F
F00F
F01F
FFFE
7FFC
1FF0
ENDCHAR
STARTCHAR Hcircumflex
ENCODING 292
SWIDTH 600 0
DWIDTH 17 0
BBX 13 27 2 0
BITMAP
0F80
1FC0
1FC0
3DE0
78F0
3060
0000
F078
F078
F078
F078
F078
F078
F078
F078
F078
FFF8
FFF8
FFF8
F078
F078
F078
F078
F078
F078
F078
F078
ENDCHAR
STARTCHAR hcircumflex
ENCODING 293
SWIDTH 600 0
DWIDTH 17 0
BBX 17 28 -2 0
BITMAP
0F0000
1F8000
3FC000
79E000
F0E000
204000
000000
0F0000
0F0000
0F0000
0F0000
0F0000
0F0000
0F3E00
0F7F00
0FFF80
0F8F80
0F0780
0F0780
0F0780
0F0780
0F0780
0F0780
0F0780
0F0780
0F0780
0F0780
0F0780
ENDCHAR
STARTCHAR Hbar
ENCODING 294
SWIDTH 600 0
DWIDTH 17 0
BBX 17 20 0 0
BITMAP
3C1E00
3C1E00
FFFF80
FFFF80
FFFF80
3C1E00
3C1E00
3C1E00
3FFE00
3FFE00
3FFE00
3C1E00
3C1E00
3C1E00
3C1E00
3C1E00
3C1E00
3C1E00
3C1E00
3C1E00
ENDCHAR
STARTCHAR hbar
ENCODING 295
SWIDTH 600 0
DWIDTH 17 0
BBX 15 21 0 0
BITMAP
3C00
FFC0
FFC0
FFC0
3C00
3C00
3CF8
3DFC
3FFE
3E3E
3C1E
3C1E
3C1E
3C1E
3C1E
3C1E
3C1E
3C1E
3C1E
3C1E
3C1E
ENDCHAR
STARTCHAR Itilde
ENCODING 296
SWIDTH 600 0
DWIDTH 17 0
BBX 13 26 2 0
BITMAP
3E20
7FF0
7FF0
23E0
0000
0000
FFF8
FFF8
FFF8
0F80
0F80
0F80
0F80
0F80
0F80
0F80
0F80
0F80
0F80
0F80
0F80
0F80
0F80
FFF8
FFF8
FFF8
ENDCHAR
STARTCHAR itilde
ENCODING 297
SWIDTH 600 0
DWIDTH 17 0
BBX 13 21 3 0
BITMAP
3E20
7FF0
7FF0
23C0
0000
0000
FF80
FF80
FF80
0F80
0F80
0F80
0F80
0F80
0F80
0F80
0F80
0F80
FFF8
FFF8
FFF8
ENDCHAR
STARTCHAR Imacron
ENCODING 298
SWIDTH 600 0
DWIDTH 17 0
BBX 13 26 2 0
BITMAP
3FE0
3FE0
3FE0
0000
0000
0000
FFF8
FFF8
FFF8
0F80
0F80
0F80
0F80
0F80
0F80
0F80
0F80
0F80
0F80
0F80
0F80
0F80
0F80
FFF8
FFF8
FFF8
ENDCHAR
STARTCHAR imacron
ENCODING 299
SWIDTH 600 0
DWIDTH 17 0
BBX 13 21 3 0
BITMAP
3FE0
3FE0
3FE0
0000
0000
0000
FF80
FF80
FF80
0F80
0F80
0F80
0F80
0F80
0F80
0F80
0F80
0F80
FFF8
FFF8
FFF8
ENDCHAR
STARTCHAR Ibreve
ENCODING 300
SWIDTH 600 0
DWIDTH 17 0
BBX 13 27 2 0
BITMAP
3060
7070
78F0
3FE0
1FC0
0F80
0000
FFF8
FFF8
FFF8
0F80
0F80
0F80
0F80
0F80
0F80
0F80
0F80
0F80
0F80
0F80
0F80
0F80
0F80
FFF8
FFF8
FFF8
ENDCHAR
STARTCHAR ibreve
ENCODING 301
SWIDTH 600 0
DWIDTH 17 0
BBX 13 23 3 0
BITMAP
3060
7070
78E0
3FE0
1FC0
0F80
0000
0000
FF80
FF80
FF80
0F80
0F80
0F80
0F80
0F80
0F80
0F80
0F80
0F80
FFF8
FFF8
FFF8
ENDCHAR
STARTCHAR Iogonek
ENCODING 302
SWIDTH 600 0
DWIDTH 17 0
BBX 14 26 2 -6
BITMAP
FFF8
FFF8
FFF8
0F80
0F80
0F80
0F80
0F80
0F80
0F80
0F80
0F80
0F80
0F80
0F80
0F80
0F80
FFF8
FFF8
FFF8
0070
00E0
01C0
01C8
01FC
00F8
ENDCHAR
STARTCHAR iogonek
ENCODING 303
SWIDTH 600 0
DWIDTH 17 0
BBX 15 28 2 -6
BITMAP
0380
07C0
07C0
07C0
0380
0000
0000
FFC0
FFC0
FFC0
07C0
07C0
07C0
07C0
07C0
07C0
07C0
07C0
07C0
FFFC
FFFC
FFFC
0038
0070
00E0
00E4
00FE
007C
ENDCHAR
STARTCHAR Idotaccent
ENCODING 304
SWIDTH 600 0
DWIDTH 17 0
BBX 13 27 2 0
BITMAP
0700
0F80
0F80
0F80
0700
0000
0000
FFF8
FFF8
FFF8
0F80
0F80
0F80
0F80
0F80
0F80
0F80
0F80
0F80
0F80
0F80
0F80
0F80
0F80
FFF8
FFF8
FFF8
ENDCHAR
STARTCHAR dotlessi
ENCODING 305
SWIDTH 600 0
DWIDTH 17 0
BBX 13 15 3 0
BITMAP
FF80
FF80
FF80
0F80
0F80
0F80
0F80
0F80
0F80
0F80
0F80
0F80
FFF8
FFF8
FFF8
ENDCHAR
STARTCHAR IJ
ENCODING 306
SWIDTH 600 0
DWIDTH 17 0
BBX 14 20 1 0
BITMAP
783C
783C
783C
783C
783C
783C
783C
783C
783C
783C
783C
003C
003C
003C
383C
F87C
7C7C
7FF8
3FF0
0FC0
ENDCHAR
STARTCHAR ij
ENCODING 307
SWIDTH 600 0
DWIDTH 17 0
BBX 14 28 2 -6
BITMAP
F078
F8F8
F8FC
F8F8
F078
0000
0000
F078
F078
F078
F078
F078
F078
F078
F078
F078
F078
F078
F078
F078
F078
F078
0078
0078
0078
0FF8
0FF0
0FE0
ENDCHAR
STARTCHAR Jcircumflex
ENCODING 308
SWIDTH 600 0
DWIDTH 17 0
BBX 14 27 1 0
BITMAP
03C0
07E0
0FF0
1E78
3C3C
0810
0000
1FFC
1FFC
1FFC
007C
007C
007C
007C
007C
007C
007C
007C
007C
007C
007C
307C
F078
F8F8
7FF8
3FF0
0FC0
ENDCHAR
STARTCHAR jcircumflex
ENCODING 309
SWIDTH 600 0
DWIDTH 17 0
BBX 14 29 2 -6
BITMAP
03E0
07E0
0FF0
0F78
1C3C
0818
0000
0000
FFE0
FFE0
FFE0
03E0
03E0
03E0
03E0
03E0
03E0
03E0
03E0
03E0
03E0
03E0
03E0
03E0
03E0
03C0
FFC0
FFC0
FF00
ENDCHAR
STARTCHAR Kcommaaccent
ENCODING 310
SWIDTH 600 0
DWIDTH 17 0
BBX 15 28 2 -8
BITMAP
F03E
F07C
F0F8
F0F8
F1F0
F3E0
F3C0
F7C0
FF80
FFC0
FFC0
FFE0
FBE0
F9F0
F1F0
F0F8
F0F8
F07C
F03C
F03E
0000
0000
07C0
0780
0780
0700
0700
0700
ENDCHAR
STARTCHAR kcommaaccent
ENCODING 311
SWIDTH 600 0
DWIDTH 17 0
BBX 14 29 2 -8
BITMAP
F000
F000
F000
F000
F000
F000
F07C
F0F8
F1F0
F3E0
F7C0
FF80
FF80
FFC0
FFC0
F3E0
F1F0
F1F0
F0F8
F07C
F07C
0000
0000
0780
0780
0F00
0F00
0E00
0E00
ENDCHAR
STARTCHAR kgreenlandic
ENCODING 312
SWIDTH 600 0
DWIDTH 17 0
BBX 14 15 2 0
BITMAP
F07C
F0F8
F1F0
F3E0
F7C0
F780
FF80
FFC0
FFC0
F3E0
F1F0
F1F0
F0F8
F07C
F07C
ENDCHAR
STARTCHAR Lacute
ENCODING 313
SWIDTH 600 0
DWIDTH 17 0
BBX 13 28 3 0
BITMAP
2000
3800
7C00
7800
F000
E000
6000
0000
F000
F000
F000
F000
F000
F000
F000
F000
F000
F000
F000
F000
F000
F000
F000
F000
F000
FFF8
FFF8
FFF8
ENDCHAR
STARTCHAR lacute
ENCODING 314
SWIDTH 600 0
DWIDTH 17 0
BBX 13 29 2 0
BITMAP
0100
01C0
03E0
03C0
0780
0700
0A00
0000
FF80
FF80
FF80
0F80
0F80
0F80
0F80
0F80
0F80
0F80
0F80
0F80
0F80
0F80
0F80
0F80
0F80
0F80
FFF8
FFF8
FFF8
ENDCHAR
STARTCHAR Lcommaaccent
ENCODING 315
SWIDTH 600 0
DWIDTH 17 0
BBX 13 28 3 -8
BITMAP
F000
F000
F000
F000
F000
F000
F000
F000
F000
F000
F000
F000
F000
F000
F000
F000
F000
FFF8
FFF8
FFF8
0000
0000
0F00
0F00
0E00
0E00
0E00
1C00
ENDCHAR
STARTCHAR lcommaaccent
ENCODING 316
SWIDTH 600 0
DWIDTH 17 0
BBX 13 29 2 -8
BITMAP
FF80
FF80
FF80
0F80
0F80
0F80
0F80
0F80
0F80
0F80
0F80
0F80
0F80
0F80
0F80
0F80
0F80
0F80
FFF8
FFF8
FFF8
0000
0000
0F80
0F00
0F00
0F00
0E00
0E00
ENDCHAR
STARTCHAR Lcaron
ENCODING 317
SWIDTH 600 0
DWIDTH 17 0
BBX 13 21 3 0
BITMAP
03E0
F3C0
F3C0
F3C0
F380
F380
F000
F000
F000
F000
F000
F000
F000
F000
F000
F000
F000
F000
FFF8
FFF8
FFF8
ENDCHAR
STARTCHAR lcaron
ENCODING 318
SWIDTH 600 0
DWIDTH 17 0
BBX 15 21 2 0
BITMAP
FF9E
FF9E
FF9C
0F9C
0FBC
0FB8
0F80
0F80
0F80
0F80
0F80
0F80
0F80
0F80
0F80
0F80
0F80
0F80
FFF8
FFF8
FFF8
ENDCHAR
STARTCHAR Ldot
ENCODING 319
SWIDTH 600 0
DWIDTH 17 0
BBX 13 20 3 0
BITMAP
F000
F000
F000
F000
F000
F000
F000
F000
F0F0
F1F0
F1F0
F1F0
F0F0
F000
F000
F000
F000
FFF8
FFF8
FFF8
ENDCHAR
STARTCHAR ldot
ENCODING 320
SWIDTH 600 0
DWIDTH 17 0
BBX 16 21 1 0
BITMAP
FF80
FF80
FF80
0780
0780
0780
0780
0780
0780
078E
079F
079F
079F
078F
0780
0780
0780
0780
FFFC
FFFC
FFFC
ENDCHAR
STARTCHAR Lslash
ENCODING 321
SWIDTH 600 0
DWIDTH 17 0
BBX 15 20 1 0
BITMAP
3C00
3C00
3C00
3C00
3C00
3C00
3C00
3C30
3DF0
3FF0
7FC0
FE00
FC00
BC00
3C00
3C00
3C00
3FFE
3FFE
3FFE
ENDCHAR
STARTCHAR lslash
ENCODING 322
SWIDTH 600 0
DWIDTH 17 0
BBX 13 21 2 0
BITMAP
FF80
FF80
FF80
0F80
0F80
0F80
0F80
0F80
0F90
0FF0
0FF0
3FE0
7F80
7F80
4F80
0F80
0F80
0F80
FFF8
FFF8
FFF8
ENDCHAR
STARTCHAR Nacute
ENCODING 323
SWIDTH 600 0
DWIDTH 17 0
BBX 13 28 2 0
BITMAP
0100
01C0
03E0
03C0
0780
0700
0A00
0000
F838
F838
FC38
FC38
FC38
FE38
FE38
EE38
EF38
E738
E738
E7B8
E3B8
E3F8
E3F8
E1F8
E1F8
E1F8
E0F8
E0F8
ENDCHAR
STARTCHAR nacute
ENCODING 324
SWIDTH 600 0
DWIDTH 17 0
BBX 13 24 2 0
BITMAP
0100
01C0
03E0
03C0
0780
0700
0A00
0000
0000
F3E0
F7F0
FFF8
F8F8
F078
F078
F078
F078
F078
F078
F078
F078
F078
F078
F078
ENDCHAR
STARTCHAR Ncommaaccent
ENCODING 325
SWIDTH 600 0
DWIDTH 17 0
BBX 13 28 2 -8
BITMAP
F838
F838
FC38
FC38
FC38
FE38
FE38
EE38
EF38
E738
E738
E7B8
E3B8
E3F8
E3F8
E1F8
E1F8
E1F8
E0F8
E0F8
0000
0000
0F80
0F00
0F00
0F00
0E00
0E00
ENDCHAR
STARTCHAR ncommaaccent
ENCODING 326
SWIDTH 600 0
DWIDTH 17 0
BBX 13 23 2 -8
BITMAP
F3E0
F7F0
FFF8
F8F8
F078
F078
F078
F078
F078
F078
F078
F078
F078
F078
F078
0000
0000
0F80
0F00
0F00
0F00
0E00
0E00
ENDCHAR
STARTCHAR Ncaron
ENCODING 327
SWIDTH 600 0
DWIDTH 17 0
BBX 13 28 2 0
BITMAP
3020
78F0
3DE0
1FC0
1FC0
0F80
0000
0000
F838
F838
FC38
FC38
FC38
FE38
FE38
EE38
EF38
E738
E738
E7B8
E3B8
E3F8
E3F8
E1F8
E1F8
E1F8
E0F8
E0F8
ENDCHAR
STARTCHAR ncaron
ENCODING 328
SWIDTH 600 0
DWIDTH 17 0
BBX 13 23 2 0
BITMAP
3020
78F0
3DE0
1FE0
1FC0
0F80
0000
0000
F3E0
F7F0
FFF8
F8F8
F078
F078
F078
F078
F078
F078
F078
F078
F078
F078
F078
ENDCHAR
STARTCHAR napostrophe
ENCODING 329
SWIDTH 600 0
DWIDTH 17 0
BBX 16 21 0 0
BITMAP
F000
E000
E000
E000
C000
C000
1E78
1EFE
1FFE
1F1F
1E1F
1E0F
1E0F
1E0F
1E0F
1E0F
1E0F
1E0F
1E0F
1E0F
1E0F
ENDCHAR
STARTCHAR Eng
ENCODING 330
SWIDTH 600 0
DWIDTH 17 0
BBX 13 26 2 -6
BITMAP
F838
F838
FC38
FC38
FC38
FE38
FE38
EE38
EF38
E738
E738
E7B8
E3B8
E3F8
E3F8
E1F8
E1F8
E1F8
E0F8
E0F8
0078
0078
0078
1FF8
1FF0
1FE0
ENDCHAR
STARTCHAR eng
ENCODING 331
SWIDTH 600 0
DWIDTH 17 0
BBX 13 21 2 -6
BITMAP
F3E0
F7F0
FFF8
F8F8
F078
F078
F078
F078
F078
F078
F078
F078
F078
F078
F078
0078
0078
0078
0FF8
0FF8
0FE0
ENDCHAR
STARTCHAR Omacron
ENCODING 332
SWIDTH 600 0
DWIDTH 17 0
BBX 15 26 1 0
BITMAP
1FF0
1FF0
1FF0
0000
0000
0000
0FE0
1FF0
3FF8
7C7C
F83C
F83E
F01E
F01E
F01E
F01E
F01E
F01E
F01E
F01E
F83E
F83C
7C7C
3FF8
1FF0
0FE0
ENDCHAR
STARTCHAR omacron
ENCODING 333
SWIDTH 600 0
DWIDTH 17 0
BBX 15 21 1 0
BITMAP
1FF0
1FF0
1FF0
0000
0000
0000
0FE0
1FF0
3FF8
7C7C
F83E
F03E
F01E
F01E
F01E
F03E
F83E
7C7C
3FF8
1FF0
0FE0
ENDCHAR
STARTCHAR Obreve
ENCODING 334
SWIDTH 600 0
DWIDTH 17 0
BBX 15 27 1 0
BITMAP
1830
3838
3C78
1FF0
0FE0
07C0
0000
0FE0
1FF0
3FF8
7C7C
F83C
F83E
F01E
F01E
F01E
F01E
F01E
F01E
F01E
F01E
F83E
F83C
7C7C
3FF8
1FF0
0FE0
ENDCHAR
STARTCHAR obreve
ENCODING 335
SWIDTH 600 0
DWIDTH 17 0
BBX 15 23 1 0
BITMAP
1830
3838
3C78
1FF0
0FE0
07C0
0000
0000
0FE0
1FF0
3FF8
7C7C
F83E
F03E
F01E
F01E
F01E
F03E
F83E
7C7C
3FF8
1FF0
0FE0
ENDCHAR
STARTCHAR Ohungarumlaut
ENCODING 336
SWIDTH 600 0
DWIDTH 17 0
BBX 15 28 1 0
BITMAP
0410
071C
0FBE
0F38
1E78
1C70
08A0
0000
0FE0
1FF0
3FF8
7C7C
F83C
F83E
F01E
F01E
F01E
F01E
F01E
F01E
F01E
F01E
F83E
F83C
7C7C
3FF8
1FF0
0FE0
ENDCHAR
STARTCHAR ohungarumlaut
ENCODING 337
SWIDTH 600 0
DWIDTH 17 0
BBX 15 24 1 0
BITMAP
0410
071C
0FBE
0F38
1E78
1C70
08A0
0000
0000
0FE0
1FF0
3FF8
7C7C
F83E
F03E
F01E
F01E
F01E
F03E
F83E
7C7C
3FF8
1FF0
0FE0
ENDCHAR
STARTCHAR OE
ENCODING 338
SWIDTH 600 0
DWIDTH 17 0
BBX 17 20 0 0
BITMAP
07FF80
1FFF80
3FFF80
7CF000
78F000
78F000
F0F000
F0F000
F0FF80
F0FF80
F0FF80
F0F000
F0F000
F0F000
78F000
78F000
7CF000
3FFF80
1FFF80
07FF80
ENDCHAR
STARTCHAR oe
ENCODING 339
SWIDTH 600 0
DWIDTH 17 0
BBX 17 15 0 0
BITMAP
1E3C00
3F7E00
7FFF00
73C700
F1C380
E1FF80
E1FF80
E1FF80
E1C000
E1C000
F1C300
73E780
7FFF00
3F7E00
1E3C00
ENDCHAR
STARTCHAR Racute
ENCODING 340
SWIDTH 600 0
DWIDTH 17 0
BBX 14 28 2 0
BITMAP
0100
01C0
03E0
03C0
0780
0700
0200
0000
FFE0
FFF0
FFF8
F07C
F07C
F03C
F03C
F07C
F07C
FFF8
FFF0
FFC0
F1E0
F1E0
F1F0
F0F0
F0F8
F078
F07C
F07C
ENDCHAR
STARTCHAR racute
ENCODING 341
SWIDTH 600 0
DWIDTH 17 0
BBX 14 24 2 0
BITMAP
0080
01E0
01F0
03C0
03C0
0780
0100
0000
0000
FF3C
FF7C
FFFC
1F80
1F00
1F00
1F00
1F00
1F00
1F00
1F00
1F00
FFF8
FFF8
FFF8
ENDCHAR
STARTCHAR Rcommaaccent
ENCODING 342
SWIDTH 600 0
DWIDTH 17 0
BBX 14 28 2 -8
BITMAP
FFE0
FFF0
FFF8
F07C
F07C
F03C
F03C
F07C
F07C
FFF8
FFF0
FFC0
F1E0
F1E0
F1F0
F0F0
F0F8
F078
F07C
F07C
0000
0000
0780
0780
0700
0700
0F00
0E00
ENDCHAR
STARTCHAR rcommaaccent
ENCODING 343
SWIDTH 600 0
DWIDTH 17 0
BBX 14 23 2 -8
BITMAP
FF3C
FF7C
FFFC
1F80
1F00
1F00
1F00
1F00
1F00
1F00
1F00
1F00
FFF8
FFF8
FFF8
0000
0000
1F00
1E00
1E00
1E00
1C00
1C00
ENDCHAR
STARTCHAR Rcaron
ENCODING 344
SWIDTH 600 0
DWIDTH 17 0
BBX 14 28 2 0
BITMAP
3020
7870
3CE0
1FE0
1FC0
0F80
0000
0000
FFE0
FFF0
FFF8
F07C
F07C
F03C
F03C
F07C
F07C
FFF8
FFF0
FFC0
F1E0
F1E0
F1F0
F0F0
F0F8
F078
F07C
F07C
ENDCHAR
STARTCHAR rcaron
ENCODING 345
SWIDTH 600 0
DWIDTH 17 0
BBX 14 23 2 0
BITMAP
1020
3878
3EF0
1FE0
0FC0
0780
0000
0000
FF3C
FF7C
FFFC
1F80
1F00
1F00
1F00
1F00
1F00
1F00
1F00
1F00
FFF8
FFF8
FFF8
ENDCHAR
STARTCHAR Sacute
ENCODING 346
SWIDTH 600 0
DWIDTH 17 0
BBX 15 28 1 0
BITMAP
0080
00E0
01F0
01E0
03C0
0380
0100
0000
0FF0
3FFC
7FFE
7C3C
7808
7800
7800
7C00
7FC0
3FF8
1FFC
01FC
003E
003E
003E
603E
F87C
FFFC
7FF8
1FE0
ENDCHAR
STARTCHAR sacute
ENCODING 347
SWIDTH 600 0
DWIDTH 17 0
BBX 14 24 1 0
BITMAP
0080
00E0
01F0
01E0
03C0
0380
0100
0000
0000
0FE0
1FF8
3FFC
7C38
7810
7C00
7FC0
3FF8
0FFC
007C
203C
783C
FFFC
7FF8
0FE0
ENDCHAR
STARTCHAR Scircumflex
ENCODING 348
SWIDTH 600 0
DWIDTH 17 0
BBX 15 27 1 0
BITMAP
07C0
07E0
0FF0
1EF0
3C78
1810
0000
0FF0
3FFC
7FFE
7C3C
7808
7800
7800
7C00
7FC0
3FF8
1FFC
01FC
003E
003E
003E
603E
F87C
FFFC
7FF8
1FE0
ENDCHAR
STARTCHAR scircumflex
ENCODING 349
SWIDTH 600 0
DWIDTH 17 0
BBX 14 23 1 0
BITMAP
07C0
07E0
0FF0
1EF0
3C78
1810
0000
0000
0FE0
1FF8
3FFC
7C38
7810
7C00
7FC0
3FF8
0FFC
007C
203C
783C
FFFC
7FF8
0FE0
ENDCHAR
STARTCHAR Scedilla
ENCODING 350
SWIDTH 600 0
DWIDTH 17 0
BBX 15 26 1 -6
BITMAP
0FF0
3FFC
7FFE
7C3C
7808
7800
7800
7C00
7FC0
3FF8
1FFC
01FC
003E
003E
003E
603E
F87C
FFFC
7FF8
1FE0
0300
03E0
00E0
0470
0FE0
07C0
ENDCHAR
STARTCHAR scedilla
ENCODING 351
SWIDTH 600 0
DWIDTH 17 0
BBX 14 21 1 -6
BITMAP
0FE0
1FF8
3FFC
7C38
7810
7E00
7FF0
3FF8
0FFC
007C
203C
783C
FFFC
7FF8
0FE0
0300
03E0
00E0
0470
0FE0
07C0
ENDCHAR
STARTCHAR Scaron
ENCODING 352
SWIDTH 600 0
DWIDTH 17 0
BBX 15 28 1 0
BITMAP
1810
3C38
1E70
0FF0
07E0
07C0
0000
0000
0FF0
3FFC
7FFE
7C3C
7808
7800
7800
7C00
7FC0
3FF8
1FFC
01FC
003E
003E
003E
603E
F87C
FFFC
7FF8
1FE0
ENDCHAR
STARTCHAR scaron
ENCODING 353
SWIDTH 600 0
DWIDTH 17 0
BBX 14 23 1 0
BITMAP
1810
3C38
1EF0
0FF0
07E0
07C0
0000
0000
0FE0
1FF8
3FFC
7C38
7810
7C00
7FC0
3FF8
0FFC
007C
203C
783C
FFFC
7FF8
0FE0
ENDCHAR
STARTCHAR uni0162
ENCODING 354
SWIDTH 600 0
DWIDTH 17 0
BBX 16 28 1 -8
BITMAP
FFFF
FFFF
FFFF
07C0
07C0
07C0
07C0
07C0
07C0
07C0
07C0
07C0
07C0
07C0
07C0
07C0
07C0
07C0
07C0
07C0
0000
0000
07C0
0780
0780
0780
0700
0700
ENDCHAR
STARTCHAR uni0163
ENCODING 355
SWIDTH 600 0
DWIDTH 17 0
BBX 14 28 1 -8
BITMAP
0F00
0F00
0F00
0F00
0F00
FFFC
FFFC
FFFC
0F00
0F00
0F00
0F00
0F00
0F00
0F00
0F00
0F00
0FFC
07FC
03FC
0000
0000
01F0
01E0
01E0
01C0
01C0
01C0
ENDCHAR
STARTCHAR Tcaron
ENCODING 356
SWIDTH 600 0
DWIDTH 17 0
BBX 16 28 1 0
BITMAP
1810
3C78
1EF0
0FE0
0FE0
07C0
0000
0000
FFFF
FFFF
FFFF
07C0
07C0
07C0
07C0
07C0
07C0
07C0
07C0
07C0
07C0
07C0
07C0
07C0
07C0
07C0
07C0
07C0
ENDCHAR
STARTCHAR tcaron
ENCODING 357
SWIDTH 600 0
DWIDTH 17 0
BBX 15 22 1 0
BITMAP
003E
003E
0F3C
0F3C
0F3C
0F38
0F00
FFFC
FFFC
FFFC
0F00
0F00
0F00
0F00
0F00
0F00
0F00
0F00
0F00
0FFC
07FC
03FC
ENDCHAR
STARTCHAR Tbar
ENCODING 358
SWIDTH 600 0
DWIDTH 17 0
BBX 16 20 1 0
BITMAP
FFFF
FFFF
FFFF
07C0
07C0
07C0
07C0
07C0
07C0
7FFC
7FFC
7FFC
07C0
07C0
07C0
07C0
07C0
07C0
07C0
07C0
ENDCHAR
STARTCHAR tbar
ENCODING 359
SWIDTH 600 0
DWIDTH 17 0
BBX 14 20 1 0
BITMAP
0F00
0F00
0F00
0F00
0F00
FFFC
FFFC
FFFC
0F00
0F00
0F00
7FF8
7FF8
7FF8
0F00
0F00
0F00
0FFC
07FC
03FC
ENDCHAR
STARTCHAR Utilde
ENCODING 360
SWIDTH 600 0
DWIDTH 17 0
BBX 15 26 1 0
BITMAP
1F10
3FF8
3FF8
11F0
0000
0000
F83E
F83E
F83E
F83E
F83E
F83E
F83E
F83E
F83E
F83E
F83E
F83E
F83E
F83E
783C
783C
7C7C
7FFC
3FF8
0FE0
ENDCHAR
STARTCHAR utilde
ENCODING 361
SWIDTH 600 0
DWIDTH 17 0
BBX 13 21 2 0
BITMAP
3E20
7FF0
7FF0
23E0
0000
0000
F078
F078
F078
F078
F078
F078
F078
F078
F078
F078
F078
F8F8
FFF8
7F78
3E78
ENDCHAR
STARTCHAR Umacron
ENCODING 362
SWIDTH 600 0
DWIDTH 17 0
BBX 15 26 1 0
BITMAP
1FF0
1FF0
1FF0
0000
0000
0000
F83E
F83E
F83E
F83E
F83E
F83E
F83E
F83E
F83E
F83E
F83E
F83E
F83E
F83E
783C
783C
7C7C
7FFC
3FF8
0FE0
ENDCHAR
STARTCHAR umacron
ENCODING 363
SWIDTH 600 0
DWIDTH 17 0
BBX 13 21 2 0
BITMAP
3FE0
3FE0
3FE0
0000
0000
0000
F078
F078
F078
F078
F078
F078
F078
F078
F078
F078
F078
F8F8
FFF8
7F78
3E78
ENDCHAR
STARTCHAR Ubreve
ENCODING 364
SWIDTH 600 0
DWIDTH 17 0
BBX 15 27 1 0
BITMAP
1830
3838
3C78
1FF0
0FE0
07C0
0000
F83E
F83E
F83E
F83E
F83E
F83E
F83E
F83E
F83E
F83E
F83E
F83E
F83E
F83E
783C
783C
7C7C
7FFC
3FF8
0FE0
ENDCHAR
STARTCHAR ubreve
ENCODING 365
SWIDTH 600 0
DWIDTH 17 0
BBX 13 23 2 0
BITMAP
3060
7070
78F0
3FE0
1FC0
0F80
0000
0000
F078
F078
F078
F078
F078
F078
F078
F078
F078
F078
F078
F8F8
FFF8
7F78
3E78
ENDCHAR
STARTCHAR Uring
ENCODING 366
SWIDTH 600 0
DWIDTH 17 0
BBX 15 29 1 0
BITMAP
07C0
0FE0
1C60
1C70
1C70
1C60
0FE0
07C0
0000
F83E
F83E
F83E
F83E
F83E
F83E
F83E
F83E
F83E
F83E
F83E
F83E
F83E
F83E
783C
783C
7C7C
7FFC
3FF8
0FE0
ENDCHAR
STARTCHAR uring
ENCODING 367
SWIDTH 600 0
DWIDTH 17 0
BBX 13 24 2 0
BITMAP
0F80
1FC0
38C0
38E0
38E0
38C0
1FC0
0F80
0000
F078
F078
F078
F078
F078
F078
F078
F078
F078
F078
F078
F8F8
FFF8
7F78
3E78
ENDCHAR
STARTCHAR Uhungarumlaut
ENCODING 368
SWIDTH 600 0
DWIDTH 17 0
BBX 15 28 1 0
BITMAP
0410
071C
0FBE
0F38
1E78
1C70
08A0
0000
F83E
F83E
F83E
F83E
F83E
F83E
F83E
F83E
F83E
F83E
F83E
F83E
F83E
F83E
783C
783C
7C7C
7FFC
3FF8
0FE0
ENDCHAR
STARTCHAR uhungarumlaut
ENCODING 369
SWIDTH 600 0
DWIDTH 17 0
BBX 14 24 2 0
BITMAP
0820
0E38
1F7C
1E70
3CF0
38E0
5140
0000
0000
F078
F078
F078
F078
F078
F078
F078
F078
F078
F078
F078
F8F8
FFF8
7F78
3E78
ENDCHAR
STARTCHAR Uogonek
ENCODING 370
SWIDTH 600 0
DWIDTH 17 0
BBX 15 26 1 -6
BITMAP
F83E
F83E
F83E
F83E
F83E
F83E
F83E
F83E
F83E
F83E
F83E
F83E
F83E
F83E
783E
783C
7C7C
7FFC
3FF8
0FF0
00C0
0380
0700
0720
07F0
03E0
ENDCHAR
STARTCHAR uogonek
ENCODING 371
SWIDTH 600 0
DWIDTH 17 0
BBX 14 21 2 -6
BITMAP
F078
F078
F078
F078
F078
F078
F078
F078
F078
F078
F078
F8F8
FFF8
7F78
3E78
0078
00E0
01C0
01C8
01FC
00F8
ENDCHAR
STARTCHAR Wcircumflex
ENCODING 372
SWIDTH 600 0
DWIDTH 17 0
BBX 17 27 0 0
BITMAP
03E000
07F000
07F000
0F7800
1E3C00
0C1800
000000
F00780
F00780
F00780
F00780
F1E780
F3E780
73E700
73E700
73E700
736700
736700
777700
777700
7F7700
7F7700
7E3700
7E3F00
7E3F00
7E3F00
7E3F00
ENDCHAR
STARTCHAR wcircumflex
ENCODING 373
SWIDTH 600 0
DWIDTH 17 0
BBX 17 23 0 0
BITMAP
03E000
07F000
07F000
0F7800
1E3C00
0C1800
000000
000000
F1E380
F3E780
F3E780
F3E780
73E700
736700
736700
737700
777700
777700
7F7700
7E3700
7E3F00
3E3E00
3E3E00
ENDCHAR
STARTCHAR Ycircumflex
ENCODING 374
SWIDTH 600 0
DWIDTH 17 0
BBX 17 27 0 0
BITMAP
03E000
07F000
07F000
0F7800
1E3C00
0C1800
000000
F80F80
780F00
7C1F00
3C1E00
3E3E00
1E3C00
1F3C00
1F7C00
0F7800
0FF800
07F000
07F000
03E000
03E000
03E000
03E000
03E000
03E000
03E000
03E000
ENDCHAR
STARTCHAR ycircumflex
ENCODING 375
SWIDTH 600 0
DWIDTH 17 0
BBX 17 29 0 -6
BITMAP
03E000
07F000
07F800
0F7800
1E3C00
0C1800
000000
000000
F80F80
780F00
7C1F00
3C1E00
3E1E00
1E3C00
1E3C00
1E3C00
0F7800
0F7800
077000
07F000
07F000
03E000
03E000
03C000
03C000
03C000
3F8000
3F0000
3E0000
ENDCHAR
STARTCHAR Ydieresis
ENCODING 376
SWIDTH 600 0
DWIDTH 17 0
BBX 17 27 0 0
BITMAP
0E3800
1F7C00
1F7C00
1F7C00
0E3800
000000
000000
F80F80
780F00
7C1F00
3C1E00
3E3E00
1E3C00
1F3C00
1F7C00
0F7800
0FF800
07F000
07F000
03E000
03E000
03E000
03E000
03E000
03E000
03E000
03E000
ENDCHAR
STARTCHAR Zacute
ENCODING 377
SWIDTH 600 0
DWIDTH 17 0
BBX 15 28 1 0
BITMAP
0080
00E0
01F0
01E0
03C0
0380
0500
0000
FFFC
FFFC
FFFC
007C
007C
00F8
01F0
03F0
03E0
07C0
0F80
0F80
1F00
3E00
3E00
7C00
F800
FFFE
FFFE
FFFE
ENDCHAR
STARTCHAR zacute
ENCODING 378
SWIDTH 600 0
DWIDTH 17 0
BBX 13 24 2 0
BITMAP
0100
01C0
03E0
03C0
0780
0700
0A00
0000
0000
FFF8
FFF8
FFF8
00F8
01F0
03E0
07C0
0F80
1F00
3E00
7C00
F800
FFF8
FFF8
FFF8
ENDCHAR
STARTCHAR Zdotaccent
ENCODING 379
SWIDTH 600 0
DWIDTH 17 0
BBX 15 27 1 0
BITMAP
0380
07C0
07C0
07C0
0380
0000
0000
FFFC
FFFC
FFFC
007C
007C
00F8
01F0
03F0
03E0
07C0
0F80
0F80
1F00
3E00
3E00
7C00
F800
FFFE
FFFE
FFFE
ENDCHAR
STARTCHAR zdotaccent
ENCODING 380
SWIDTH 600 0
DWIDTH 17 0
BBX 13 22 2 0
BITMAP
0700
0F80
0F80
0F80
0700
0000
0000
FFF8
FFF8
FFF8
00F8
01F0
03E0
07C0
0F80
1F00
3E00
7C00
F800
FFF8
FFF8
FFF8
ENDCHAR
STARTCHAR Zcaron
ENCODING 381
SWIDTH 600 0
DWIDTH 17 0
BBX 15 28 1 0
BITMAP
1810
3C78
1EF0
0FE0
0FE0
07C0
0000
0000
FFFC
FFFC
FFFC
007C
007C
00F8
01F0
03F0
03E0
07C0
0F80
0F80
1F00
3E00
3E00
7C00
F800
FFFE
FFFE
FFFE
ENDCHAR
STARTCHAR zcaron
ENCODING 382
SWIDTH 600 0
DWIDTH 17 0
BBX 13 23 2 0
BITMAP
3060
78F0
3DE0
1FC0
1FC0
0F80
0000
0000
FFF8
FFF8
FFF8
00F8
01F0
03E0
07C0
0F80
1F00
3E00
7C00
F800
FFF8
FFF8
FFF8
ENDCHAR
STARTCHAR uni018F
ENCODING 399
SWIDTH 600 0
DWIDTH 17 0
BBX 15 20 1 0
BITMAP
0FE0
3FF0
7FF8
7C7C
F83C
701E
101E
001E
001E
FFFE
FFFE
FFFE
F01E
F01E
F01E
F83C
7C7C
3FF8
3FF0
0FE0
ENDCHAR
STARTCHAR florin
ENCODING 402
SWIDTH 600 0
DWIDTH 17 0
BBX 20 26 -2 -6
BITMAP
000FF0
003FE0
003FE0
003C00
007C00
007800
007800
007800
0FFFC0
0FFFC0
0FFFC0
10F000
00F000
00F000
00F000
01F000
01F000
01E000
01E000
01E000
01E000
03E000
03E000
7FC000
7FC000
FF0000
ENDCHAR
STARTCHAR Ohorn
ENCODING 416
SWIDTH 600 0
DWIDTH 17 0
BBX 16 23 1 0
BITMAP
000F
000F
000F
0FFF
1FFE
3FFC
7C7C
F83E
F83E
F01E
F01E
F01E
F01E
F01E
F01E
F01E
F01E
F83E
F83C
7C7C
3FF8
1FF0
0FE0
ENDCHAR
STARTCHAR ohorn
ENCODING 417
SWIDTH 600 0
DWIDTH 17 0
BBX 16 18 1 0
BITMAP
000F
000F
000F
0FFF
1FFF
3FFE
7C7C
F83C
F03E
F01E
F01E
F01E
F03E
F83E
7C7C
3FF8
1FF0
0FE0
ENDCHAR
STARTCHAR Uhorn
ENCODING 431
SWIDTH 600 0
DWIDTH 17 0
BBX 16 23 1 0
BITMAP
0007
0007
0007
F83F
F83F
F83E
F83E
F83E
F83E
F83E
F83E
F83E
F83E
F83E
F83E
F83E
F83E
783C
783C
7C7C
7FFC
3FF8
0FE0
ENDCHAR
STARTCHAR uhorn
ENCODING 432
SWIDTH 600 0
DWIDTH 17 0
BBX 15 18 2 0
BITMAP
000E
000E
000E
F07E
F07C
F078
F078
F078
F078
F078
F078
F078
F078
F078
F8F8
FFF8
7F78
3E78
ENDCHAR
STARTCHAR Aringacute
ENCODING 506
SWIDTH 600 0
DWIDTH 17 0
BBX 17 34 0 0
BITMAP
002000
007000
00F800
01E000
008000
000000
03E000
07F000
0E3800
0E3800
0E3800
07F000
03E000
000000
07F000
07F000
07F000
0FF800
0F7800
0F7800
0F7800
1E7C00
1E3C00
1E3C00
1E3C00
3C3E00
3FFE00
3FFE00
7FFF00
781F00
780F00
780F00
F80F80
F00F80
ENDCHAR
STARTCHAR aringacute
ENCODING 507
SWIDTH 600 0
DWIDTH 17 0
BBX 15 29 1 0
BITMAP
0040
00E0
03E0
03C0
0100
0000
07C0
0FE0
1C70
1C70
1C70
0FE0
07C0
0000
0FC0
3FF0
7FF8
7878
207C
007C
1FFC
3FFC
7FFC
F87C
F87C
F87C
7FFE
7FBE
1F1E
ENDCHAR
STARTCHAR AEacute
ENCODING 508
SWIDTH 600 0
DWIDTH 17 0
BBX 16 28 0 0
BITMAP
0010
003C
003E
0078
0078
00F0
0020
0000
0FFF
0FFF
0FFF
1EF0
1EF0
1EF0
1EF0
1CF0
3CFF
3CFF
3CFF
3CF0
7FF0
7FF0
7FF0
78F0
F8F0
F0FF
F0FF
F0FF
ENDCHAR
STARTCHAR aeacute
ENCODING 509
SWIDTH 600 0
DWIDTH 17 0
BBX 17 24 0 0
BITMAP
004000
007000
00F800
00F000
01E000
03C000
008000
000000
000000
1E3C00
7F7E00
7FFF00
F3C700
63C380
03FF80
3FFF80
7FFF80
FFC000
F3C000
E3C300
F3E780
FEFF00
7EFE00
3C3C00
ENDCHAR
STARTCHAR Oslashacute
ENCODING 510
SWIDTH 600 0
DWIDTH 17 0
BBX 17 30 0 -2
BITMAP
004000
007000
00F800
00F000
01E000
01C000
028400
000700
07F780
0FFF00
1FFE00
3E3E00
7C3E00
7C3F00
787F00
78EF00
78EF00
79CF00
79CF00
7B8F00
7B8F00
7F0F00
7E1F00
7E1E00
3E3E00
3FFC00
7FF800
77F000
F00000
200000
ENDCHAR
STARTCHAR oslashacute
ENCODING 511
SWIDTH 600 0
DWIDTH 17 0
BBX 17 25 0 -1
BITMAP
004000
007000
00F800
00F000
01E000
01C000
028000
000000
000600
07F780
0FFF00
1FFE00
3E3E00
7C7F00
7C7F00
78EF00
79CF00
7B8F00
7F1F00
7F1F00
3E3E00
3FFC00
7FF800
77F000
B00000
ENDCHAR
STARTCHAR Scommaaccent
ENCODING 536
SWIDTH 600 0
DWIDTH 17 0
BBX 15 28 1 -8
BITMAP
0FF0
3FFC
7FFE
7C3C
7808
7800
7800
7C00
7FC0
3FF8
1FFC
01FC
003E
003E
003E
603E
F87C
FFFC
7FF8
1FE0
0000
0000
07C0
0780
0780
0700
0700
0700
ENDCHAR
STARTCHAR scommaaccent
ENCODING 537
SWIDTH 600 0
DWIDTH 17 0
BBX 14 23 1 -8
BITMAP
0FE0
1FF8
3FFC
7C38
7810
7C00
7FC0
3FF8
0FFC
007C
203C
783C
FFFC
7FF8
0FE0
0000
0000
07C0
0780
0780
0700
0700
0700
ENDCHAR
STARTCHAR uni021A
ENCODING 538
SWIDTH 600 0
DWIDTH 17 0
BBX 16 28 1 -8
BITMAP
FFFF
FFFF
FFFF
07C0
07C0
07C0
07C0
07C0
07C0
07C0
07C0
07C0
07C0
07C0
07C0
07C0
07C0
07C0
07C0
07C0
0000
0000
07C0
0780
0780
0780
0700
0700
ENDCHAR
STARTCHAR uni021B
ENCODING 539
SWIDTH 600 0
DWIDTH 17 0
BBX 14 28 1 -8
BITMAP
0F00
0F00
0F00
0F00
0F00
FFFC
FFFC
FFFC
0F00
0F00
0F00
0F00
0F00
0F00
0F00
0F00
0F00
0FFC
07FC
03FC
0000
0000
01F0
01E0
01E0
01C0
01C0
01C0
ENDCHAR
STARTCHAR uni0237
ENCODING 567
SWIDTH 600 0
DWIDTH 17 0
BBX 11 21 2 -6
BITMAP
FFE0
FFE0
FFE0
03E0
03E0
03E0
03E0
03E0
03E0
03E0
03E0
03E0
03E0
03E0
03E0
03E0
03E0
03C0
FFC0
FFC0
FF00
ENDCHAR
STARTCHAR uni0259
ENCODING 601
SWIDTH 600 0
DWIDTH 17 0
BBX 15 15 1 0
BITMAP
0FC0
3FF0
7FF8
307C
003C
003E
FFFE
FFFE
FFFE
F03E
783C
7C7C
3FF8
1FF0
07C0
ENDCHAR
STARTCHAR uni02BB
ENCODING 699
SWIDTH 600 0
DWIDTH 17 0
BBX 5 6 6 17
BITMAP
38
38
38
78
78
F8
ENDCHAR
STARTCHAR uni02BC
ENCODING 700
SWIDTH 600 0
DWIDTH 17 0
BBX 5 6 4 15
BITMAP
F8
F0
F0
E0
E0
E0
ENDCHAR
STARTCHAR circumflex
ENCODING 710
SWIDTH 600 0
DWIDTH 17 0
BBX 11 6 3 17
BITMAP
1F00
3F80
3F80
7BC0
F1E0
60C0
ENDCHAR
STARTCHAR caron
ENCODING 711
SWIDTH 600 0
DWIDTH 17 0
BBX 11 6 3 17
BITMAP
60C0
F1E0
7BC0
3F80
3F80
1F00
ENDCHAR
STARTCHAR breve
ENCODING 728
SWIDTH 600 0
DWIDTH 17 0
BBX 11 6 3 17
BITMAP
60C0
E0E0
F1E0
7FC0
3F80
1F00
ENDCHAR
STARTCHAR dotaccent
ENCODING 729
SWIDTH 600 0
DWIDTH 17 0
BBX 5 5 6 17
BITMAP
70
F8
F8
F8
70
ENDCHAR
STARTCHAR ring
ENCODING 730
SWIDTH 600 0
DWIDTH 17 0
BBX 9 8 4 16
BITMAP
3E00
7F00
E300
E380
E380
E300
7F00
3E00
ENDCHAR
STARTCHAR ogonek
ENCODING 731
SWIDTH 600 0
DWIDTH 17 0
BBX 7 7 2 -6
BITMAP
04
1E
70
60
E4
FE
7C
ENDCHAR
STARTCHAR tilde
ENCODING 732
SWIDTH 600 0
DWIDTH 17 0
BBX 11 4 3 17
BITMAP
7C40
FFE0
FFE0
47C0
ENDCHAR
STARTCHAR hungarumlaut
ENCODING 733
SWIDTH 600 0
DWIDTH 17 0
BBX 12 7 4 17
BITMAP
2080
38E0
7DF0
79C0
F3C0
E380
4500
ENDCHAR
STARTCHAR uni0300
ENCODING 768
SWIDTH 0 0
DWIDTH 0 0
BBX 7 7 -5 17
BITMAP
10
78
F8
3C
3C
1E
08
ENDCHAR
STARTCHAR uni0301
ENCODING 769
SWIDTH 0 0
DWIDTH 0 0
BBX 6 7 -2 17
BITMAP
20
38
7C
78
F0
E0
60
ENDCHAR
STARTCHAR uni0302
ENCODING 770
SWIDTH 0 0
DWIDTH 0 0
BBX 11 6 -6 17
BITMAP
0F00
1F80
3FC0
79E0
F0E0
2040
ENDCHAR
STARTCHAR uni0303
ENCODING 771
SWIDTH 0 0
DWIDTH 0 0
BBX 11 4 -6 17
BITMAP
3C40
7FE0
FFE0
43C0
ENDCHAR
STARTCHAR uni0304
ENCODING 772
SWIDTH 0 0
DWIDTH 0 0
BBX 9 3 -5 18
BITMAP
FF80
FF80
FF80
ENDCHAR
STARTCHAR uni0306
ENCODING 774
SWIDTH 0 0
DWIDTH 0 0
BBX 11 6 -6 17
BITMAP
6040
F0E0
79E0
7FC0
3F80
0F00
ENDCHAR
STARTCHAR uni0307
ENCODING 775
SWIDTH 0 0
DWIDTH 0 0
BBX 5 5 -3 17
BITMAP
78
F8
F8
F8
78
ENDCHAR
STARTCHAR uni0308
ENCODING 776
SWIDTH 0 0
DWIDTH 0 0
BBX 11 5 -6 17
BITMAP
71E0
F9E0
F9E0
F9E0
71E0
ENDCHAR
STARTCHAR uni0309
ENCODING 777
SWIDTH 0 0
DWIDTH 0 0
BBX 7 7 -3 16
BITMAP
FC
FC
FE
1C
3C
38
10
ENDCHAR
STARTCHAR uni030A
ENCODING 778
SWIDTH 0 0
DWIDTH 0 0
BBX 8 8 -4 16
BITMAP
3C
FE
E7
C7
C7
E7
FE
3C
ENDCHAR
STARTCHAR uni030B
ENCODING 779
SWIDTH 0 0
DWIDTH 0 0
BBX 12 7 -5 17
BITMAP
2080
38E0
3CF0
79E0
73C0
E380
6180
ENDCHAR
STARTCHAR uni030C
ENCODING 780
SWIDTH 0 0
DWIDTH 0 0
BBX 11 6 -6 17
BITMAP
2040
F0E0
79E0
3FC0
1F80
0F00
ENDCHAR
STARTCHAR uni0312
ENCODING 786
SWIDTH 0 0
DWIDTH 0 0
BBX 5 6 -2 17
BITMAP
38
70
70
70
F0
F0
ENDCHAR
STARTCHAR uni0315
ENCODING 789
SWIDTH 0 0
DWIDTH 0 0
BBX 5 6 0 15
BITMAP
F8
F0
F0
E0
E0
E0
ENDCHAR
STARTCHAR uni031B
ENCODING 795
SWIDTH 0 0
DWIDTH 0 0
BBX 8 6 -4 12
BITMAP
0F
0F
0F
FF
FE
FE
ENDCHAR
STARTCHAR uni0323
ENCODING 803
SWIDTH 0 0
DWIDTH 0 0
BBX 4 5 -2 -7
BITMAP
F0
F0
F0
F0
F0
ENDCHAR
STARTCHAR uni0326
ENCODING 806
SWIDTH 0 0
DWIDTH 0 0
BBX 5 6 -3 -8
BITMAP
78
78
70
F0
E0
E0
ENDCHAR
STARTCHAR uni0327
ENCODING 807
SWIDTH 0 0
DWIDTH 0 0
BBX 7 7 -3 -6
BITMAP
30
30
7C
0E
CE
FE
38
ENDCHAR
STARTCHAR uni0328
ENCODING 808
SWIDTH 0 0
DWIDTH 0 0
BBX 7 7 -6 -6
BITMAP
0C
38
70
E0
E4
FE
7C
ENDCHAR
STARTCHAR pi
ENCODING 960
SWIDTH 600 0
DWIDTH 17 0
BBX 16 15 0 0
BITMAP
FFFF
FFFF
FFFF
3C3E
3C3E
3C3E
3C3E
3C3E
3C3E
3C3E
3C3E
3C3E
3C1F
3C1F
3C0F
ENDCHAR
STARTCHAR uni0400
ENCODING 1024
SWIDTH 600 0
DWIDTH 17 0
BBX 13 28 2 0
BITMAP
0400
1E00
3E00
1F00
0F00
0780
0200
0000
FFF8
FFF8
FFF8
F800
F800
F800
F800
F800
FFF8
FFF8
FFF8
F800
F800
F800
F800
F800
F800
FFF8
FFF8
FFF8
ENDCHAR
STARTCHAR uni0401
ENCODING 1025
SWIDTH 600 0
DWIDTH 17 0
BBX 13 27 2 0
BITMAP
38E0
7CF0
7DF0
7CF0
38E0
0000
0000
FFF8
FFF8
FFF8
F800
F800
F800
F800
F800
FFF8
FFF8
FFF8
F800
F800
F800
F800
F800
F800
FFF8
FFF8
FFF8
ENDCHAR
STARTCHAR uni0402
ENCODING 1026
SWIDTH 600 0
DWIDTH 17 0
BBX 17 26 0 -6
BITMAP
FFF000
FFF000
FFF000
0F0000
0F0000
0F0000
0F0000
0FFC00
0FFE00
0FFF00
0F0F00
0F0F00
0F0F80
0F0F80
0F0F80
0F0F80
0F0F80
0F0F80
0F0F80
0F0F80
000F80
000F80
000F80
00FF00
00FF00
00FE00
ENDCHAR
STARTCHAR uni0403
ENCODING 1027
SWIDTH 600 0
DWIDTH 17 0
BBX 12 28 3 0
BITMAP
0100
03C0
03C0
0780
0700
0F00
0600
0000
FFF0
FFF0
FFF0
F000
F000
F000
F000
F000
F000
F000
F000
F000
F000
F000
F000
F000
F000
F000
F000
F000
ENDCHAR
STARTCHAR uni0404
ENCODING 1028
SWIDTH 600 0
DWIDTH 17 0
BBX 15 20 1 0
BITMAP
07E0
1FF8
3FFC
7C3E
781E
F818
F800
F000
FFC0
FFC0
FFC0
F000
F800
F800
F818
781E
7C3E
3FFC
1FF8
07E0
ENDCHAR
STARTCHAR uni0405
ENCODING 1029
SWIDTH 600 0
DWIDTH 17 0
BBX 15 20 1 0
BITMAP
0FF0
3FFC
7FFE
7C3C
7808
7800
7800
7C00
7FC0
3FF8
1FFC
01FC
003E
003E
003E
603E
F87C
FFFC
7FF8
1FE0
ENDCHAR
STARTCHAR uni0406
ENCODING 1030
SWIDTH 600 0
DWIDTH 17 0
BBX 13 20 2 0
BITMAP
FFF8
FFF8
FFF8
0F80
0F80
0F80
0F80
0F80
0F80
0F80
0F80
0F80
0F80
0F80
0F80
0F80
0F80
FFF8
FFF8
FFF8
ENDCHAR
STARTCHAR uni0407
ENCODING 1031
SWIDTH 600 0
DWIDTH 17 0
BBX 13 27 2 0
BITMAP
38E0
7DF0
7DF0
7DF0
38E0
0000
0000
FFF8
FFF8
FFF8
0F80
0F80
0F80
0F80
0F80
0F80
0F80
0F80
0F80
0F80
0F80
0F80
0F80
0F80
FFF8
FFF8
FFF8
ENDCHAR
STARTCHAR uni0408
ENCODING 1032
SWIDTH 600 0
DWIDTH 17 0
BBX 14 20 1 0
BITMAP
1FFC
1FFC
1FFC
007C
007C
007C
007C
007C
007C
007C
007C
007C
007C
007C
307C
F078
F8F8
7FF8
3FF0
0FC0
ENDCHAR
STARTCHAR uni0409
ENCODING 1033
SWIDTH 600 0
DWIDTH 17 0
BBX 17 20 0 0
BITMAP
3FE000
3FE000
3FE000
3DE000
3DE000
3DE000
3DE000
3DFC00
3DFE00
3DFF00
3DE780
3DE780
3DE780
39E780
39E780
39E780
79E780
F1FF00
F1FE00
C1FC00
ENDCHAR
STARTCHAR uni040A
ENCODING 1034
SWIDTH 600 0
DWIDTH 17 0
BBX 16 20 1 0
BITMAP
E3C0
E3C0
E3C0
E3C0
E3C0
E3C0
E3C0
E3F8
FFFC
FFFE
FFCF
E3CF
E3CF
E3CF
E3CF
E3CF
E3CF
E3FE
E3FC
E3F8
ENDCHAR
STARTCHAR uni040B
ENCODING 1035
SWIDTH 600 0
DWIDTH 17 0
BBX 17 20 0 0
BITMAP
FFF000
FFF000
FFF000
0F0000
0F0000
0F0000
0F0000
0FFC00
0FFE00
0FFF00
0F0F00
0F0F00
0F0F80
0F0F80
0F0F80
0F0F80
0F0F80
0F0F80
0F0F80
0F0F80
ENDCHAR
STARTCHAR uni040C
ENCODING 1036
SWIDTH 600 0
DWIDTH 17 0
BBX 15 28 2 0
BITMAP
0100
01C0
03E0
03C0
0780
0700
0A00
0000
F03C
F07C
F078
F0F8
F0F0
F0F0
F1F0
F1E0
F1E0
FFC0
FF80
FFE0
F1E0
F1E0
F0F0
F0F0
F0F8
F07E
F07E
F03E
ENDCHAR
STARTCHAR uni040D
ENCODING 1037
SWIDTH 600 0
DWIDTH 17 0
BBX 15 28 1 0
BITMAP
0200
0E00
1F00
0F00
0780
0380
0140
0000
F83E
F83E
F87E
F87E
F8FE
F8FE
F9FE
F9FE
F3DE
F3DE
F39E
F79E
F71E
FF1E
FE1E
FE1E
FC1E
FC1E
F81E
F81E
ENDCHAR
STARTCHAR uni040E
ENCODING 1038
SWIDTH 600 0
DWIDTH 17 0
BBX 17 27 0 0
BITMAP
0E1800
1E3C00
0E3C00
0FF800
07F800
03E000
000000
F80F80
7C0F00
7C0F00
3C1F00
3E1E00
1E3E00
1F3C00
0F3C00
0F7C00
0FF800
07F800
07F000
03F000
03F000
01E000
01E000
03E000
1FC000
1F8000
1F0000
ENDCHAR
STARTCHAR uni040F
ENCODING 1039
SWIDTH 600 0
DWIDTH 17 0
BBX 13 24 2 -4
BITMAP
F078
F078
F078
F078
F078
F078
F078
F078
F078
F078
F078
F078
F078
F078
F078
F078
F078
FFF8
FFF8
FFF8
0F80
0F80
0F80
0F80
ENDCHAR
STARTCHAR uni0410
ENCODING 1040
SWIDTH 600 0
DWIDTH 17 0
BBX 17 20 0 0
BITMAP
07F000
07F000
07F000
0FF800
0F7800
0F7800
0F7800
1E7C00
1E3C00
1E3C00
1E3C00
3C3E00
3FFE00
3FFE00
7FFF00
781F00
780F00
780F00
F80F80
F00F80
ENDCHAR
STARTCHAR uni0411
ENCODING 1041
SWIDTH 600 0
DWIDTH 17 0
BBX 14 20 2 0
BITMAP
FFF0
FFF0
FFF0
F000
F000
F000
F000
F000
FFE0
FFF0
FFF8
F07C
F07C
F03C
F03C
F07C
F07C
FFF8
FFF0
FFE0
ENDCHAR
STARTCHAR uni0412
ENCODING 1042
SWIDTH 600 0
DWIDTH 17 0
BBX 14 20 2 0
BITMAP
FFC0
FFF0
FFF8
F0F8
F078
F078
F078
F0F8
FFE0
FFE0
FFF0
F078
F07C
F07C
F07C
F07C
F07C
FFF8
FFF0
FFE0
ENDCHAR
STARTCHAR uni0413
ENCODING 1043
SWIDTH 600 0
DWIDTH 17 0
BBX 12 20 3 0
BITMAP
FFF0
FFF0
FFF0
F000
F000
F000
F000
F000
F000
F000
F000
F000
F000
F000
F000
F000
F000
F000
F000
F000
ENDCHAR
STARTCHAR uni0414
ENCODING 1044
SWIDTH 600 0
DWIDTH 17 0
BBX 17 24 0 -4
BITMAP
0FFE00
0FFE00
0FFE00
0F1E00
0F1E00
0F1E00
0F1E00
0F1E00
0F1E00
0F1E00
0F1E00
0E1E00
1E1E00
1E1E00
1E1E00
1E1E00
3C1E00
FFFF80
FFFF80
FFFF80
F00780
F00780
F00780
F00780
ENDCHAR
STARTCHAR uni0415
ENCODING 1045
SWIDTH 600 0
DWIDTH 17 0
BBX 13 20 2 0
BITMAP
FFF8
FFF8
FFF8
F800
F800
F800
F800
F800
FFF8
FFF8
FFF8
F800
F800
F800
F800
F800
F800
FFF8
FFF8
FFF8
ENDCHAR
STARTCHAR uni0416
ENCODING 1046
SWIDTH 600 0
DWIDTH 17 0
BBX 17 20 0 0
BITMAP
F1C780
F1C780
71C700
79C700
79CF00
79CF00
79CF00
39CE00
3FFE00
1FFC00
3FFE00
39CF00
79CF00
79CF00
79CF00
79CF00
71C780
F1C780
F1C780
F1C780
ENDCHAR
STARTCHAR uni0417
ENCODING 1047
SWIDTH 600 0
DWIDTH 17 0
BBX 15 20 1 0
BITMAP
0FE0
3FF8
FFF8
787C
207C
003C
007C
0078
0FF0
0FE0
0FF8
007C
003C
003E
003E
203C
787C
FFF8
7FF0
1FC0
ENDCHAR
STARTCHAR uni0418
ENCODING 1048
SWIDTH 600 0
DWIDTH 17 0
BBX 15 20 1 0
BITMAP
F83E
F83E
F87E
F87E
F8FE
F8FE
F9FE
F9FE
F3DE
F3DE
F39E
F79E
F71E
FF1E
FE1E
FE1E
FC1E
FC1E
F81E
F81E
ENDCHAR
STARTCHAR uni0419
ENCODING 1049
SWIDTH 600 0
DWIDTH 17 0
BBX 15 27 1 0
BITMAP
1C70
3C78
1C70
1FF0
0FE0
07C0
0000
F83E
F83E
F87E
F87E
F8FE
F8FE
F9FE
F9FE
F3DE
F3DE
F39E
F79E
F71E
FF1E
FE1E
FE1E
FC1E
FC1E
F81E
F81E
ENDCHAR
STARTCHAR uni041A
ENCODING 1050
SWIDTH 600 0
DWIDTH 17 0
BBX 15 20 2 0
BITMAP
F03C
F07C
F078
F0F8
F0F0
F0F0
F1F0
F1E0
F1E0
FFC0
FF80
FFE0
F1E0
F1E0
F0F0
F0F0
F0F8
F07E
F07E
F03E
ENDCHAR
STARTCHAR uni041B
ENCODING 1051
SWIDTH 600 0
DWIDTH 17 0
BBX 16 20 0 0
BITMAP
0FFF
0FFF
0FFF
0F1F
0F1F
0F1F
0F1F
0F1F
0F1F
0F1F
0F1F
0F1F
0F1F
0F1F
1E1F
1E1F
1E1F
FC1F
F81F
F01F
ENDCHAR
STARTCHAR uni041C
ENCODING 1052
SWIDTH 600 0
DWIDTH 17 0
BBX 15 20 1 0
BITMAP
F83E
FC3E
FC7E
FC7E
FE7E
FEFE
FEFE
FFFE
F7DE
F7DE
F39E
F39E
F39E
F11E
F11E
F11E
F01E
F01E
F01E
F01E
ENDCHAR
STARTCHAR uni041D
ENCODING 1053
SWIDTH 600 0
DWIDTH 17 0
BBX 13 20 2 0
BITMAP
F078
F078
F078
F078
F078
F078
F078
F078
F078
FFF8
FFF8
FFF8
F078
F078
F078
F078
F078
F078
F078
F078
ENDCHAR
STARTCHAR uni041E
ENCODING 1054
SWIDTH 600 0
DWIDTH 17 0
BBX 15 20 1 0
BITMAP
0FE0
1FF0
3FF8
7C7C
F83C
F83E
F01E
F01E
F01E
F01E
F01E
F01E
F01E
F01E
F83E
F83C
7C7C
3FF8
1FF0
0FE0
ENDCHAR
STARTCHAR uni041F
ENCODING 1055
SWIDTH 600 0
DWIDTH 17 0
BBX 13 20 2 0
BITMAP
FFF8
FFF8
FFF8
F078
F078
F078
F078
F078
F078
F078
F078
F078
F078
F078
F078
F078
F078
F078
F078
F078
ENDCHAR
STARTCHAR uni0420
ENCODING 1056
SWIDTH 600 0
DWIDTH 17 0
BBX 14 20 2 0
BITMAP
FFE0
FFF0
FFF8
F07C
F07C
F07C
F07C
F07C
F07C
FFF8
FFF0
FFE0
F000
F000
F000
F000
F000
F000
F000
F000
ENDCHAR
STARTCHAR uni0421
ENCODING 1057
SWIDTH 600 0
DWIDTH 17 0
BBX 15 20 1 0
BITMAP
07E0
1FF8
3FFC
7C3E
783E
781C
F800
F800
F800
F800
F800
F800
F800
F800
781C
783E
7C3C
3FFC
1FF8
07E0
ENDCHAR
STARTCHAR uni0422
ENCODING 1058
SWIDTH 600 0
DWIDTH 17 0
BBX 16 20 1 0
BITMAP
FFFF
FFFF
FFFF
07C0
07C0
07C0
07C0
07C0
07C0
07C0
07C0
07C0
07C0
07C0
07C0
07C0
07C0
07C0
07C0
07C0
ENDCHAR
STARTCHAR uni0423
ENCODING 1059
SWIDTH 600 0
DWIDTH 17 0
BBX 17 20 0 0
BITMAP
F80F80
7C0F00
7C0F00
3C1F00
3E1E00
1E3E00
1F3C00
0F3C00
0F7C00
0FF800
07F800
07F000
03F000
03F000
01E000
01E000
03E000
1FC000
1F8000
1F0000
ENDCHAR
STARTCHAR uni0424
ENCODING 1060
SWIDTH 600 0
DWIDTH 17 0
BBX 16 22 1 -1
BITMAP
07C0
07C0
0FF0
3FF8
7FFC
739E
F39E
E38E
E38E
E38E
E38F
E38F
E38E
E38E
E38E
F39E
FB9E
7FFC
3FF8
1FE0
07C0
07C0
ENDCHAR
STARTCHAR uni0425
ENCODING 1061
SWIDTH 600 0
DWIDTH 17 0
BBX 17 20 0 0
BITMAP
FC0F80
7C1F00
3E1E00
3E3E00
1F3C00
1F7C00
0FF800
07F000
07F000
03E000
07F000
07F000
0FF800
0F7800
1E7C00
1E3C00
3C3E00
7C1F00
781F00
F80F80
ENDCHAR
STARTCHAR uni0426
ENCODING 1062
SWIDTH 600 0
DWIDTH 17 0
BBX 16 24 1 -4
BITMAP
F078
F078
F078
F078
F078
F078
F078
F078
F078
F078
F078
F078
F078
F078
F078
F078
F078
FFFF
FFFF
FFFF
000F
000F
000F
000F
ENDCHAR
STARTCHAR uni0427
ENCODING 1063
SWIDTH 600 0
DWIDTH 17 0
BBX 14 20 1 0
BITMAP
F03C
F03C
F03C
F03C
F03C
F03C
F03C
F03C
F03C
F83C
7FFC
7FFC
1FBC
003C
003C
003C
003C
003C
003C
003C
ENDCHAR
STARTCHAR uni0428
ENCODING 1064
SWIDTH 600 0
DWIDTH 17 0
BBX 15 20 1 0
BITMAP
E38E
E38E
E38E
E38E
E38E
E38E
E38E
E38E
E38E
E38E
E38E
E38E
E38E
E38E
E38E
E38E
E38E
FFFE
FFFE
FFFE
ENDCHAR
STARTCHAR uni0429
ENCODING 1065
SWIDTH 600 0
DWIDTH 17 0
BBX 16 24 1 -4
BITMAP
E79C
E79C
E79C
E79C
E79C
E79C
E79C
E79C
E79C
E79C
E79C
E79C
E79C
E79C
E79C
E79C
E79C
FFFF
FFFF
FFFF
0007
0007
0007
0007
ENDCHAR
STARTCHAR uni042A
ENCODING 1066
SWIDTH 600 0
DWIDTH 17 0
BBX 17 20 0 0
BITMAP
FF0000
FF0000
FF0000
1F0000
1F0000
1F0000
1F0000
1FF800
1FFE00
1FFF00
1F0F00
1F0F80
1F0F80
1F0F80
1F0F80
1F0F80
1F0F00
1FFF00
1FFE00
1FF800
ENDCHAR
STARTCHAR uni042B
ENCODING 1067
SWIDTH 600 0
DWIDTH 17 0
BBX 15 20 1 0
BITMAP
E00E
E00E
E00E
E00E
E00E
E00E
E00E
FE0E
FF8E
FF8E
E3CE
E3CE
E3CE
E3CE
E3CE
E3CE
E3CE
FF8E
FF8E
FE0E
ENDCHAR
STARTCHAR uni042C
ENCODING 1068
SWIDTH 600 0
DWIDTH 17 0
BBX 14 20 2 0
BITMAP
F000
F000
F000
F000
F000
F000
F000
FFE0
FFF0
FFF8
F07C
F07C
F03C
F03C
F03C
F07C
F07C
FFF8
FFF0
FFE0
ENDCHAR
STARTCHAR uni042D
ENCODING 1069
SWIDTH 600 0
DWIDTH 17 0
BBX 15 20 1 0
BITMAP
0FC0
3FF0
7FF8
F87C
F03C
303E
003E
001E
07FE
07FE
07FE
001E
001E
003E
303E
F03C
F87C
7FF8
3FF0
0FC0
ENDCHAR
STARTCHAR uni042E
ENCODING 1070
SWIDTH 600 0
DWIDTH 17 0
BBX 15 20 1 0
BITMAP
E0F8
E3FC
E3FC
E79E
E79E
E78E
E78E
E78E
FF8E
FF8E
FF8E
E78E
E78E
E78E
E78E
E78E
E39E
E3FC
E1FC
E0F8
ENDCHAR
STARTCHAR uni042F
ENCODING 1071
SWIDTH 600 0
DWIDTH 17 0
BBX 14 20 1 0
BITMAP
0FFC
3FFC
7FFC
7C3C
F83C
F83C
F83C
F83C
783C
7FFC
3FFC
07FC
0F3C
1F3C
1E3C
3E3C
3C3C
FC3C
F83C
F03C
ENDCHAR
STARTCHAR uni0430
ENCODING 1072
SWIDTH 600 0
DWIDTH 17 0
BBX 15 15 1 0
BITMAP
0FC0
3FF0
7FF8
7878
207C
007C
1FFC
3FFC
7FFC
F87C
F87C
F87C
7FFE
7FBE
1F1E
ENDCHAR
STARTCHAR uni0431
ENCODING 1073
SWIDTH 600 0
DWIDTH 17 0
BBX 15 21 1 0
BITMAP
01FC
0FFC
1FFC
3F00
3C00
7800
7800
79E0
FBF8
FFFC
FC7C
F83E
F83E
F83E
F83E
F83E
783C
7C7C
3FF8
1FF0
07E0
ENDCHAR
STARTCHAR uni0432
ENCODING 1074
SWIDTH 600 0
DWIDTH 17 0
BBX 14 15 2 0
BITMAP
FFE0
FFF0
FFF8
F0F8
F078
F0F8
FFE0
FFE0
FFF8
F078
F07C
F078
FFF8
FFF8
FFE0
ENDCHAR
STARTCHAR uni0433
ENCODING 1075
SWIDTH 600 0
DWIDTH 17 0
BBX 12 15 3 0
BITMAP
FFF0
FFF0
FFF0
F800
F800
F800
F800
F800
F800
F800
F800
F800
F800
F800
F800
ENDCHAR
STARTCHAR uni0434
ENCODING 1076
SWIDTH 600 0
DWIDTH 17 0
BBX 17 19 0 -4
BITMAP
1FFC00
1FFC00
1FFC00
1E3C00
1E3C00
1E3C00
1E3C00
1E3C00
1E3C00
1E3C00
1E3C00
3C3C00
FFFF80
FFFF80
FFFF80
F00780
F00780
F00780
F00780
ENDCHAR
STARTCHAR uni0435
ENCODING 1077
SWIDTH 600 0
DWIDTH 17 0
BBX 15 15 1 0
BITMAP
07C0
1FF0
3FF8
7C7C
783C
F81E
FFFE
FFFE
FFFE
F800
7800
7C18
3FFC
1FFC
07E0
ENDCHAR
STARTCHAR uni0436
ENCODING 1078
SWIDTH 600 0
DWIDTH 17 0
BBX 17 15 0 0
BITMAP
F1C780
71C700
79CF00
79CF00
39CE00
39CE00
1FFC00
0FFC00
3FFE00
39CE00
79CF00
79CF00
79C700
71C700
F1C780
ENDCHAR
STARTCHAR uni0437
ENCODING 1079
SWIDTH 600 0
DWIDTH 17 0
BBX 14 15 1 0
BITMAP
0FE0
3FF8
7FFC
387C
203C
007C
07F8
07F0
07FC
003C
203C
787C
FFFC
7FF8
0FE0
ENDCHAR
STARTCHAR uni0438
ENCODING 1080
SWIDTH 600 0
DWIDTH 17 0
BBX 13 15 2 0
BITMAP
F078
F0F8
F0F8
F1F8
F3F8
F3F8
F7F8
F778
FF78
FE78
FC78
FC78
F878
F878
F078
ENDCHAR
STARTCHAR uni0439
ENCODING 1081
SWIDTH 600 0
DWIDTH 17 0
BBX 13 23 2 0
BITMAP
3860
78F0
38F0
3FE0
1FC0
0F80
0000
0000
F078
F0F8
F0F8
F1F8
F3F8
F3F8
F7F8
F778
FF78
FE78
FC78
FC78
F878
F878
F078
ENDCHAR
STARTCHAR uni043A
ENCODING 1082
SWIDTH 600 0
DWIDTH 17 0
BBX 14 15 2 0
BITMAP
F07C
F078
F0F8
F0F0
F1E0
F1E0
FFC0
FF80
FFC0
F1E0
F1F0
F0F0
F0FC
F07C
F03C
ENDCHAR
STARTCHAR uni043B
ENCODING 1083
SWIDTH 600 0
DWIDTH 17 0
BBX 15 15 0 0
BITMAP
0FFE
0FFE
0FFE
0F1E
0F1E
0F1E
0F1E
0F1E
0F1E
1E1E
1E1E
1E1E
FC1E
FC1E
F01E
ENDCHAR
STARTCHAR uni043C
ENCODING 1084
SWIDTH 600 0
DWIDTH 17 0
BBX 15 15 1 0
BITMAP
F81E
F83E
FC3E
FC7E
FE7E
FEFE
FFFE
F7DE
F7DE
F39E
F39E
F11E
F11E
F01E
F01E
ENDCHAR
STARTCHAR uni043D
ENCODING 1085
SWIDTH 600 0
DWIDTH 17 0
BBX 13 15 2 0
BITMAP
F078
F078
F078
F078
F078
F078
FFF8
FFF8
FFF8
F078
F078
F078
F078
F078
F078
ENDCHAR
STARTCHAR uni043E
ENCODING 1086
SWIDTH 600 0
DWIDTH 17 0
BBX 15 15 1 0
BITMAP
0FE0
1FF0
3FF8
7C7C
F83E
F03E
F01E
F01E
F01E
F03E
F83E
7C7C
3FF8
1FF0
0FE0
ENDCHAR
STARTCHAR uni043F
ENCODING 1087
SWIDTH 600 0
DWIDTH 17 0
BBX 13 15 2 0
BITMAP
FFF8
FFF8
FFF8
F078
F078
F078
F078
F078
F078
F078
F078
F078
F078
F078
F078
ENDCHAR
STARTCHAR uni0440
ENCODING 1088
SWIDTH 600 0
DWIDTH 17 0
BBX 14 21 2 -6
BITMAP
F3E0
F7F0
FFF8
F8F8
F07C
F03C
F03C
F03C
F03C
F07C
F07C
F8F8
FFF8
F7F0
F3E0
F000
F000
F000
F000
F000
F000
ENDCHAR
STARTCHAR uni0441
ENCODING 1089
SWIDTH 600 0
DWIDTH 17 0
BBX 14 15 2 0
BITMAP
0FC0
3FF0
7FF8
F878
F020
F000
F000
F000
F000
F000
F020
F878
7FFC
3FF0
0FC0
ENDCHAR
STARTCHAR uni0442
ENCODING 1090
SWIDTH 600 0
DWIDTH 17 0
BBX 14 15 2 0
BITMAP
FFFC
FFFC
FFFC
0F80
0F80
0F80
0F80
0F80
0F80
0F80
0F80
0F80
0F80
0F80
0F80
ENDCHAR
STARTCHAR uni0443
ENCODING 1091
SWIDTH 600 0
DWIDTH 17 0
BBX 17 21 0 -6
BITMAP
F80F80
780F00
7C1F00
3C1E00
3E1E00
1E3C00
1E3C00
1E3C00
0F7800
0F7800
077000
07F000
07F000
03E000
03E000
03C000
03C000
03C000
3F8000
3F0000
3E0000
ENDCHAR
STARTCHAR uni0444
ENCODING 1092
SWIDTH 600 0
DWIDTH 17 0
BBX 16 26 1 -6
BITMAP
0380
0380
0380
0380
0380
7BBC
7BBE
FFFE
F3DE
E38E
E38E
E38F
E38F
E38F
E38E
E38E
F39E
FFFE
7BBE
7BBC
0380
0380
0380
0380
0380
0380
ENDCHAR
STARTCHAR uni0445
ENCODING 1093
SWIDTH 600 0
DWIDTH 17 0
BBX 17 15 0 0
BITMAP
7C1F00
3E1E00
1E3C00
1F7C00
0FF800
07F000
07E000
03E000
07F000
0FF800
0F7800
1E7C00
3E3E00
3C1E00
F81F80
ENDCHAR
STARTCHAR uni0446
ENCODING 1094
SWIDTH 600 0
DWIDTH 17 0
BBX 16 19 1 -4
BITMAP
F878
F878
F878
F878
F878
F878
F878
F878
F878
F878
F878
F878
FFFF
FFFF
FFFF
000F
000F
000F
000F
ENDCHAR
STARTCHAR uni0447
ENCODING 1095
SWIDTH 600 0
DWIDTH 17 0
BBX 14 15 1 0
BITMAP
F83C
F83C
F83C
F83C
F83C
F83C
787C
7FFC
7FBC
1F3C
003C
003C
003C
003C
003C
ENDCHAR
STARTCHAR uni0448
ENCODING 1096
SWIDTH 600 0
DWIDTH 17 0
BBX 15 15 1 0
BITMAP
E38E
E38E
E38E
E38E
E38E
E38E
E38E
E38E
E38E
E38E
E38E
E38E
FFFE
FFFE
FFFE
ENDCHAR
STARTCHAR uni0449
ENCODING 1097
SWIDTH 600 0
DWIDTH 17 0
BBX 16 19 1 -4
BITMAP
E79C
E79C
E79C
E79C
E79C
E79C
E79C
E79C
E79C
E79C
E79C
E79C
FFFF
FFFF
FFFF
0007
0007
0007
0007
ENDCHAR
STARTCHAR uni044A
ENCODING 1098
SWIDTH 600 0
DWIDTH 17 0
BBX 16 15 0 0
BITMAP
FF00
FF00
FF00
0F00
0FF8
0FFE
0FFF
0F1F
0F0F
0F0F
0F0F
0F1F
0FFF
0FFE
0FF8
ENDCHAR
STARTCHAR uni044B
ENCODING 1099
SWIDTH 600 0
DWIDTH 17 0
BBX 15 15 1 0
BITMAP
E00E
E00E
E00E
E00E
FE0E
FF8E
FFCE
E3CE
E1CE
E1CE
E1CE
E3CE
FFCE
FF8E
FE0E
ENDCHAR
STARTCHAR uni044C
ENCODING 1100
SWIDTH 600 0
DWIDTH 17 0
BBX 14 15 2 0
BITMAP
F800
F800
F800
F800
FFE0
FFF0
FFF8
F878
F87C
F87C
F87C
F878
FFF8
FFF0
FFE0
ENDCHAR
STARTCHAR uni044D
ENCODING 1101
SWIDTH 600 0
DWIDTH 17 0
BBX 13 15 2 0
BITMAP
1F80
7FE0
FFF0
F0F8
6078
0078
07F8
07F8
07F8
0078
2078
F0F8
FFF0
7FE0
1F80
ENDCHAR
STARTCHAR uni044E
ENCODING 1102
SWIDTH 600 0
DWIDTH 17 0
BBX 15 15 1 0
BITMAP
E0F8
E3FC
E3FC
E79E
E79E
E78E
FF8E
FF8E
FF8E
E78E
E79E
E79E
E3FC
E3FC
E0F8
ENDCHAR
STARTCHAR uni044F
ENCODING 1103
SWIDTH 600 0
DWIDTH 17 0
BBX 14 15 1 0
BITMAP
1FFC
3FFC
7FFC
783C
783C
783C
783C
7FFC
3FFC
07FC
1F3C
3E3C
FC3C
FC3C
F83C
ENDCHAR
STARTCHAR uni0450
ENCODING 1104
SWIDTH 600 0
DWIDTH 17 0
BBX 15 24 1 0
BITMAP
0200
0E00
1F00
0F00
0780
0380
0100
0000
0000
07C0
1FF0
3FF8
7C7C
783C
F81E
FFFE
FFFE
FFFE
F800
7800
7C18
3FFC
1FFC
07E0
ENDCHAR
STARTCHAR uni0451
ENCODING 1105
SWIDTH 600 0
DWIDTH 17 0
BBX 15 22 1 0
BITMAP
1C70
3EF8
3EF8
3EF8
1C70
0000
0000
07C0
1FF0
3FF8
7C7C
783C
F81E
FFFE
FFFE
FFFE
F800
7800
7C18
3FFC
1FFC
07E0
ENDCHAR
STARTCHAR uni0452
ENCODING 1106
SWIDTH 600 0
DWIDTH 17 0
BBX 15 27 0 -6
BITMAP
3C00
FFC0
FFC0
FFC0
3C00
3C00
3CF8
3DFC
3FFE
3E3E
3C1E
3C1E
3C1E
3C1E
3C1E
3C1E
3C1E
3C1E
3C1E
3C1E
3C1E
001E
001E
001E
03FE
03FE
03F8
ENDCHAR
STARTCHAR uni0453
ENCODING 1107
SWIDTH 600 0
DWIDTH 17 0
BBX 12 24 3 0
BITMAP
0100
03C0
03C0
0780
0700
0F00
0600
0000
0000
FFF0
FFF0
FFF0
F800
F800
F800
F800
F800
F800
F800
F800
F800
F800
F800
F800
ENDCHAR
STARTCHAR uni0454
ENCODING 1108
SWIDTH 600 0
DWIDTH 17 0
BBX 13 15 2 0
BITMAP
0FC0
3FF0
7FF8
F878
F020
F000
FF00
FF00
FF00
F000
F020
F878
7FF8
3FF0
0FC0
ENDCHAR
STARTCHAR uni0455
ENCODING 1109
SWIDTH 600 0
DWIDTH 17 0
BBX 14 15 1 0
BITMAP
0FE0
1FF8
3FFC
7C38
7810
7C00
7FC0
3FF8
0FFC
007C
203C
783C
FFFC
7FF8
0FE0
ENDCHAR
STARTCHAR uni0456
ENCODING 1110
SWIDTH 600 0
DWIDTH 17 0
BBX 14 22 2 0
BITMAP
0380
07C0
07C0
07C0
0380
0000
0000
FFC0
FFC0
FFC0
07C0
07C0
07C0
07C0
07C0
07C0
07C0
07C0
07C0
FFFC
FFFC
FFFC
ENDCHAR
STARTCHAR uni0457
ENCODING 1111
SWIDTH 600 0
DWIDTH 17 0
BBX 13 22 3 0
BITMAP
38E0
7DF0
7DF0
7DF0
38E0
0000
0000
FF80
FF80
FF80
0F80
0F80
0F80
0F80
0F80
0F80
0F80
0F80
0F80
FFF8
FFF8
FFF8
ENDCHAR
STARTCHAR uni0458
ENCODING 1112
SWIDTH 600 0
DWIDTH 17 0
BBX 11 28 2 -6
BITMAP
03C0
03E0
03E0
03E0
01C0
0000
0000
FFE0
FFE0
FFE0
03E0
03E0
03E0
03E0
03E0
03E0
03E0
03E0
03E0
03E0
03E0
03E0
03E0
03E0
03C0
FFC0
FFC0
FF00
ENDCHAR
STARTCHAR uni0459
ENCODING 1113
SWIDTH 600 0
DWIDTH 17 0
BBX 17 15 0 0
BITMAP
3FE000
3FE000
3FE000
3DE000
3DFC00
3DFF00
3DFF00
3DE780
39E380
39E380
39E380
79E780
F9FF00
F1FF00
E1FC00
ENDCHAR
STARTCHAR uni045A
ENCODING 1114
SWIDTH 600 0
DWIDTH 17 0
BBX 16 15 1 0
BITMAP
E3C0
E3C0
E3C0
E3C0
E3F8
E3FE
FFFE
FFCF
FFC7
E3C7
E3C7
E3CF
E3FE
E3FE
E3F8
ENDCHAR
STARTCHAR uni045B
ENCODING 1115
SWIDTH 600 0
DWIDTH 17 0
BBX 15 21 0 0
BITMAP
3C00
FFC0
FFC0
FFC0
3C00
3C00
3CF8
3DFC
3FFE
3E3E
3C1E
3C1E
3C1E
3C1E
3C1E
3C1E
3C1E
3C1E
3C1E
3C1E
3C1E
ENDCHAR
STARTCHAR uni045C
ENCODING 1116
SWIDTH 600 0
DWIDTH 17 0
BBX 14 24 2 0
BITMAP
0100
01C0
03E0
03C0
0780
0700
0A00
0000
0000
F07C
F078
F0F8
F0F0
F1E0
F1E0
FFC0
FF80
FFC0
F1E0
F1F0
F0F0
F0FC
F07C
F03C
ENDCHAR
STARTCHAR uni045D
ENCODING 1117
SWIDTH 600 0
DWIDTH 17 0
BBX 13 24 2 0
BITMAP
0400
1C00
3E00
1F00
0F00
0780
0200
0000
0000
F078
F0F8
F0F8
F1F8
F3F8
F3F8
F7F8
F778
FF78
FE78
FC78
FC78
F878
F878
F078
ENDCHAR
STARTCHAR uni045E
ENCODING 1118
SWIDTH 600 0
DWIDTH 17 0
BBX 17 29 0 -6
BITMAP
0E1800
1E3C00
0E3C00
0FF800
07F000
03E000
000000
000000
F80F80
780F00
7C1F00
3C1E00
3E1E00
1E3C00
1E3C00
1E3C00
0F7800
0F7800
077000
07F000
07F000
03E000
03E000
03C000
03C000
03C000
3F8000
3F0000
3E0000
ENDCHAR
STARTCHAR uni045F
ENCODING 1119
SWIDTH 600 0
DWIDTH 17 0
BBX 13 19 2 -4
BITMAP
F078
F078
F078
F078
F078
F078
F078
F078
F078
F078
F078
F078
FFF8
FFF8
FFF8
0780
0780
0780
0780
ENDCHAR
STARTCHAR uni0472
ENCODING 1138
SWIDTH 600 0
DWIDTH 17 0
BBX 15 20 1 0
BITMAP
0FE0
1FF0
3FF8
787C
F83C
F01E
F01E
F01E
FFFE
FFFE
FFFE
F01E
F01E
F01E
F01E
F83C
7C7C
3FF8
1FF0
0FE0
ENDCHAR
STARTCHAR uni0473
ENCODING 1139
SWIDTH 600 0
DWIDTH 17 0
BBX 15 15 1 0
BITMAP
0FE0
1FF0
3FF8
783C
F01E
F01E
FFFE
FFFE
FFFE
F01E
F01E
783C
3FF8
1FF0
0FE0
ENDCHAR
STARTCHAR uni0490
ENCODING 1168
SWIDTH 600 0
DWIDTH 17 0
BBX 12 24 3 0
BITMAP
00F0
00F0
00F0
00F0
FFF0
FFF0
FFF0
F000
F000
F000
F000
F000
F000
F000
F000
F000
F000
F000
F000
F000
F000
F000
F000
F000
ENDCHAR
STARTCHAR uni0491
ENCODING 1169
SWIDTH 600 0
DWIDTH 17 0
BBX 12 19 3 0
BITMAP
00F0
00F0
00F0
00F0
FFF0
FFF0
FFF0
F800
F800
F800
F800
F800
F800
F800
F800
F800
F800
F800
F800
ENDCHAR
STARTCHAR uni0492
ENCODING 1170
SWIDTH 600 0
DWIDTH 17 0
BBX 15 20 1 0
BITMAP
3FFE
3FFE
3FFE
3E00
3E00
3E00
3E00
3E00
3E00
FFF0
FFF0
FFF0
3E00
3E00
3E00
3E00
3E00
3E00
3E00
3E00
ENDCHAR
STARTCHAR uni0493
ENCODING 1171
SWIDTH 600 0
DWIDTH 17 0
BBX 14 15 1 0
BITMAP
1FFC
1FFC
1FFC
1E00
1E00
1E00
FFF0
FFF0
FFF0
1E00
1E00
1E00
1E00
1E00
1E00
ENDCHAR
STARTCHAR uni0494
ENCODING 1172
SWIDTH 600 0
DWIDTH 17 0
BBX 14 26 2 -6
BITMAP
FFF0
FFF0
FFF0
F000
F000
F000
F000
F000
F7E0
FFF0
FFF8
F07C
F07C
F03C
F03C
F03C
F03C
F03C
F03C
F03C
003C
003C
007C
03F8
03F8
03E0
ENDCHAR
STARTCHAR uni0495
ENCODING 1173
SWIDTH 600 0
DWIDTH 17 0
BBX 13 21 2 -6
BITMAP
FFE0
FFE0
FFE0
F000
F000
F000
F3E0
F7F0
FFF8
F8F8
F078
F078
F078
F078
F078
0078
0078
0078
03F8
03F0
03E0
ENDCHAR
STARTCHAR uni0496
ENCODING 1174
SWIDTH 600 0
DWIDTH 17 0
BBX 18 24 0 -4
BITMAP
F3C700
F3CF00
F3CF00
73CF00
73CF00
7BCE00
7BDE00
7BDE00
3FFC00
1FF800
3FFE00
7BDE00
7BDE00
7BCE00
73CF00
F3CF00
F3CF00
F3CFC0
F3C7C0
F3C7C0
0001C0
0001C0
0001C0
0001C0
ENDCHAR
STARTCHAR uni0497
ENCODING 1175
SWIDTH 600 0
DWIDTH 17 0
BBX 18 19 0 -4
BITMAP
F3CF00
F3CF00
73CF00
73CE00
7BDE00
7BDE00
3FFC00
1FF800
3FFC00
7BDE00
7BCE00
73CE00
F3CFC0
F3CFC0
F3C7C0
0003C0
0003C0
0003C0
0003C0
ENDCHAR
STARTCHAR uni0498
ENCODING 1176
SWIDTH 600 0
DWIDTH 17 0
BBX 15 24 1 -4
BITMAP
0FE0
3FF8
FFF8
787C
207C
003C
007C
0078
0FF0
0FE0
0FF8
007C
003C
003E
003E
203C
787C
FFF8
7FF0
1FE0
0780
0780
0780
0780
ENDCHAR
STARTCHAR uni0499
ENCODING 1177
SWIDTH 600 0
DWIDTH 17 0
BBX 14 19 1 -4
BITMAP
0FE0
3FF8
7FFC
387C
203C
007C
07F8
07F0
07FC
003C
203C
787C
FFFC
7FF8
1FE0
0780
0780
0780
0780
ENDCHAR
STARTCHAR uni049A
ENCODING 1178
SWIDTH 600 0
DWIDTH 17 0
BBX 16 24 1 -4
BITMAP
F83E
F83C
F83C
F87C
F878
F878
F8F0
F8F0
F9F0
FFE0
FFC0
FFE0
F9F0
F8F0
F8F8
F878
F878
F83F
F83F
F81F
000F
000F
000F
000F
ENDCHAR
STARTCHAR uni049B
ENCODING 1179
SWIDTH 600 0
DWIDTH 17 0
BBX 14 19 2 -4
BITMAP
F07C
F0F8
F0F0
F1F0
F1E0
F3E0
FFC0
FF80
FFC0
F3E0
F1E0
F1F0
F0FC
F0FC
F07C
001C
001C
001C
001C
ENDCHAR
STARTCHAR uni049C
ENCODING 1180
SWIDTH 600 0
DWIDTH 17 0
BBX 16 20 1 0
BITMAP
F00F
F01E
F01E
F01E
F03C
F73C
F73C
F778
F778
FFF0
FFE0
FFF0
F778
F778
F73C
F73C
F03C
F01F
F01F
F00F
ENDCHAR
STARTCHAR uni049D
ENCODING 1181
SWIDTH 600 0
DWIDTH 17 0
BBX 16 15 1 0
BITMAP
F01F
F01E
F03C
F73C
F778
F778
FFF0
FFE0
FFF0
F778
F778
F73C
F03F
F01F
F00F
ENDCHAR
STARTCHAR uni04A0
ENCODING 1184
SWIDTH 600 0
DWIDTH 17 0
BBX 17 20 0 0
BITMAP
FF0F80
FF0F00
FF0F00
1F1F00
1F1E00
1F1E00
1F3E00
1F3C00
1F3C00
1FF800
1FF000
1FFC00
1F3C00
1F3C00
1F3E00
1F1E00
1F1E00
1F0F80
1F0F80
1F0780
ENDCHAR
STARTCHAR uni04A1
ENCODING 1185
SWIDTH 600 0
DWIDTH 17 0
BBX 17 15 0 0
BITMAP
FF0F80
FF1F00
FF1E00
1F3E00
1F3C00
1F3C00
1FF800
1FF000
1FF800
1F3C00
1F3C00
1F3E00
1F1F80
1F1F80
1F0F80
ENDCHAR
STARTCHAR uni04A2
ENCODING 1186
SWIDTH 600 0
DWIDTH 17 0
BBX 16 24 1 -4
BITMAP
F878
F878
F878
F878
F878
F878
F878
F878
F878
FFF8
FFF8
FFF8
F878
F878
F878
F878
F878
F87F
F87F
F87F
000F
000F
000F
000F
ENDCHAR
STARTCHAR uni04A3
ENCODING 1187
SWIDTH 600 0
DWIDTH 17 0
BBX 16 19 1 -4
BITMAP
F878
F878
F878
F878
F878
F878
FFF8
FFF8
FFF8
F878
F878
F878
F87F
F87F
F87F
000F
000F
000F
000F
ENDCHAR
STARTCHAR uni04A4
ENCODING 1188
SWIDTH 600 0
DWIDTH 17 0
BBX 16 20 1 0
BITMAP
F1FF
F1FF
F1FF
F1E0
F1E0
F1E0
F1E0
F1E0
F1E0
FFE0
FFE0
FFE0
F1E0
F1E0
F1E0
F1E0
F1E0
F1E0
F1E0
F1E0
ENDCHAR
STARTCHAR uni04A5
ENCODING 1189
SWIDTH 600 0
DWIDTH 17 0
BBX 16 15 1 0
BITMAP
F1FF
F1FF
F1FF
F1E0
F1E0
F1E0
FFE0
FFE0
FFE0
F1E0
F1E0
F1E0
F1E0
F1E0
F1E0
ENDCHAR
STARTCHAR uni04AA
ENCODING 1194
SWIDTH 600 0
DWIDTH 17 0
BBX 15 24 1 -4
BITMAP
07E0
1FF8
3FFC
7C3E
783E
781C
F800
F800
F800
F800
F800
F800
F800
F800
F81C
783E
7C3E
3FFC
1FF8
0FF0
03C0
03C0
03C0
03C0
ENDCHAR
STARTCHAR uni04AB
ENCODING 1195
SWIDTH 600 0
DWIDTH 17 0
BBX 14 19 2 -4
BITMAP
0FC0
3FF0
7FF8
F878
F020
F000
F000
F000
F000
F000
F020
F878
7FFC
3FF0
1FE0
0780
0780
0780
0780
ENDCHAR
STARTCHAR uni04AE
ENCODING 1198
SWIDTH 600 0
DWIDTH 17 0
BBX 17 20 0 0
BITMAP
F80F80
780F00
7C1F00
3C1E00
3E3E00
1E3C00
1F3C00
1F7C00
0F7800
0FF800
07F000
07F000
03E000
03E000
03E000
03E000
03E000
03E000
03E000
03E000
ENDCHAR
STARTCHAR uni04AF
ENCODING 1199
SWIDTH 600 0
DWIDTH 17 0
BBX 15 21 1 -6
BITMAP
F01E
F81E
783C
783C
7C3C
3C78
3C78
3E78
1EF0
1EF0
0EE0
0FE0
0FE0
07C0
07C0
07C0
07C0
07C0
07C0
07C0
07C0
ENDCHAR
STARTCHAR uni04B0
ENCODING 1200
SWIDTH 600 0
DWIDTH 17 0
BBX 17 20 0 0
BITMAP
F80F80
780F00
7C1F00
3C1E00
3E3E00
1E3C00
1F3C00
0F7800
0F7800
07F000
07F000
03E000
03E000
1FFC00
1FFC00
1FFC00
03E000
03E000
03E000
03E000
ENDCHAR
STARTCHAR uni04B1
ENCODING 1201
SWIDTH 600 0
DWIDTH 17 0
BBX 15 21 1 -6
BITMAP
F01E
F81E
783C
783C
7C3C
3C78
3C78
3E78
1EF0
1EF0
0EE0
0FE0
0FE0
07C0
07C0
3FF8
3FF8
3FF8
07C0
07C0
07C0
ENDCHAR
STARTCHAR uni04B2
ENCODING 1202
SWIDTH 600 0
DWIDTH 17 0
BBX 17 24 0 -4
BITMAP
F80F00
7C1F00
3E3E00
3E3E00
1E7C00
1F7800
0FF800
0FF000
07F000
07E000
07E000
07F000
0FF800
1F7800
1E7C00
3E7C00
3C3E00
7C3F80
781F80
F80F80
000780
000780
000780
000780
ENDCHAR
STARTCHAR uni04B3
ENCODING 1203
SWIDTH 600 0
DWIDTH 17 0
BBX 16 19 0 -4
BITMAP
7C1F
3E1E
1E3C
1F7C
0FF8
07F0
07E0
03E0
07F0
0FF0
0F78
1E7C
3E3F
3C1F
781F
8007
0007
0007
0007
ENDCHAR
STARTCHAR uni04B6
ENCODING 1206
SWIDTH 600 0
DWIDTH 17 0
BBX 16 24 1 -4
BITMAP
F07C
F07C
F07C
F07C
F07C
F07C
F07C
F07C
F07C
F87C
FFFC
7FFC
1FFC
007C
007C
007C
007C
007F
007F
007F
000F
000F
000F
000F
ENDCHAR
STARTCHAR uni04B7
ENCODING 1207
SWIDTH 600 0
DWIDTH 17 0
BBX 16 19 1 -4
BITMAP
F878
F878
F878
F878
F878
F878
F878
7FF8
7FF8
1E78
0078
0078
007F
007F
007F
000F
000F
000F
000F
ENDCHAR
STARTCHAR uni04B8
ENCODING 1208
SWIDTH 600 0
DWIDTH 17 0
BBX 15 20 1 0
BITMAP
F03E
F03E
F03E
F03E
F03E
F03E
F3BE
F3BE
F3BE
FBBE
FFFE
7FFE
1FFE
03BE
03BE
03BE
003E
003E
003E
003E
ENDCHAR
STARTCHAR uni04B9
ENCODING 1209
SWIDTH 600 0
DWIDTH 17 0
BBX 14 15 1 0
BITMAP
F83C
F83C
F83C
FBBC
FBBC
FBBC
FBFC
7FFC
7FFC
1FBC
03BC
03BC
03BC
003C
003C
ENDCHAR
STARTCHAR uni04BA
ENCODING 1210
SWIDTH 600 0
DWIDTH 17 0
BBX 14 20 2 0
BITMAP
F000
F000
F000
F000
F000
F000
F7E0
FFF0
FFF8
F07C
F07C
F03C
F03C
F03C
F03C
F03C
F03C
F03C
F03C
F03C
ENDCHAR
STARTCHAR uni04BB
ENCODING 1211
SWIDTH 600 0
DWIDTH 17 0
BBX 13 21 2 0
BITMAP
F000
F000
F000
F000
F000
F000
F3E0
F7F0
FFF8
F8F8
F078
F078
F078
F078
F078
F078
F078
F078
F078
F078
F078
ENDCHAR
STARTCHAR uni04C0
ENCODING 1216
SWIDTH 600 0
DWIDTH 17 0
BBX 13 20 2 0
BITMAP
FFF8
FFF8
FFF8
0F80
0F80
0F80
0F80
0F80
0F80
0F80
0F80
0F80
0F80
0F80
0F80
0F80
0F80
FFF8
FFF8
FFF8
ENDCHAR
STARTCHAR uni04C1
ENCODING 1217
SWIDTH 600 0
DWIDTH 17 0
BBX 17 27 0 0
BITMAP
0E3800
1E3C00
0E3800
0FF800
07F000
03E000
000000
F1C780
F1C780
71C700
79C700
79CF00
79CF00
79CF00
39CE00
3FFE00
1FFC00
3FFE00
39CF00
79CF00
79CF00
79CF00
79CF00
71C780
F1C780
F1C780
F1C780
ENDCHAR
STARTCHAR uni04C2
ENCODING 1218
SWIDTH 600 0
DWIDTH 17 0
BBX 17 23 0 0
BITMAP
0E3800
1E3C00
0E3800
0FF800
07F000
03E000
000000
000000
F1C780
71C700
79CF00
79CF00
39CE00
39CE00
1FFC00
0FFC00
3FFE00
39CE00
79CF00
79CF00
79C700
71C700
F1C780
ENDCHAR
STARTCHAR uni04CF
ENCODING 1231
SWIDTH 600 0
DWIDTH 17 0
BBX 13 21 2 0
BITMAP
FFF8
FFF8
FFF8
0F80
0F80
0F80
0F80
0F80
0F80
0F80
0F80
0F80
0F80
0F80
0F80
0F80
0F80
0F80
FFF8
FFF8
FFF8
ENDCHAR
STARTCHAR uni04D0
ENCODING 1232
SWIDTH 600 0
DWIDTH 17 0
BBX 17 27 0 0
BITMAP
0E3800
1E3C00
0E3800
0FF800
07F000
03E000
000000
07F000
07F000
07F000
0FF800
0F7800
0F7800
0F7800
1E7C00
1E3C00
1E3C00
1E3C00
3C3E00
3FFE00
3FFE00
7FFF00
781F00
780F00
780F00
F80F80
F00F80
ENDCHAR
STARTCHAR uni04D1
ENCODING 1233
SWIDTH 600 0
DWIDTH 17 0
BBX 15 23 1 0
BITMAP
1870
3C78
3C70
1FF0
1FE0
07C0
0000
0000
0FC0
3FF0
7FF8
7878
207C
007C
1FFC
3FFC
7FFC
F87C
F87C
F87C
7FFE
7FBE
1F1E
ENDCHAR
STARTCHAR uni04D2
ENCODING 1234
SWIDTH 600 0
DWIDTH 17 0
BBX 17 27 0 0
BITMAP
0E3800
1F7C00
1F7C00
1F7C00
0E3800
000000
000000
07F000
07F000
07F000
0FF800
0F7800
0F7800
0F7800
1E7C00
1E3C00
1E3C00
1E3C00
3C3E00
3FFE00
3FFE00
7FFF00
781F00
780F00
780F00
F80F80
F00F80
ENDCHAR
STARTCHAR uni04D3
ENCODING 1235
SWIDTH 600 0
DWIDTH 17 0
BBX 15 22 1 0
BITMAP
3C70
3CF8
3CF8
3CF8
3C70
0000
0000
0FC0
3FF0
7FF8
7878
207C
007C
1FFC
3FFC
7FFC
F87C
F87C
F87C
7FFE
7FBE
1F1E
ENDCHAR
STARTCHAR uni04D4
ENCODING 1236
SWIDTH 600 0
DWIDTH 17 0
BBX 16 20 0 0
BITMAP
0FFF
0FFF
0FFF
1EF0
1EF0
1EF0
1EF0
1CF0
3CFF
3CFF
3CFF
3CF0
7FF0
7FF0
7FF0
78F0
F8F0
F0FF
F0FF
F0FF
ENDCHAR
STARTCHAR uni04D5
ENCODING 1237
SWIDTH 600 0
DWIDTH 17 0
BBX 17 15 0 0
BITMAP
1E3C00
7F7E00
7FFF00
F3C700
63C380
03FF80
3FFF80
7FFF80
FFC000
F3C000
E3C300
F3E780
FEFF00
7EFE00
3C3C00
ENDCHAR
STARTCHAR uni04D6
ENCODING 1238
SWIDTH 600 0
DWIDTH 17 0
BBX 13 27 2 0
BITMAP
3860
78F0
38F0
3FE0
1FC0
0F80
0000
FFF8
FFF8
FFF8
F800
F800
F800
F800
F800
FFF8
FFF8
FFF8
F800
F800
F800
F800
F800
F800
FFF8
FFF8
FFF8
ENDCHAR
STARTCHAR uni04D7
ENCODING 1239
SWIDTH 600 0
DWIDTH 17 0
BBX 15 23 1 0
BITMAP
1C30
3C78
1C78
1FF0
0FE0
07C0
0000
0000
07C0
1FF0
3FF8
7C7C
783C
F81E
FFFE
FFFE
FFFE
F800
7800
7C18
3FFC
1FFC
07E0
ENDCHAR
STARTCHAR uni04D8
ENCODING 1240
SWIDTH 600 0
DWIDTH 17 0
BBX 15 20 1 0
BITMAP
0FE0
3FF0
7FF8
7C7C
F83C
701E
101E
001E
001E
FFFE
FFFE
FFFE
F01E
F01E
F01E
F83C
7C7C
3FF8
3FF0
0FE0
ENDCHAR
STARTCHAR uni04D9
ENCODING 1241
SWIDTH 600 0
DWIDTH 17 0
BBX 15 15 1 0
BITMAP
0FC0
3FF0
7FF8
307C
003C
003E
FFFE
FFFE
FFFE
F03E
783C
7C7C
3FF8
1FF0
07C0
ENDCHAR
STARTCHAR uni04DC
ENCODING 1244
SWIDTH 600 0
DWIDTH 17 0
BBX 17 27 0 0
BITMAP
0E3800
1F7C00
1F7C00
1F7C00
0E3800
000000
000000
F1C780
F1C780
71C700
79C700
79CF00
79CF00
79CF00
39CE00
3FFE00
1FFC00
3FFE00
39CF00
79CF00
79CF00
79CF00
79CF00
71C780
F1C780
F1C780
F1C780
ENDCHAR
STARTCHAR uni04DD
ENCODING 1245
SWIDTH 600 0
DWIDTH 17 0
BBX 17 22 0 0
BITMAP
0E3800
1F7C00
1F7C00
1F7C00
0E3800
000000
000000
F1C780
71C700
79CF00
79CF00
39CE00
39CE00
1FFC00
0FFC00
3FFE00
39CE00
79CF00
79CF00
79C700
71C700
F1C780
ENDCHAR
STARTCHAR uni04DE
ENCODING 1246
SWIDTH 600 0
DWIDTH 17 0
BBX 15 27 1 0
BITMAP
3C70
3CF8
3CF8
3CF8
3C70
0000
0000
0FE0
3FF8
FFF8
787C
207C
003C
007C
0078
0FF0
0FE0
0FF8
007C
003C
003E
003E
203C
787C
FFF8
7FF0
1FC0
ENDCHAR
STARTCHAR uni04DF
ENCODING 1247
SWIDTH 600 0
DWIDTH 17 0
BBX 14 22 1 0
BITMAP
1C70
3EF8
3EF8
3EF8
1C70
0000
0000
0FE0
3FF8
7FFC
387C
203C
007C
07F8
07F0
07FC
003C
203C
787C
FFFC
7FF8
0FE0
ENDCHAR
STARTCHAR uni04E2
ENCODING 1250
SWIDTH 600 0
DWIDTH 17 0
BBX 15 26 1 0
BITMAP
1FF0
1FF0
1FF0
0000
0000
0000
F83E
F83E
F87E
F87E
F8FE
F8FE
F9FE
F9FE
F3DE
F3DE
F39E
F79E
F71E
FF1E
FE1E
FE1E
FC1E
FC1E
F81E
F81E
ENDCHAR
STARTCHAR uni04E3
ENCODING 1251
SWIDTH 600 0
DWIDTH 17 0
BBX 13 21 2 0
BITMAP
3FE0
3FE0
3FE0
0000
0000
0000
F078
F0F8
F0F8
F1F8
F3F8
F3F8
F7F8
F778
FF78
FE78
FC78
FC78
F878
F878
F078
ENDCHAR
STARTCHAR uni04E4
ENCODING 1252
SWIDTH 600 0
DWIDTH 17 0
BBX 15 27 1 0
BITMAP
1C70
3EF8
3EF8
3EF8
1C70
0000
0000
F83E
F83E
F87E
F87E
F8FE
F8FE
F9FE
F9FE
F3DE
F3DE
F39E
F79E
F71E
FF1E
FE1E
FE1E
FC1E
FC1E
F81E
F81E
ENDCHAR
STARTCHAR uni04E5
ENCODING 1253
SWIDTH 600 0
DWIDTH 17 0
BBX 13 22 2 0
BITMAP
38E0
7DF0
7DF0
7DF0
38E0
0000
0000
F078
F0F8
F0F8
F1F8
F3F8
F3F8
F7F8
F778
FF78
FE78
FC78
FC78
F878
F878
F078
ENDCHAR
STARTCHAR uni04E6
ENCODING 1254
SWIDTH 600 0
DWIDTH 17 0
BBX 15 27 1 0
BITMAP
1C70
3EF8
3EF8
3EF8
1C70
0000
0000
0FE0
1FF0
3FF8
7C7C
F83C
F83E
F01E
F01E
F01E
F01E
F01E
F01E
F01E
F01E
F83E
F83C
7C7C
3FF8
1FF0
0FE0
ENDCHAR
STARTCHAR uni04E7
ENCODING 1255
SWIDTH 600 0
DWIDTH 17 0
BBX 15 22 1 0
BITMAP
1C70
3EF8
3EF8
3EF8
1C70
0000
0000
0FE0
1FF0
3FF8
7C7C
F83E
F03E
F01E
F01E
F01E
F03E
F83E
7C7C
3FF8
1FF0
0FE0
ENDCHAR
STARTCHAR uni04E8
ENCODING 1256
SWIDTH 600 0
DWIDTH 17 0
BBX 15 20 1 0
BITMAP
0FE0
1FF0
3FF8
787C
F83C
F01E
F01E
F01E
FFFE
FFFE
FFFE
F01E
F01E
F01E
F01E
F83C
7C7C
3FF8
1FF0
0FE0
ENDCHAR
STARTCHAR uni04E9
ENCODING 1257
SWIDTH 600 0
DWIDTH 17 0
BBX 15 15 1 0
BITMAP
0FE0
1FF0
3FF8
783C
F01E
F01E
FFFE
FFFE
FFFE
F01E
F01E
783C
3FF8
1FF0
0FE0
ENDCHAR
STARTCHAR uni04EE
ENCODING 1262
SWIDTH 600 0
DWIDTH 17 0
BBX 17 26 0 0
BITMAP
0FF800
0FF800
0FF800
000000
000000
000000
F80F80
7C0F00
7C0F00
3C1F00
3E1E00
1E3E00
1F3C00
0F3C00
0F7C00
0FF800
07F800
07F000
03F000
03F000
01E000
01E000
03E000
1FC000
1F8000
1F0000
ENDCHAR
STARTCHAR uni04EF
ENCODING 1263
SWIDTH 600 0
DWIDTH 17 0
BBX 17 27 0 -6
BITMAP
0FF800
0FF800
0FF800
000000
000000
000000
F80F80
780F00
7C1F00
3C1E00
3E1E00
1E3C00
1E3C00
1E3C00
0F7800
0F7800
077000
07F000
07F000
03E000
03E000
03C000
03C000
03C000
3F8000
3F0000
3E0000
ENDCHAR
STARTCHAR uni04F0
ENCODING 1264
SWIDTH 600 0
DWIDTH 17 0
BBX 17 27 0 0
BITMAP
0E3C00
1F3C00
1F3C00
1F3C00
0E3C00
000000
000000
F80F80
7C0F00
7C0F00
3C1F00
3E1E00
1E3E00
1F3C00
0F3C00
0F7C00
0FF800
07F800
07F000
03F000
03F000
01E000
01E000
03E000
1FC000
1F8000
1F0000
ENDCHAR
STARTCHAR uni04F1
ENCODING 1265
SWIDTH 600 0
DWIDTH 17 0
BBX 17 28 0 -6
BITMAP
0E3800
1F3C00
1F7C00
1F3C00
0E3800
000000
000000
F80F80
780F00
7C1F00
3C1E00
3E1E00
1E3C00
1E3C00
1E3C00
0F7800
0F7800
077000
07F000
07F000
03E000
03E000
03C000
03C000
03C000
3F8000
3F0000
3E0000
ENDCHAR
STARTCHAR uni04F2
ENCODING 1266
SWIDTH 600 0
DWIDTH 17 0
BBX 17 28 0 0
BITMAP
020800
038E00
07DF00
079E00
0F3C00
0E3800
061000
000000
F80F80
7C0F00
7C0F00
3C1F00
3E1E00
1E3E00
1F3C00
0F3C00
0F7C00
0FF800
07F800
07F000
03F000
03F000
01E000
01E000
03E000
1FC000
1F8000
1F0000
ENDCHAR
STARTCHAR uni04F3
ENCODING 1267
SWIDTH 600 0
DWIDTH 17 0
BBX 17 30 0 -6
BITMAP
020800
038E00
07DF00
079E00
0F3C00
0E3800
041000
000000
000000
F80F80
780F00
7C1F00
3C1E00
3E1E00
1E3C00
1E3C00
1E3C00
0F7800
0F7800
077000
07F000
07F000
03E000
03E000
03C000
03C000
03C000
3F8000
3F0000
3E0000
ENDCHAR
STARTCHAR uni04F4
ENCODING 1268
SWIDTH 600 0
DWIDTH 17 0
BBX 14 27 1 0
BITMAP
3C70
3CF8
3CF8
3CF8
3C70
0000
0000
F03C
F03C
F03C
F03C
F03C
F03C
F03C
F03C
F03C
F83C
7FFC
7FFC
1FBC
003C
003C
003C
003C
003C
003C
003C
ENDCHAR
STARTCHAR uni04F5
ENCODING 1269
SWIDTH 600 0
DWIDTH 17 0
BBX 14 22 1 0
BITMAP
3C70
3CF8
3CF8
3CF8
3C70
0000
0000
F83C
F83C
F83C
F83C
F83C
F83C
787C
7FFC
7FBC
1F3C
003C
003C
003C
003C
003C
ENDCHAR
STARTCHAR uni04F8
ENCODING 1272
SWIDTH 600 0
DWIDTH 17 0
BBX 15 27 1 0
BITMAP
1C70
3EF8
3EF8
3EF8
1C70
0000
0000
E00E
E00E
E00E
E00E
E00E
E00E
E00E
FE0E
FF8E
FF8E
E3CE
E3CE
E3CE
E3CE
E3CE
E3CE
E3CE
FF8E
FF8E
FE0E
ENDCHAR
STARTCHAR uni04F9
ENCODING 1273
SWIDTH 600 0
DWIDTH 17 0
BBX 15 22 1 0
BITMAP
1C70
3EF8
3EF8
3EF8
1C70
0000
0000
E00E
E00E
E00E
E00E
FE0E
FF8E
FFCE
E3CE
E1CE
E1CE
E1CE
E3CE
FFCE
FF8E
FE0E
ENDCHAR
STARTCHAR uni0E3F
ENCODING 3647
SWIDTH 600 0
DWIDTH 17 0
BBX 14 26 2 -3
BITMAP
0700
0700
0700
FFE0
FFF0
FFF8
F778
F77C
F73C
F77C
F778
FFF0
FFE0
FFF8
F77C
F73C
F73C
F73C
F73C
F77C
FFF8
FFF8
FFE0
0700
0700
0700
ENDCHAR
STARTCHAR Wgrave
ENCODING 7808
SWIDTH 600 0
DWIDTH 17 0
BBX 17 28 0 0
BITMAP
010000
070000
0F8000
078000
03C000
01C000
00A000
000000
F00780
F00780
F00780
F00780
F1E780
F3E780
73E700
73E700
73E700
736700
736700
777700
777700
7F7700
7F7700
7E3700
7E3F00
7E3F00
7E3F00
7E3F00
ENDCHAR
STARTCHAR wgrave
ENCODING 7809
SWIDTH 600 0
DWIDTH 17 0
BBX 17 24 0 0
BITMAP
010000
070000
0F8000
078000
03C000
01C000
00A000
000000
000000
F1E380
F3E780
F3E780
F3E780
73E700
736700
736700
737700
777700
777700
7F7700
7E3700
7E3F00
3E3E00
3E3E00
ENDCHAR
STARTCHAR Wacute
ENCODING 7810
SWIDTH 600 0
DWIDTH 17 0
BBX 17 28 0 0
BITMAP
004000
007000
00F800
00F000
01E000
01C000
028000
000000
F00780
F00780
F00780
F00780
F1E780
F3E780
73E700
73E700
73E700
736700
736700
777700
777700
7F7700
7F7700
7E3700
7E3F00
7E3F00
7E3F00
7E3F00
ENDCHAR
STARTCHAR wacute
ENCODING 7811
SWIDTH 600 0
DWIDTH 17 0
BBX 17 24 0 0
BITMAP
004000
007000
00F800
00F000
01E000
01C000
028000
000000
000000
F1E380
F3E780
F3E780
F3E780
73E700
736700
736700
737700
777700
777700
7F7700
7E3700
7E3F00
3E3E00
3E3E00
ENDCHAR
STARTCHAR Wdieresis
ENCODING 7812
SWIDTH 600 0
DWIDTH 17 0
BBX 17 27 0 0
BITMAP
0E3800
1F7C00
1F7C00
1F7C00
0E3800
000000
000000
F00780
F00780
F00780
F00780
F1E780
F3E780
73E700
73E700
73E700
736700
736700
777700
777700
7F7700
7F7700
7E3700
7E3F00
7E3F00
7E3F00
7E3F00
ENDCHAR
STARTCHAR wdieresis
ENCODING 7813
SWIDTH 600 0
DWIDTH 17 0
BBX 17 22 0 0
BITMAP
0E3800
1F7C00
1F7C00
1F7C00
0E3800
000000
000000
F1E380
F3E780
F3E780
F3E780
73E700
736700
736700
737700
777700
777700
7F7700
7E3700
7E3F00
3E3E00
3E3E00
ENDCHAR
STARTCHAR uni1E9E
ENCODING 7838
SWIDTH 600 0
DWIDTH 17 0
BBX 16 20 1 0
BITMAP
FFFE
FFFE
FFFE
F03E
F03C
F078
F0F8
F1F0
F1F0
F1FC
F1FE
F01F
F00F
F00F
F00F
F00F
F11F
F3FE
F3FC
F5F8
ENDCHAR
STARTCHAR uni1EA0
ENCODING 7840
SWIDTH 600 0
DWIDTH 17 0
BBX 17 27 0 -7
BITMAP
07F000
07F000
07F000
0FF800
0F7800
0F7800
0F7800
1E7C00
1E3C00
1E3C00
1E3C00
3C3E00
3FFE00
3FFE00
7FFF00
781F00
780F00
780F00
F80F80
F00F80
000000
000000
01C000
03E000
03E000
03E000
01C000
ENDCHAR
STARTCHAR uni1EA1
ENCODING 7841
SWIDTH 600 0
DWIDTH 17 0
BBX 15 22 1 -7
BITMAP
0FC0
3FF0
7FF8
7878
207C
007C
1FFC
3FFC
7FFC
F87C
F87C
F87C
7FFE
7FBE
1F1E
0000
0000
0380
07C0
07C0
07C0
0380
ENDCHAR
STARTCHAR uni1EA2
ENCODING 7842
SWIDTH 600 0
DWIDTH 17 0
BBX 17 28 0 0
BITMAP
07E000
07F000
07F000
007000
00F000
00E000
004000
000000
07F000
07F000
07F000
0FF800
0F7800
0F7800
0F7800
1E7C00
1E3C00
1E3C00
1E3C00
3C3E00
3FFE00
3FFE00
7FFF00
781F00
780F00
780F00
F80F80
F00F80
ENDCHAR
STARTCHAR uni1EA3
ENCODING 7843
SWIDTH 600 0
DWIDTH 17 0
BBX 15 23 1 0
BITMAP
0FC0
0FE0
0FE0
01E0
01C0
03C0
0080
0000
0FC0
3FF0
7FF8
7878
207C
007C
1FFC
3FFC
7FFC
F87C
F87C
F87C
7FFE
7FBE
1F1E
ENDCHAR
STARTCHAR uni1EA4
ENCODING 7844
SWIDTH 600 0
DWIDTH 17 0
BBX 18 33 0 0
BITMAP
000200
000380
0007C0
000700
000F00
000E00
01F400
03F000
07F800
0F7C00
1E3C00
040800
000000
07F000
07F000
07F000
0FF800
0F7800
0F7800
0F7800
1E7C00
1E3C00
1E3C00
1E3C00
3C3E00
3FFE00
3FFE00
7FFF00
781F00
780F00
780F00
F80F80
F00F80
ENDCHAR
STARTCHAR uni1EA5
ENCODING 7845
SWIDTH 600 0
DWIDTH 17 0
BBX 16 28 1 0
BITMAP
0004
000F
000F
001E
001C
003C
0398
07C0
0FE0
1EF0
3C78
1030
0000
0FC0
3FF0
7FF8
7878
207C
007C
1FFC
3FFC
7FFC
F87C
F87C
F87C
7FFE
7FBE
1F1E
ENDCHAR
STARTCHAR uni1EA6
ENCODING 7846
SWIDTH 600 0
DWIDTH 17 0
BBX 17 33 0 0
BITMAP
200000
700000
F00000
780000
380000
1C0000
19E000
03F000
07F800
0F7C00
1E3C00
040800
000000
07F000
07F000
07F000
0FF800
0F7800
0F7800
0F7800
1E7C00
1E3C00
1E3C00
1E3C00
3C3E00
3FFE00
3FFE00
7FFF00
781F00
780F00
780F00
F80F80
F00F80
ENDCHAR
STARTCHAR uni1EA7
ENCODING 7847
SWIDTH 600 0
DWIDTH 17 0
BBX 16 28 0 0
BITMAP
2000
F000
F000
7800
3800
3C00
11C0
03E0
07F0
0F78
1E3C
0818
0000
07E0
1FF8
3FFC
3C3C
103E
003E
0FFE
1FFE
3FFE
7C3E
7C3E
7C3E
3FFF
3FDF
0F8F
ENDCHAR
STARTCHAR uni1EA8
ENCODING 7848
SWIDTH 600 0
DWIDTH 17 0
BBX 17 32 0 0
BITMAP
003F00
003F00
003F80
000700
000700
01EE00
03F400
07F800
0F7C00
1E3C00
040800
000000
07F000
07F000
07F000
0FF800
0F7800
0F7800
0F7800
1E7C00
1E3C00
1E3C00
1E3C00
3C3E00
3FFE00
3FFE00
7FFF00
781F00
780F00
780F00
F80F80
F00F80
ENDCHAR
STARTCHAR uni1EA9
ENCODING 7849
SWIDTH 600 0
DWIDTH 17 0
BBX 15 28 1 0
BITMAP
007C
007E
007E
000E
001E
001C
0388
07C0
0FE0
1EF0
3C78
1030
0000
0FC0
3FF0
7FF8
7878
207C
007C
1FFC
3FFC
7FFC
F87C
F87C
F87C
7FFE
7FBE
1F1E
ENDCHAR
STARTCHAR uni1EAA
ENCODING 7850
SWIDTH 600 0
DWIDTH 17 0
BBX 17 31 0 0
BITMAP
078800
0FFC00
1FFC00
08F800
01E000
03F000
07F800
0F7C00
1E3C00
040800
000000
07F000
07F000
07F000
0FF800
0F7800
0F7800
0F7800
1E7C00
1E3C00
1E3C00
1E3C00
3C3E00
3FFE00
3FFE00
7FFF00
781F00
780F00
780F00
F80F80
F00F80
ENDCHAR
STARTCHAR uni1EAB
ENCODING 7851
SWIDTH 600 0
DWIDTH 17 0
BBX 15 27 1 0
BITMAP
1F10
3FF8
3FF8
11E0
0000
0380
07C0
0FE0
1EF0
3C78
1030
0000
0FC0
3FF0
7FF8
7878
207C
007C
1FFC
3FFC
7FFC
F87C
F87C
F87C
7FFE
7FBE
1F1E
ENDCHAR
STARTCHAR uni1EAC
ENCODING 7852
SWIDTH 600 0
DWIDTH 17 0
BBX 17 34 0 -7
BITMAP
03E000
07F000
07F000
0F7800
1E3C00
0C1800
000000
07F000
07F000
07F000
0FF800
0F7800
0F7800
0F7800
1E7C00
1E3C00
1E3C00
1E3C00
3C3E00
3FFE00
3FFE00
7FFF00
781F00
780F00
780F00
F80F80
F00F80
000000
000000
01C000
03E000
03E000
03E000
01C000
ENDCHAR
STARTCHAR uni1EAD
ENCODING 7853
SWIDTH 600 0
DWIDTH 17 0
BBX 15 30 1 -7
BITMAP
07C0
0FC0
1FE0
3CF0
3878
1020
0000
0000
0FC0
3FF0
7FF8
7878
207C
007C
1FFC
3FFC
7FFC
F87C
F87C
F87C
7FFE
7FBE
1F1E
0000
0000
0380
07C0
07C0
07C0
0380
ENDCHAR
STARTCHAR uni1EAE
ENCODING 7854
SWIDTH 600 0
DWIDTH 17 0
BBX 17 33 0 0
BITMAP
004000
007000
007800
00F000
00E000
01C000
08C800
1C1C00
1E3E00
0FFC00
07F800
03E000
000000
07F000
07F000
07F000
0FF800
0F7800
0F7800
0F7800
1E7C00
1E3C00
1E3C00
1E3C00
3C3E00
3FFE00
3FFE00
7FFF00
781F00
780F00
780F00
F80F80
F00F80
ENDCHAR
STARTCHAR uni1EAF
ENCODING 7855
SWIDTH 600 0
DWIDTH 17 0
BBX 15 28 1 0
BITMAP
0080
00E0
01F0
01E0
03C0
0380
1110
3838
3C78
1FF0
1FE0
07C0
0000
0FC0
3FF0
7FF8
7878
207C
007C
1FFC
3FFC
7FFC
F87C
F87C
F87C
7FFE
7FBE
1F1E
ENDCHAR
STARTCHAR uni1EB0
ENCODING 7856
SWIDTH 600 0
DWIDTH 17 0
BBX 17 33 0 0
BITMAP
010000
070000
0F8000
078000
03C000
01C000
088800
1C1C00
1E3E00
0FFC00
07F800
03E000
000000
07F000
07F000
07F000
0FF800
0F7800
0F7800
0F7800
1E7C00
1E3C00
1E3C00
1E3C00
3C3E00
3FFE00
3FFE00
7FFF00
781F00
780F00
780F00
F80F80
F00F80
ENDCHAR
STARTCHAR uni1EB1
ENCODING 7857
SWIDTH 600 0
DWIDTH 17 0
BBX 15 28 1 0
BITMAP
0400
0E00
1E00
0F00
0780
0380
1110
3838
3C78
1FF0
1FE0
07C0
0000
0FC0
3FF0
7FF8
7878
207C
007C
1FFC
3FFC
7FFC
F87C
F87C
F87C
7FFE
7FBE
1F1E
ENDCHAR
STARTCHAR uni1EB2
ENCODING 7858
SWIDTH 600 0
DWIDTH 17 0
BBX 17 32 0 0
BITMAP
07E000
07F000
07F000
00E000
00E000
09C800
1CDC00
1E3E00
0FFC00
07F800
03E000
000000
07F000
07F000
07F000
0FF800
0F7800
0F7800
0F7800
1E7C00
1E3C00
1E3C00
1E3C00
3C3E00
3FFE00
3FFE00
7FFF00
781F00
780F00
780F00
F80F80
F00F80
ENDCHAR
STARTCHAR uni1EB3
ENCODING 7859
SWIDTH 600 0
DWIDTH 17 0
BBX 15 27 1 0
BITMAP
0FC0
0FC0
0FC0
01C0
01C0
1390
3938
3C78
1FF0
1FE0
07C0
0000
0FC0
3FF0
7FF8
7878
207C
007C
1FFC
3FFC
7FFC
F87C
F87C
F87C
7FFE
7FBE
1F1E
ENDCHAR
STARTCHAR uni1EB4
ENCODING 7860
SWIDTH 600 0
DWIDTH 17 0
BBX 17 32 0 0
BITMAP
078800
0FFC00
1FFC00
08F800
000000
080800
1C1E00
1E3C00
0FFC00
07F800
03E000
000000
07F000
07F000
07F000
0FF800
0F7800
0F7800
0F7800
1E7C00
1E3C00
1E3C00
1E3C00
3C3E00
3FFE00
3FFE00
7FFF00
781F00
780F00
780F00
F80F80
F00F80
ENDCHAR
STARTCHAR uni1EB5
ENCODING 7861
SWIDTH 600 0
DWIDTH 17 0
BBX 15 27 1 0
BITMAP
1F10
3FF0
3FF8
11F0
0000
1010
3838
3C78
1FF0
1FE0
07C0
0000
0FC0
3FF0
7FF8
7878
207C
007C
1FFC
3FFC
7FFC
F87C
F87C
F87C
7FFE
7FBE
1F1E
ENDCHAR
STARTCHAR uni1EB6
ENCODING 7862
SWIDTH 600 0
DWIDTH 17 0
BBX 17 34 0 -7
BITMAP
0C1800
1C1C00
1E3C00
0FF800
07F000
03E000
000000
07F000
07F000
07F000
0FF800
0F7800
0F7800
0F7800
1E7C00
1E3C00
1E3C00
1E3C00
3C3E00
3FFE00
3FFE00
7FFF00
781F00
780F00
780F00
F80F80
F00F80
000000
000000
01C000
03E000
03E000
03E000
01C000
ENDCHAR
STARTCHAR uni1EB7
ENCODING 7863
SWIDTH 600 0
DWIDTH 17 0
BBX 15 30 1 -7
BITMAP
1830
3878
3C70
1FF0
0FE0
07C0
0000
0000
0FC0
3FF0
7FF8
7878
207C
007C
1FFC
3FFC
7FFC
F87C
F87C
F87C
7FFE
7FBE
1F1E
0000
0000
0380
07C0
07C0
07C0
0380
ENDCHAR
STARTCHAR uni1EB8
ENCODING 7864
SWIDTH 600 0
DWIDTH 17 0
BBX 13 27 2 -7
BITMAP
FFF8
FFF8
FFF8
F800
F800
F800
F800
F800
FFF8
FFF8
FFF8
F800
F800
F800
F800
F800
F800
FFF8
FFF8
FFF8
0000
0000
0780
0F80
0F80
0F80
0780
ENDCHAR
STARTCHAR uni1EB9
ENCODING 7865
SWIDTH 600 0
DWIDTH 17 0
BBX 15 22 1 -7
BITMAP
07C0
1FF0
3FF8
7C7C
783C
F81E
FFFE
FFFE
FFFE
F800
7800
7C18
3FFC
1FFC
07E0
0000
0000
03C0
03C0
03C0
03C0
03C0
ENDCHAR
STARTCHAR uni1EBA
ENCODING 7866
SWIDTH 600 0
DWIDTH 17 0
BBX 13 28 2 0
BITMAP
1F80
1FC0
1FC0
01C0
03C0
0380
0100
0000
FFF8
FFF8
FFF8
F800
F800
F800
F800
F800
FFF8
FFF8
FFF8
F800
F800
F800
F800
F800
F800
FFF8
FFF8
FFF8
ENDCHAR
STARTCHAR uni1EBB
ENCODING 7867
SWIDTH 600 0
DWIDTH 17 0
BBX 15 23 1 0
BITMAP
0FC0
0FE0
0FE0
00E0
01E0
01C0
0080
0000
07C0
1FF0
3FF8
7C7C
783C
F81E
FFFE
FFFE
FFFE
F800
7800
7C18
3FFC
1FFC
07E0
ENDCHAR
STARTCHAR uni1EBC
ENCODING 7868
SWIDTH 600 0
DWIDTH 17 0
BBX 13 26 2 0
BITMAP
1E20
7FF0
7FF0
23E0
0000
0000
FFF8
FFF8
FFF8
F800
F800
F800
F800
F800
FFF8
FFF8
FFF8
F800
F800
F800
F800
F800
F800
FFF8
FFF8
FFF8
ENDCHAR
STARTCHAR uni1EBD
ENCODING 7869
SWIDTH 600 0
DWIDTH 17 0
BBX 15 21 1 0
BITMAP
1F10
3FF8
3FF8
11F0
0000
0000
07C0
1FF0
3FF8
7C7C
783C
F81E
FFFE
FFFE
FFFE
F800
7800
7C18
3FFC
1FFC
07E0
ENDCHAR
STARTCHAR uni1EBE
ENCODING 7870
SWIDTH 600 0
DWIDTH 17 0
BBX 16 33 2 0
BITMAP
0008
000E
001F
001C
003C
0038
07D0
0FC0
1FE0
3DF0
78F0
1020
0000
FFF8
FFF8
FFF8
F800
F800
F800
F800
F800
FFF8
FFF8
FFF8
F800
F800
F800
F800
F800
F800
FFF8
FFF8
FFF8
ENDCHAR
STARTCHAR uni1EBF
ENCODING 7871
SWIDTH 600 0
DWIDTH 17 0
BBX 17 28 1 0
BITMAP
000400
000700
000F80
000E00
001E00
001C00
03E800
07E000
0FF000
1EF800
3C7800
081000
000000
07C000
1FF000
3FF800
7C7C00
783C00
F81E00
FFFE00
FFFE00
FFFE00
F80000
780000
7C1800
3FFC00
1FFC00
07E000
ENDCHAR
STARTCHAR uni1EC0
ENCODING 7872
SWIDTH 600 0
DWIDTH 17 0
BBX 15 33 0 0
BITMAP
2000
7000
F000
7800
3800
1C00
19E0
03F0
07F8
0F7C
1E3C
0408
0000
3FFE
3FFE
3FFE
3E00
3E00
3E00
3E00
3E00
3FFE
3FFE
3FFE
3E00
3E00
3E00
3E00
3E00
3E00
3FFE
3FFE
3FFE
ENDCHAR
STARTCHAR uni1EC1
ENCODING 7873
SWIDTH 600 0
DWIDTH 17 0
BBX 16 28 0 0
BITMAP
2000
7000
F000
7800
3800
1C00
19E0
03F0
07F8
0F7C
1E3C
0408
0000
03E0
0FF8
1FFC
3E3E
3C1E
7C0F
7FFF
7FFF
7FFF
7C00
3C00
3E0C
1FFE
0FFE
03F0
ENDCHAR
STARTCHAR uni1EC2
ENCODING 7874
SWIDTH 600 0
DWIDTH 17 0
BBX 15 32 2 0
BITMAP
00FC
00FE
00FE
001C
001C
07B8
0FD0
1FE0
3DF0
78F0
1020
0000
FFF8
FFF8
FFF8
F800
F800
F800
F800
F800
FFF8
FFF8
FFF8
F800
F800
F800
F800
F800
F800
FFF8
FFF8
FFF8
ENDCHAR
STARTCHAR uni1EC3
ENCODING 7875
SWIDTH 600 0
DWIDTH 17 0
BBX 16 28 1 0
BITMAP
007E
007E
007F
000E
000E
001C
03C8
07E0
0FF0
1EF8
3C78
0810
0000
07C0
1FF0
3FF8
7C7C
783C
F81E
FFFE
FFFE
FFFE
F800
7800
7C18
3FFC
1FFC
07E0
ENDCHAR
STARTCHAR uni1EC4
ENCODING 7876
SWIDTH 600 0
DWIDTH 17 0
BBX 13 31 2 0
BITMAP
1E20
3FF0
7FF0
21E0
0780
0FC0
1FE0
3DF0
78F0
1020
0000
FFF8
FFF8
FFF8
F800
F800
F800
F800
F800
FFF8
FFF8
FFF8
F800
F800
F800
F800
F800
F800
FFF8
FFF8
FFF8
ENDCHAR
STARTCHAR uni1EC5
ENCODING 7877
SWIDTH 600 0
DWIDTH 17 0
BBX 15 27 1 0
BITMAP
0F10
1FF8
3FF8
10F0
0000
03C0
07E0
0FF0
1EF8
3C78
0810
0000
07C0
1FF0
3FF8
7C7C
783C
F81E
FFFE
FFFE
FFFE
F800
7800
7C18
3FFC
1FFC
07E0
ENDCHAR
STARTCHAR uni1EC6
ENCODING 7878
SWIDTH 600 0
DWIDTH 17 0
BBX 13 34 2 -7
BITMAP
0F80
1FC0
1FE0
3DE0
78F0
3060
0000
FFF8
FFF8
FFF8
F800
F800
F800
F800
F800
FFF8
FFF8
FFF8
F800
F800
F800
F800
F800
F800
FFF8
FFF8
FFF8
0000
0000
0780
0F80
0F80
0F80
0780
ENDCHAR
STARTCHAR uni1EC7
ENCODING 7879
SWIDTH 600 0
DWIDTH 17 0
BBX 15 30 1 -7
BITMAP
07C0
0FE0
0FF0
1EF0
3C78
1830
0000
0000
07C0
1FF0
3FF8
7C7C
783C
F81E
FFFE
FFFE
FFFE
F800
7800
7C18
3FFC
1FFC
07E0
0000
0000
03C0
03C0
03C0
03C0
03C0
ENDCHAR
STARTCHAR uni1EC8
ENCODING 7880
SWIDTH 600 0
DWIDTH 17 0
BBX 13 28 2 0
BITMAP
1F80
1FC0
1FC0
01C0
03C0
0380
0100
0000
FFF8
FFF8
FFF8
0F80
0F80
0F80
0F80
0F80
0F80
0F80
0F80
0F80
0F80
0F80
0F80
0F80
0F80
FFF8
FFF8
FFF8
ENDCHAR
STARTCHAR uni1EC9
ENCODING 7881
SWIDTH 600 0
DWIDTH 17 0
BBX 13 23 3 0
BITMAP
1F80
1FC0
1FC0
03C0
0380
0380
0500
0000
FF80
FF80
FF80
0F80
0F80
0F80
0F80
0F80
0F80
0F80
0F80
0F80
FFF8
FFF8
FFF8
ENDCHAR
STARTCHAR uni1ECA
ENCODING 7882
SWIDTH 600 0
DWIDTH 17 0
BBX 13 27 2 -7
BITMAP
FFF8
FFF8
FFF8
0F80
0F80
0F80
0F80
0F80
0F80
0F80
0F80
0F80
0F80
0F80
0F80
0F80
0F80
FFF8
FFF8
FFF8
0000
0000
0700
0F80
0F80
0F80
0700
ENDCHAR
STARTCHAR uni1ECB
ENCODING 7883
SWIDTH 600 0
DWIDTH 17 0
BBX 14 29 2 -7
BITMAP
0380
07C0
07C0
07C0
0380
0000
0000
FFC0
FFC0
FFC0
07C0
07C0
07C0
07C0
07C0
07C0
07C0
07C0
07C0
FFFC
FFFC
FFFC
0000
0000
0380
07C0
07C0
07C0
0380
ENDCHAR
STARTCHAR uni1ECC
ENCODING 7884
SWIDTH 600 0
DWIDTH 17 0
BBX 15 27 1 -7
BITMAP
0FE0
1FF0
3FF8
7C7C
F83C
F83E
F01E
F01E
F01E
F01E
F01E
F01E
F01E
F01E
F83E
F83C
7C7C
3FF8
1FF0
0FE0
0000
0000
0380
07C0
07C0
07C0
0380
ENDCHAR
STARTCHAR uni1ECD
ENCODING 7885
SWIDTH 600 0
DWIDTH 17 0
BBX 15 22 1 -7
BITMAP
0FE0
1FF0
3FF8
7C7C
F83E
F03E
F01E
F01E
F01E
F03E
F83E
7C7C
3FF8
1FF0
0FE0
0000
0000
0380
07C0
07C0
07C0
0380
ENDCHAR
STARTCHAR uni1ECE
ENCODING 7886
SWIDTH 600 0
DWIDTH 17 0
BBX 15 28 1 0
BITMAP
0FC0
0FE0
0FE0
00E0
01E0
01C0
0080
0000
0FE0
1FF0
3FF8
7C7C
F83C
F83E
F01E
F01E
F01E
F01E
F01E
F01E
F01E
F01E
F83E
F83C
7C7C
3FF8
1FF0
0FE0
ENDCHAR
STARTCHAR uni1ECF
ENCODING 7887
SWIDTH 600 0
DWIDTH 17 0
BBX 15 23 1 0
BITMAP
0FC0
0FE0
0FE0
00E0
01E0
01C0
0080
0000
0FE0
1FF0
3FF8
7C7C
F83E
F03E
F01E
F01E
F01E
F03E
F83E
7C7C
3FF8
1FF0
0FE0
ENDCHAR
STARTCHAR uni1ED0
ENCODING 7888
SWIDTH 600 0
DWIDTH 17 0
BBX 17 33 1 0
BITMAP
000400
000700
000F80
000E00
001E00
001C00
03E800
07E000
0FF000
1EF800
3C7800
081000
000000
0FE000
1FF000
3FF800
7C7C00
F83C00
F83E00
F01E00
F01E00
F01E00
F01E00
F01E00
F01E00
F01E00
F01E00
F83E00
F83C00
7C7C00
3FF800
1FF000
0FE000
ENDCHAR
STARTCHAR uni1ED1
ENCODING 7889
SWIDTH 600 0
DWIDTH 17 0
BBX 17 28 1 0
BITMAP
000400
000700
000F80
000E00
001E00
001C00
03E800
07E000
0FF000
1EF800
3C7800
081000
000000
0FE000
1FF000
3FF800
7C7C00
F83E00
F03E00
F01E00
F01E00
F01E00
F03E00
F83E00
7C7C00
3FF800
1FF000
0FE000
ENDCHAR
STARTCHAR uni1ED2
ENCODING 7890
SWIDTH 600 0
DWIDTH 17 0
BBX 16 33 0 0
BITMAP
2000
7000
F000
7800
3800
1C00
19E0
03F0
07F8
0F7C
1E3C
0408
0000
07F0
0FF8
1FFC
3E3E
7C1E
7C1F
780F
780F
780F
780F
780F
780F
780F
780F
7C1F
7C1E
3E3E
1FFC
0FF8
07F0
ENDCHAR
STARTCHAR uni1ED3
ENCODING 7891
SWIDTH 600 0
DWIDTH 17 0
BBX 16 28 0 0
BITMAP
2000
7000
F000
7800
3800
1C00
19E0
03F0
07F8
0F7C
1E3C
0408
0000
07F0
0FF8
1FFC
3E3E
7C1F
781F
780F
780F
780F
781F
7C1F
3E3E
1FFC
0FF8
07F0
ENDCHAR
STARTCHAR uni1ED4
ENCODING 7892
SWIDTH 600 0
DWIDTH 17 0
BBX 16 32 1 0
BITMAP
007E
007E
007F
000E
000E
03DC
07E8
0FF0
1EF8
3C78
0810
0000
0FE0
1FF0
3FF8
7C7C
F83C
F83E
F01E
F01E
F01E
F01E
F01E
F01E
F01E
F01E
F83E
F83C
7C7C
3FF8
1FF0
0FE0
ENDCHAR
STARTCHAR uni1ED5
ENCODING 7893
SWIDTH 600 0
DWIDTH 17 0
BBX 16 28 1 0
BITMAP
007E
007E
007F
000E
000E
001C
03C8
07E0
0FF0
1EF8
3C78
0810
0000
0FE0
1FF0
3FF8
7C7C
F83E
F03E
F01E
F01E
F01E
F03E
F83E
7C7C
3FF8
1FF0
0FE0
ENDCHAR
STARTCHAR uni1ED6
ENCODING 7894
SWIDTH 600 0
DWIDTH 17 0
BBX 15 31 1 0
BITMAP
0F10
1FF8
3FF8
11F0
03C0
07E0
0FF0
1EF8
3C78
0810
0000
0FE0
1FF0
3FF8
7C7C
F83C
F83E
F01E
F01E
F01E
F01E
F01E
F01E
F01E
F01E
F83E
F83C
7C7C
3FF8
1FF0
0FE0
ENDCHAR
STARTCHAR uni1ED7
ENCODING 7895
SWIDTH 600 0
DWIDTH 17 0
BBX 15 27 1 0
BITMAP
0F10
1FF8
3FF8
11F0
0000
03C0
07E0
0FF0
1EF8
3C78
0810
0000
0FE0
1FF0
3FF8
7C7C
F83E
F03E
F01E
F01E
F01E
F03E
F83E
7C7C
3FF8
1FF0
0FE0
ENDCHAR
STARTCHAR uni1ED8
ENCODING 7896
SWIDTH 600 0
DWIDTH 17 0
BBX 15 34 1 -7
BITMAP
07C0
0FE0
0FE0
1EF0
3C78
1830
0000
0FE0
1FF0
3FF8
7C7C
F83C
F83E
F01E
F01E
F01E
F01E
F01E
F01E
F01E
F01E
F83E
F83C
7C7C
3FF8
1FF0
0FE0
0000
0000
0380
07C0
07C0
07C0
0380
ENDCHAR
STARTCHAR uni1ED9
ENCODING 7897
SWIDTH 600 0
DWIDTH 17 0
BBX 15 30 1 -7
BITMAP
07C0
0FE0
0FE0
1EF0
3C78
1830
0000
0000
0FE0
1FF0
3FF8
7C7C
F83E
F03E
F01E
F01E
F01E
F03E
F83E
7C7C
3FF8
1FF0
0FE0
0000
0000
0380
07C0
07C0
07C0
0380
ENDCHAR
STARTCHAR uni1EDA
ENCODING 7898
SWIDTH 600 0
DWIDTH 17 0
BBX 16 28 1 0
BITMAP
0080
00E0
01F0
01E0
03C0
038F
050F
000F
0FFF
1FFE
3FFC
7C7C
F83E
F83E
F01E
F01E
F01E
F01E
F01E
F01E
F01E
F01E
F83E
F83C
7C7C
3FF8
1FF0
0FE0
ENDCHAR
STARTCHAR uni1EDB
ENCODING 7899
SWIDTH 600 0
DWIDTH 17 0
BBX 16 24 1 0
BITMAP
0080
00E0
01F0
01E0
03C0
0380
050F
000F
000F
0FFF
1FFF
3FFE
7C7C
F83C
F03E
F01E
F01E
F01E
F03E
F83E
7C7C
3FF8
1FF0
0FE0
ENDCHAR
STARTCHAR uni1EDC
ENCODING 7900
SWIDTH 600 0
DWIDTH 17 0
BBX 16 28 1 0
BITMAP
0200
0E00
1F00
0F00
0780
038F
014F
000F
0FFF
1FFE
3FFC
7C7C
F83E
F83E
F01E
F01E
F01E
F01E
F01E
F01E
F01E
F01E
F83E
F83C
7C7C
3FF8
1FF0
0FE0
ENDCHAR
STARTCHAR uni1EDD
ENCODING 7901
SWIDTH 600 0
DWIDTH 17 0
BBX 16 24 1 0
BITMAP
0200
0E00
1F00
0F00
0780
0380
014F
000F
000F
0FFF
1FFF
3FFE
7C7C
F83C
F03E
F01E
F01E
F01E
F03E
F83E
7C7C
3FF8
1FF0
0FE0
ENDCHAR
STARTCHAR uni1EDE
ENCODING 7902
SWIDTH 600 0
DWIDTH 17 0
BBX 16 28 1 0
BITMAP
0FC0
0FE0
0FE0
00E0
01E0
01CF
008F
000F
0FFF
1FFE
3FFC
7C7C
F83E
F83E
F01E
F01E
F01E
F01E
F01E
F01E
F01E
F01E
F83E
F83C
7C7C
3FF8
1FF0
0FE0
ENDCHAR
STARTCHAR uni1EDF
ENCODING 7903
SWIDTH 600 0
DWIDTH 17 0
BBX 16 23 1 0
BITMAP
0FC0
0FE0
0FE0
00E0
01E0
01CF
008F
000F
0FFF
1FFF
3FFE
7C7C
F83C
F03E
F01E
F01E
F01E
F03E
F83E
7C7C
3FF8
1FF0
0FE0
ENDCHAR
STARTCHAR uni1EE0
ENCODING 7904
SWIDTH 600 0
DWIDTH 17 0
BBX 16 26 1 0
BITMAP
1E20
3FF0
1FF0
01EF
000F
000F
0FFF
1FFE
3FFC
7C7C
F83E
F83E
F01E
F01E
F01E
F01E
F01E
F01E
F01E
F01E
F83E
F83C
7C7C
3FF8
1FF0
0FE0
ENDCHAR
STARTCHAR uni1EE1
ENCODING 7905
SWIDTH 600 0
DWIDTH 17 0
BBX 16 21 1 0
BITMAP
1E20
3FE0
1FF0
01CF
000F
000F
0FFF
1FFF
3FFE
7C7C
F83C
F03E
F01E
F01E
F01E
F03E
F83E
7C7C
3FF8
1FF0
0FE0
ENDCHAR
STARTCHAR uni1EE2
ENCODING 7906
SWIDTH 600 0
DWIDTH 17 0
BBX 16 30 1 -7
BITMAP
000F
000F
000F
0FFF
1FFE
3FFC
7C7C
F83E
F83E
F01E
F01E
F01E
F01E
F01E
F01E
F01E
F01E
F83E
F83C
7C7C
3FF8
1FF0
0FE0
0000
0000
0380
07C0
07C0
07C0
0380
ENDCHAR
STARTCHAR uni1EE3
ENCODING 7907
SWIDTH 600 0
DWIDTH 17 0
BBX 16 25 1 -7
BITMAP
000F
000F
000F
0FFF
1FFF
3FFE
7C7C
F83C
F03E
F01E
F01E
F01E
F03E
F83E
7C7C
3FF8
1FF0
0FE0
0000
0000
0380
07C0
07C0
07C0
0380
ENDCHAR
STARTCHAR uni1EE4
ENCODING 7908
SWIDTH 600 0
DWIDTH 17 0
BBX 15 27 1 -7
BITMAP
F83E
F83E
F83E
F83E
F83E
F83E
F83E
F83E
F83E
F83E
F83E
F83E
F83E
F83E
783C
783C
7C7C
7FFC
3FF8
0FE0
0000
0000
0380
07C0
07C0
07C0
0380
ENDCHAR
STARTCHAR uni1EE5
ENCODING 7909
SWIDTH 600 0
DWIDTH 17 0
BBX 13 22 2 -7
BITMAP
F078
F078
F078
F078
F078
F078
F078
F078
F078
F078
F078
F8F8
FFF8
7F78
3E78
0000
0000
0700
0F80
0F80
0F80
0700
ENDCHAR
STARTCHAR uni1EE6
ENCODING 7910
SWIDTH 600 0
DWIDTH 17 0
BBX 15 28 1 0
BITMAP
0FC0
0FE0
0FE0
00E0
01E0
01C0
0080
0000
F83E
F83E
F83E
F83E
F83E
F83E
F83E
F83E
F83E
F83E
F83E
F83E
F83E
F83E
783C
783C
7C7C
7FFC
3FF8
0FE0
ENDCHAR
STARTCHAR uni1EE7
ENCODING 7911
SWIDTH 600 0
DWIDTH 17 0
BBX 13 23 2 0
BITMAP
1F80
1FC0
1FC0
03C0
0380
0380
0100
0000
F078
F078
F078
F078
F078
F078
F078
F078
F078
F078
F078
F8F8
FFF8
7F78
3E78
ENDCHAR
STARTCHAR uni1EE8
ENCODING 7912
SWIDTH 600 0
DWIDTH 17 0
BBX 16 28 1 0
BITMAP
0080
00E0
01F0
01E0
03C0
0387
0507
0007
F83F
F83F
F83E
F83E
F83E
F83E
F83E
F83E
F83E
F83E
F83E
F83E
F83E
F83E
783C
783C
7C7C
7FFC
3FF8
0FE0
ENDCHAR
STARTCHAR uni1EE9
ENCODING 7913
SWIDTH 600 0
DWIDTH 17 0
BBX 15 24 2 0
BITMAP
0100
01C0
03E0
03C0
0780
0F00
020E
000E
000E
F07E
F07C
F078
F078
F078
F078
F078
F078
F078
F078
F078
F8F8
FFF8
7F78
3E78
ENDCHAR
STARTCHAR uni1EEA
ENCODING 7914
SWIDTH 600 0
DWIDTH 17 0
BBX 16 28 1 0
BITMAP
0200
0E00
1F00
0F00
0780
0387
0147
0007
F83F
F83F
F83E
F83E
F83E
F83E
F83E
F83E
F83E
F83E
F83E
F83E
F83E
F83E
783C
783C
7C7C
7FFC
3FF8
0FE0
ENDCHAR
STARTCHAR uni1EEB
ENCODING 7915
SWIDTH 600 0
DWIDTH 17 0
BBX 15 24 2 0
BITMAP
0400
1C00
3E00
1E00
0F00
0700
028E
000E
000E
F07E
F07C
F078
F078
F078
F078
F078
F078
F078
F078
F078
F8F8
FFF8
7F78
3E78
ENDCHAR
STARTCHAR uni1EEC
ENCODING 7916
SWIDTH 600 0
DWIDTH 17 0
BBX 16 28 1 0
BITMAP
0FC0
0FE0
0FE0
00E0
01E0
01C7
0087
0007
F83F
F83F
F83E
F83E
F83E
F83E
F83E
F83E
F83E
F83E
F83E
F83E
F83E
F83E
783C
783C
7C7C
7FFC
3FF8
0FE0
ENDCHAR
STARTCHAR uni1EED
ENCODING 7917
SWIDTH 600 0
DWIDTH 17 0
BBX 15 23 2 0
BITMAP
1F80
1FC0
1FC0
03C0
0380
038E
010E
000E
F07E
F07C
F078
F078
F078
F078
F078
F078
F078
F078
F078
F8F8
FFF8
7F78
3E78
ENDCHAR
STARTCHAR uni1EEE
ENCODING 7918
SWIDTH 600 0
DWIDTH 17 0
BBX 16 26 1 0
BITMAP
1E20
3FF0
1FF0
01E7
0007
0007
F83F
F83F
F83E
F83E
F83E
F83E
F83E
F83E
F83E
F83E
F83E
F83E
F83E
F83E
783C
783C
7C7C
7FFC
3FF8
0FE0
ENDCHAR
STARTCHAR uni1EEF
ENCODING 7919
SWIDTH 600 0
DWIDTH 17 0
BBX 15 21 2 0
BITMAP
3C40
7FE0
3FE0
03CE
000E
000E
F07E
F07C
F078
F078
F078
F078
F078
F078
F078
F078
F078
F8F8
FFF8
7F78
3E78
ENDCHAR
STARTCHAR uni1EF0
ENCODING 7920
SWIDTH 600 0
DWIDTH 17 0
BBX 16 30 1 -7
BITMAP
0007
0007
0007
F83F
F83F
F83E
F83E
F83E
F83E
F83E
F83E
F83E
F83E
F83E
F83E
F83E
F83E
783C
783C
7C7C
7FFC
3FF8
0FE0
0000
0000
0380
07C0
07C0
07C0
0380
ENDCHAR
STARTCHAR uni1EF1
ENCODING 7921
SWIDTH 600 0
DWIDTH 17 0
BBX 15 25 2 -7
BITMAP
000E
000E
000E
F07E
F07C
F078
F078
F078
F078
F078
F078
F078
F078
F078
F8F8
FFF8
7F78
3E78
0000
0000
0700
0F80
0F80
0F80
0700
ENDCHAR
STARTCHAR Ygrave
ENCODING 7922
SWIDTH 600 0
DWIDTH 17 0
BBX 17 28 0 0
BITMAP
010000
070000
0F8000
078000
03C000
01C000
00A000
000000
F80F80
780F00
7C1F00
3C1E00
3E3E00
1E3C00
1F3C00
1F7C00
0F7800
0FF800
07F000
07F000
03E000
03E000
03E000
03E000
03E000
03E000
03E000
03E000
ENDCHAR
STARTCHAR ygrave
ENCODING 7923
SWIDTH 600 0
DWIDTH 17 0
BBX 17 30 0 -6
BITMAP
010000
078000
0F8000
07C000
03C000
01E000
008000
000000
000000
F80F80
780F00
7C1F00
3C1E00
3E1E00
1E3C00
1E3C00
1E3C00
0F7800
0F7800
077000
07F000
07F000
03E000
03E000
03C000
03C000
03C000
3F8000
3F0000
3E0000
ENDCHAR
STARTCHAR uni1EF4
ENCODING 7924
SWIDTH 600 0
DWIDTH 17 0
BBX 17 27 0 -7
BITMAP
F80F80
780F00
7C1F00
3C1E00
3E3E00
1E3C00
1F3C00
1F7C00
0F7800
0FF800
07F000
07F000
03E000
03E000
03E000
03E000
03E000
03E000
03E000
03E000
000000
000000
01C000
03E000
03E000
03E000
01C000
ENDCHAR
STARTCHAR uni1EF5
ENCODING 7925
SWIDTH 600 0
DWIDTH 17 0
BBX 17 22 0 -7
BITMAP
F80F80
780F00
7C1F00
3C1E00
3E1E00
1E3C00
1E3C00
1E3C00
0F7800
0F7800
077000
07F000
07F000
03E000
03E000
03C000
03C000
03CF00
3F8F00
3F0F00
3E0F00
000F00
ENDCHAR
STARTCHAR uni1EF6
ENCODING 7926
SWIDTH 600 0
DWIDTH 17 0
BBX 17 28 0 0
BITMAP
07E000
07F000
07F000
007000
00F000
00E000
004000
000000
F80F80
780F00
7C1F00
3C1E00
3E3E00
1E3C00
1F3C00
1F7C00
0F7800
0FF800
07F000
07F000
03E000
03E000
03E000
03E000
03E000
03E000
03E000
03E000
ENDCHAR
STARTCHAR uni1EF7
ENCODING 7927
SWIDTH 600 0
DWIDTH 17 0
BBX 17 29 0 -6
BITMAP
07E000
07F000
07F000
007000
00F000
00E000
004000
000000
F80F80
780F00
7C1F00
3C1E00
3E1E00
1E3C00
1E3C00
1E3C00
0F7800
0F7800
077000
07F000
07F000
03E000
03E000
03C000
03C000
03C000
3F8000
3F0000
3E0000
ENDCHAR
STARTCHAR uni1EF8
ENCODING 7928
SWIDTH 600 0
DWIDTH 17 0
BBX 17 26 0 0
BITMAP
0F8800
1FFC00
1FFC00
08F800
000000
000000
F80F80
780F00
7C1F00
3C1E00
3E3E00
1E3C00
1F3C00
1F7C00
0F7800
0FF800
07F000
07F000
03E000
03E000
03E000
03E000
03E000
03E000
03E000
03E000
ENDCHAR
STARTCHAR uni1EF9
ENCODING 7929
SWIDTH 600 0
DWIDTH 17 0
BBX 17 27 0 -6
BITMAP
078800
1FFC00
1FFC00
08F800
000000
000000
F80F80
780F00
7C1F00
3C1E00
3E1E00
1E3C00
1E3C00
1E3C00
0F7800
0F7800
077000
07F000
07F000
03E000
03E000
03C000
03C000
03C000
3F8000
3F0000
3E0000
ENDCHAR
STARTCHAR endash
ENCODING 8211
SWIDTH 600 0
DWIDTH 17 0
BBX 14 3 2 7
BITMAP
FFFC
FFFC
FFFC
ENDCHAR
STARTCHAR emdash
ENCODING 8212
SWIDTH 600 0
DWIDTH 17 0
BBX 17 3 0 7
BITMAP
FFFF80
FFFF80
FFFF80
ENDCHAR
STARTCHAR quoteleft
ENCODING 8216
SWIDTH 600 0
DWIDTH 17 0
BBX 8 9 4 12
BITMAP
0F
0E
1E
1E
1E
3E
3E
7C
FC
ENDCHAR
STARTCHAR quoteright
ENCODING 8217
SWIDTH 600 0
DWIDTH 17 0
BBX 8 9 5 12
BITMAP
3F
3E
3C
7C
7C
78
78
70
F0
ENDCHAR
STARTCHAR quotesinglbase
ENCODING 8218
SWIDTH 600 0
DWIDTH 17 0
BBX 7 9 5 -4
BITMAP
7E
7C
7C
78
78
F0
F0
F0
E0
ENDCHAR
STARTCHAR quotedblleft
ENCODING 8220
SWIDTH 600 0
DWIDTH 17 0
BBX 14 9 1 12
BITMAP
0E1C
1E1C
1E3C
3C3C
3C7C
7C78
7C78
7CF8
F9F8
ENDCHAR
STARTCHAR quotedblright
ENCODING 8221
SWIDTH 600 0
DWIDTH 17 0
BBX 14 9 2 12
BITMAP
7E7C
7CFC
7CF8
78F8
F8F0
F0F0
F0F0
F1E0
E1E0
ENDCHAR
STARTCHAR quotedblbase
ENCODING 8222
SWIDTH 600 0
DWIDTH 17 0
BBX 15 9 1 -4
BITMAP
3E7E
7E7C
7C7C
7C78
78F8
78F0
70F0
F0E0
F0E0
ENDCHAR
STARTCHAR dagger
ENCODING 8224
SWIDTH 600 0
DWIDTH 17 0
BBX 13 27 2 -6
BITMAP
0700
0700
0700
0700
0700
0700
FFF8
FFF8
FFF8
0700
0700
0700
0700
0700
0700
0700
0700
0700
0700
0700
0700
0700
0700
0700
0700
0700
0700
ENDCHAR
STARTCHAR daggerdbl
ENCODING 8225
SWIDTH 600 0
DWIDTH 17 0
BBX 13 27 2 -6
BITMAP
0700
0700
0700
0700
0700
0700
FFF8
FFF8
FFF8
0700
0700
0700
0700
0700
0700
0700
0700
FFF8
FFF8
FFF8
0700
0700
0700
0700
0700
0700
0700
ENDCHAR
STARTCHAR bullet
ENCODING 8226
SWIDTH 600 0
DWIDTH 17 0
BBX 9 9 4 4
BITMAP
3E00
7F00
FF80
FF80
FF80
FF80
FF80
7F00
3E00
ENDCHAR
STARTCHAR ellipsis
ENCODING 8230
SWIDTH 600 0
DWIDTH 17 0
BBX 15 4 1 0
BITMAP
E38E
F7DE
F7DE
E38E
ENDCHAR
STARTCHAR perthousand
ENCODING 8240
SWIDTH 600 0
DWIDTH 17 0
BBX 17 20 0 0
BITMAP
3C0000
7E0000
E70000
E70000
E30000
E70000
E70600
7E3E00
3DFC00
1FC000
7E0000
379E00
0FFF00
1CF380
1C7380
1C6380
1C6380
1CF380
0FFF00
079E00
ENDCHAR
STARTCHAR guilsinglleft
ENCODING 8249
SWIDTH 600 0
DWIDTH 17 0
BBX 7 14 5 1
BITMAP
04
0C
1E
3C
F8
F8
F0
F0
F8
F8
3C
1E
0C
04
ENDCHAR
STARTCHAR guilsinglright
ENCODING 8250
SWIDTH 600 0
DWIDTH 17 0
BBX 7 14 5 1
BITMAP
40
60
F0
78
3E
3E
1E
1E
3E
3E
78
F0
60
40
ENDCHAR
STARTCHAR fraction
ENCODING 8260
SWIDTH 600 0
DWIDTH 17 0
BBX 17 20 0 0
BITMAP
000380
000700
000700
000E00
000E00
001C00
001C00
003800
007000
000000
000000
070000
0E0000
1C0000
1C0000
380000
380000
700000
700000
E00000
ENDCHAR
STARTCHAR uni2070
ENCODING 8304
SWIDTH 600 0
DWIDTH 17 0
BBX 9 11 4 9
BITMAP
3E00
7F00
E380
E380
EB80
EB80
E380
E380
E380
7F00
3E00
ENDCHAR
STARTCHAR uni2074
ENCODING 8308
SWIDTH 600 0
DWIDTH 17 0
BBX 9 11 4 9
BITMAP
0F00
1F00
1F00
3700
7700
6700
C700
FF80
FF80
0700
0700
ENDCHAR
STARTCHAR uni2075
ENCODING 8309
SWIDTH 600 0
DWIDTH 17 0
BBX 9 11 4 9
BITMAP
7F00
7F00
6000
6000
6E00
FF00
6380
4380
6380
FF00
3E00
ENDCHAR
STARTCHAR uni2076
ENCODING 8310
SWIDTH 600 0
DWIDTH 17 0
BBX 9 11 4 9
BITMAP
0F00
3E00
3800
7000
FF00
EF80
F380
E380
E380
7F00
3E00
ENDCHAR
STARTCHAR uni2077
ENCODING 8311
SWIDTH 600 0
DWIDTH 17 0
BBX 8 11 5 9
BITMAP
FF
FF
C7
CF
0E
0E
1C
1C
3C
38
78
ENDCHAR
STARTCHAR uni2078
ENCODING 8312
SWIDTH 600 0
DWIDTH 17 0
BBX 9 11 4 9
BITMAP
3E00
7F00
E380
6300
3E00
7F00
E380
E380
E380
7F00
3E00
ENDCHAR
STARTCHAR uni2079
ENCODING 8313
SWIDTH 600 0
DWIDTH 17 0
BBX 9 11 4 9
BITMAP
3E00
7F00
E380
E380
E380
FF80
7F80
0700
0F00
1E00
7C00
ENDCHAR
STARTCHAR uni2080
ENCODING 8320
SWIDTH 600 0
DWIDTH 17 0
BBX 9 11 4 0
BITMAP
3E00
7F00
E380
E380
EB80
EB80
E380
E380
E380
7F00
3E00
ENDCHAR
STARTCHAR uni2081
ENCODING 8321
SWIDTH 600 0
DWIDTH 17 0
BBX 8 11 5 0
BITMAP
7C
FC
DC
1C
1C
1C
1C
1C
1C
FF
FF
ENDCHAR
STARTCHAR uni2082
ENCODING 8322
SWIDTH 600 0
DWIDTH 17 0
BBX 9 11 4 0
BITMAP
3E00
7F00
E780
0380
0700
0F00
1E00
3800
7000
FF80
FF80
ENDCHAR
STARTCHAR uni2083
ENCODING 8323
SWIDTH 600 0
DWIDTH 17 0
BBX 9 11 4 0
BITMAP
3E00
FF00
6780
0780
1F00
1E00
0700
4380
6780
FF00
3E00
ENDCHAR
STARTCHAR uni2084
ENCODING 8324
SWIDTH 600 0
DWIDTH 17 0
BBX 9 11 4 0
BITMAP
0F00
1F00
1F00
3700
7700
6700
C700
FF80
FF80
0700
0700
ENDCHAR
STARTCHAR uni2085
ENCODING 8325
SWIDTH 600 0
DWIDTH 17 0
BBX 9 11 4 0
BITMAP
7F00
7F00
6000
6000
6E00
FF00
6380
4380
6380
FF00
3E00
ENDCHAR
STARTCHAR uni2086
ENCODING 8326
SWIDTH 600 0
DWIDTH 17 0
BBX 9 11 4 0
BITMAP
0F00
3E00
3800
7000
FF00
EF80
F380
E380
E380
7F00
3E00
ENDCHAR
STARTCHAR uni2087
ENCODING 8327
SWIDTH 600 0
DWIDTH 17 0
BBX 8 11 5 0
BITMAP
FF
FF
C7
CF
0E
0E
1C
1C
3C
38
78
ENDCHAR
STARTCHAR uni2088
ENCODING 8328
SWIDTH 600 0
DWIDTH 17 0
BBX 9 11 4 0
BITMAP
3E00
7F00
E380
6300
3E00
7F00
E380
E380
E380
7F00
3E00
ENDCHAR
STARTCHAR uni2089
ENCODING 8329
SWIDTH 600 0
DWIDTH 17 0
BBX 9 11 4 0
BITMAP
3E00
7F00
E380
E380
E380
FF80
7F80
0700
0F00
1E00
7C00
ENDCHAR
STARTCHAR uni20A1
ENCODING 8353
SWIDTH 600 0
DWIDTH 17 0
BBX 15 26 1 -3
BITMAP
0330
0330
0330
07E0
1FF8
3FFC
7F7E
7B7E
7368
F760
F660
F660
F660
F660
F660
F660
F6E0
76C8
7EDE
7EFE
3FFC
1FF8
07E0
0EC0
0CC0
0CC0
ENDCHAR
STARTCHAR uni20A4
ENCODING 8356
SWIDTH 600 0
DWIDTH 17 0
BBX 15 20 1 0
BITMAP
07F0
1FFC
3FFE
3E1C
7C08
7C00
7C00
FFE0
FFE0
FFE0
1E00
FFE0
FFE0
FFE0
1E00
3C00
7800
7FFE
7FFE
7FFE
ENDCHAR
STARTCHAR uni20A6
ENCODING 8358
SWIDTH 600 0
DWIDTH 17 0
BBX 17 20 0 0
BITMAP
3E0E00
3F0E00
3F0E00
3F0E00
3F8E00
3B8E00
FBFF80
FBFF80
F9FF80
39CE00
FFCF80
FFEF80
FFEF80
38EE00
38EE00
387E00
387E00
387E00
387E00
383E00
ENDCHAR
STARTCHAR uni20A8
ENCODING 8360
SWIDTH 600 0
DWIDTH 17 0
BBX 16 20 1 0
BITMAP
FE00
FF00
FF80
E380
E380
E380
E39F
E3BF
FFFF
FF78
FE78
EF7C
EF3C
E71E
E78F
E78F
E7CF
E3FF
E1FE
E0FC
ENDCHAR
STARTCHAR uni20A9
ENCODING 8361
SWIDTH 600 0
DWIDTH 17 0
BBX 17 20 0 0
BITMAP
780F00
780F00
780F00
380E00
FFFF80
FFFF80
FFFF80
3B6E00
3B6E00
FB6F80
FB6F80
FB6F80
3B6E00
3B6E00
3B6E00
3B6E00
3B3E00
3E3E00
3E3E00
3E3E00
ENDCHAR
STARTCHAR uni20AA
ENCODING 8362
SWIDTH 600 0
DWIDTH 17 0
BBX 15 20 1 0
BITMAP
FF0E
FFCE
FFCE
E1EE
E0EE
EEEE
EEEE
EEEE
EEEE
EEEE
EEEE
EEEE
EEEE
EEEE
EEEE
EE0E
EE1E
EFFE
EFFC
EFF0
ENDCHAR
STARTCHAR uni20AB
ENCODING 8363
SWIDTH 600 0
DWIDTH 17 0
BBX 14 21 2 0
BITMAP
0078
07FC
07FC
07FC
0078
3E78
7F78
FF78
F8F8
F078
F078
F078
F078
F8F8
7F78
7F78
3E78
0000
FFFC
FFFC
FFFC
ENDCHAR
STARTCHAR Euro
ENCODING 8364
SWIDTH 600 0
DWIDTH 17 0
BBX 15 20 1 0
BITMAP
07F0
1FFC
3FFE
3E1E
7808
7800
FFE0
FFE0
FFE0
F800
F800
FFE0
FFE0
FFE0
7800
7808
3E1E
3FFE
1FFC
07F0
ENDCHAR
STARTCHAR uni20AD
ENCODING 8365
SWIDTH 600 0
DWIDTH 17 0
BBX 17 20 0 0
BITMAP
3C0F80
3C1F00
3C1E00
3C3E00
3C7C00
3C7800
3CF800
3CF000
FFFF00
FFFF00
FFFF00
3CF000
3CF800
3C7800
3C7C00
3C3E00
3C3E00
3C1F00
3C0F00
3C0F80
ENDCHAR
STARTCHAR uni20AE
ENCODING 8366
SWIDTH 600 0
DWIDTH 17 0
BBX 16 20 1 0
BITMAP
FFFF
FFFF
FFFF
07C0
07C0
07C8
07F8
07F8
07F0
1FC0
3FC8
3FF8
27F8
07F0
1FC0
3FC0
3FC0
27C0
07C0
07C0
ENDCHAR
STARTCHAR uni20B1
ENCODING 8369
SWIDTH 600 0
DWIDTH 17 0
BBX 16 20 1 0
BITMAP
7FE0
7FF0
7FF8
787C
FFFF
FFFF
FFFF
783C
FFFF
FFFF
FFFF
787C
7FF8
7FF8
7FE0
7800
7800
7800
7800
7800
ENDCHAR
STARTCHAR uni20B2
ENCODING 8370
SWIDTH 600 0
DWIDTH 17 0
BBX 15 26 1 -3
BITMAP
00E0
00E0
01E0
07E0
1FF0
3FF8
7DFC
79DC
F1D0
F180
F180
F380
F3FE
F3FE
F3FE
F39E
F31E
F31E
7F3C
7F3C
3FF8
1FF0
0FE0
0F00
0F00
0E00
ENDCHAR
STARTCHAR uni20B4
ENCODING 8372
SWIDTH 600 0
DWIDTH 17 0
BBX 15 20 1 0
BITMAP
0FC0
3FF0
3FF8
1878
1078
0078
FFFE
FFFE
FFFE
03E0
0F80
FFFE
FFFE
FFFE
7800
7810
7C38
3FFC
1FF8
07E0
ENDCHAR
STARTCHAR uni20B5
ENCODING 8373
SWIDTH 600 0
DWIDTH 17 0
BBX 15 26 1 -3
BITMAP
00E0
00E0
00E0
07E0
1FF8
3FFC
7DFC
79DE
79D8
F1C0
F180
F180
F380
F380
F380
F380
F380
FB1E
7B1E
7F3C
3FFC
1FF8
07E0
0700
0F00
0F00
ENDCHAR
STARTCHAR uni20B8
ENCODING 8376
SWIDTH 600 0
DWIDTH 17 0
BBX 15 20 1 0
BITMAP
FFFE
FFFE
FFFE
0000
0000
FFFE
FFFE
FFFE
07C0
07C0
07C0
07C0
07C0
07C0
07C0
07C0
07C0
07C0
07C0
07C0
ENDCHAR
STARTCHAR uni20B9
ENCODING 8377
SWIDTH 600 0
DWIDTH 17 0
BBX 15 20 1 0
BITMAP
FFFE
FFFE
FFFE
03C0
01E0
FFFE
FFFE
FFFE
01E0
03E0
FFC0
FF80
FF00
0F80
07C0
03E0
03E0
01F0
00F8
007C
ENDCHAR
STARTCHAR uni20BA
ENCODING 8378
SWIDTH 600 0
DWIDTH 17 0
BBX 16 20 1 0
BITMAP
3C00
3C00
3C00
3C20
3DE0
3FE0
3FC0
7E20
FDE0
FFE0
BFC0
7E00
FC1F
FC1E
BC1E
3C1E
3C3E
3FFC
3FF8
3FE0
ENDCHAR
STARTCHAR uni20BD
ENCODING 8381
SWIDTH 600 0
DWIDTH 17 0
BBX 15 20 1 0
BITMAP
7FF0
7FF8
7FFC
7C3E
7C3E
7C1E
7C1E
7C3E
7C3E
FFFC
FFF8
FFF0
7C00
FFF0
FFF0
FFF0
7C00
7C00
7C00
7C00
ENDCHAR
STARTCHAR uni20BF
ENCODING 8383
SWIDTH 600 0
DWIDTH 17 0
BBX 14 26 2 -3
BITMAP
1980
1980
1980
FFC0
FFF0
FFF8
F0F8
F078
F078
F078
F0F8
FFE0
FFE0
FFF0
F078
F07C
F07C
F07C
F07C
F078
FFF8
FFF0
FFC0
1980
1980
1980
ENDCHAR
STARTCHAR uni2113
ENCODING 8467
SWIDTH 600 0
DWIDTH 17 0
BBX 15 21 1 0
BITMAP
07E0
0FF0
1FF8
1E78
1E78
1E78
1E78
1E78
1EF0
1EF0
1FE0
1FC0
3F80
7F00
FE00
7E10
5E1C
1E3E
1FFC
0FF8
03E0
ENDCHAR
STARTCHAR uni2116
ENCODING 8470
SWIDTH 600 0
DWIDTH 17 0
BBX 17 20 0 0
BITMAP
F98E00
F99F00
FD9980
FDB980
FDB980
FDB980
FDB980
FD9980
ED9F00
ED8E00
ED8000
EDBF80
EDBF80
ED8000
ED8000
ED8000
EF8000
EF8000
EF8000
EF8000
ENDCHAR
STARTCHAR trademark
ENCODING 8482
SWIDTH 600 0
DWIDTH 17 0
BBX 16 8 0 12
BITMAP
FFC7
39E7
39EF
39BB
39BB
3993
3993
3983
ENDCHAR
STARTCHAR Omega
ENCODING 8486
SWIDTH 600 0
DWIDTH 17 0
BBX 15 20 1 0
BITMAP
0FE0
3FF8
7FFC
7C7C
F83E
F83E
F01E
F01E
F01E
F01E
F01E
F83E
F83E
783C
7C7C
3EF8
1EF0
FEFE
FEFE
FEFE
ENDCHAR
STARTCHAR uni212E
ENCODING 8494
SWIDTH 600 0
DWIDTH 17 0
BBX 15 20 1 0
BITMAP
07C0
1830
3018
701C
701C
F01E
F01E
F01E
F01E
FFFE
F000
F000
F000
F000
F000
7004
700E
3008
1830
07C0
ENDCHAR
STARTCHAR uni2150
ENCODING 8528
SWIDTH 600 0
DWIDTH 17 0
BBX 17 20 0 0
BITMAP
3C0380
FC0700
5C0700
1C0E00
1C0E00
1C1C00
1C1C00
1C3800
7F7000
7F0000
007F80
077F80
0E6380
1C6700
1C0700
380600
380E00
700E00
701C00
E01C00
ENDCHAR
STARTCHAR uni2151
ENCODING 8529
SWIDTH 600 0
DWIDTH 17 0
BBX 17 20 0 0
BITMAP
3C0380
FC0700
5C0700
1C0E00
1C0E00
1C1C00
1C1C00
1C3800
7F7000
7F0000
001E00
077F00
0E7380
1C6380
1C7380
387F80
383B00
700700
700E00
E07C00
ENDCHAR
STARTCHAR uni2153
ENCODING 8531
SWIDTH 600 0
DWIDTH 17 0
BBX 17 20 0 0
BITMAP
3C0380
FC0700
5C0700
1C0E00
1C0E00
1C1C00
1C1C00
1C3800
7F7000
7F0000
003E00
077F00
0E2380
1C0380
1C0F00
380F00
380380
702380
707F00
E03E00
ENDCHAR
STARTCHAR uni2154
ENCODING 8532
SWIDTH 600 0
DWIDTH 17 0
BBX 17 20 0 0
BITMAP
3C0380
7E0700
E70700
070E00
060E00
1E1C00
381C00
703800
FF7000
FF0000
003E00
077F00
0E2380
1C0380
1C0F00
380F00
380380
702380
707F00
E03E00
ENDCHAR
STARTCHAR uni2155
ENCODING 8533
SWIDTH 600 0
DWIDTH 17 0
BBX 17 20 0 0
BITMAP
3C0380
FC0700
5C0700
1C0E00
1C0E00
1C1C00
1C1C00
1C3800
7F7000
7F0000
003F00
077F00
0E6000
1C6F00
1C7F80
387380
380380
706380
707F00
E01E00
ENDCHAR
STARTCHAR uni2156
ENCODING 8534
SWIDTH 600 0
DWIDTH 17 0
BBX 17 20 0 0
BITMAP
3C0380
7E0700
E70700
070E00
060E00
1E1C00
381C00
703800
FF7000
FF0000
003F00
077F00
0E6000
1C6F00
1C7F80
387380
380380
706380
707F00
E01E00
ENDCHAR
STARTCHAR uni2157
ENCODING 8535
SWIDTH 600 0
DWIDTH 17 0
BBX 17 20 0 0
BITMAP
3E0380
7F0700
E70700
070E00
1E0E00
1E1C00
071C00
673800
FF7000
3E0000
003F00
077F00
0E6000
1C6F00
1C7F80
387380
380380
706380
707F00
E01E00
ENDCHAR
STARTCHAR uni2158
ENCODING 8536
SWIDTH 600 0
DWIDTH 17 0
BBX 17 20 0 0
BITMAP
0E0380
1E0700
360700
260E00
660E00
C61C00
FF1C00
FF3800
067000
060000
003F00
077F00
0E6000
1C6F00
1C7F80
387380
380380
706380
707F00
E01E00
ENDCHAR
STARTCHAR uni2159
ENCODING 8537
SWIDTH 600 0
DWIDTH 17 0
BBX 17 20 0 0
BITMAP
3C0380
FC0700
5C0700
1C0E00
1C0E00
1C1C00
1C1C00
1C3800
7F7000
7F0000
000F00
071C00
0E3800
1C7F00
1C6F80
387380
387380
707380
703F00
E01E00
ENDCHAR
STARTCHAR uni215A
ENCODING 8538
SWIDTH 600 0
DWIDTH 17 0
BBX 17 20 0 0
BITMAP
7F0380
7F0700
600700
7E0E00
5F0E00
671C00
031C00
673800
FF7000
3C0000
000F00
071C00
0E3800
1C7F00
1C6F80
387380
387380
707380
703F00
E01E00
ENDCHAR
STARTCHAR uni215B
ENCODING 8539
SWIDTH 600 0
DWIDTH 17 0
BBX 17 20 0 0
BITMAP
3C0380
FC0700
5C0700
1C0E00
1C0E00
1C1C00
1C1C00
1C3800
7F7000
7F0000
003E00
077F00
0E7380
1C7300
1C3E00
383F00
387380
707380
707F00
E03E00
ENDCHAR
STARTCHAR uni215C
ENCODING 8540
SWIDTH 600 0
DWIDTH 17 0
BBX 17 20 0 0
BITMAP
3E0380
7F0700
E70700
070E00
1E0E00
1E1C00
071C00
673800
FF7000
3E0000
003E00
077F00
0E7380
1C7300
1C3E00
383F00
387380
707380
707F00
E03E00
ENDCHAR
STARTCHAR uni215D
ENCODING 8541
SWIDTH 600 0
DWIDTH 17 0
BBX 17 20 0 0
BITMAP
7F0380
7F0700
600700
7E0E00
5F0E00
671C00
031C00
673800
FF7000
3C0000
003E00
077F00
0E7380
1C7300
1C3E00
383F00
387380
707380
707F00
E03E00
ENDCHAR
STARTCHAR uni215E
ENCODING 8542
SWIDTH 600 0
DWIDTH 17 0
BBX 17 20 0 0
BITMAP
FF0380
FF0700
E70700
E70E00
EE0E00
0E1C00
0C1C00
1C3800
187000
380000
003E00
077F00
0E7380
1C7300
1C3E00
383F00
387380
707380
707F00
E03E00
ENDCHAR
STARTCHAR uni2190
ENCODING 8592
SWIDTH 600 0
DWIDTH 17 0
BBX 16 13 0 4
BITMAP
0300
0780
0F80
1F00
3E00
7FFF
FFFF
7FFF
3E00
1F00
0F80
0780
0300
ENDCHAR
STARTCHAR uni2191
ENCODING 8593
SWIDTH 600 0
DWIDTH 17 0
BBX 13 20 2 0
BITMAP
0200
0700
0F80
1FC0
3FE0
7FF0
F778
E738
4710
0700
0700
0700
0700
0700
0700
0700
0700
0700
0700
0700
ENDCHAR
STARTCHAR uni2192
ENCODING 8594
SWIDTH 600 0
DWIDTH 17 0
BBX 16 13 1 4
BITMAP
00C0
01E0
01F0
00F8
007C
FFFE
FFFF
FFFE
007C
00F8
01F0
01E0
00C0
ENDCHAR
STARTCHAR uni2193
ENCODING 8595
SWIDTH 600 0
DWIDTH 17 0
BBX 13 20 2 0
BITMAP
0700
0700
0700
0700
0700
0700
0700
0700
0700
0700
0700
4710
E738
F778
7FF0
3FE0
1FC0
0F80
0700
0200
ENDCHAR
STARTCHAR uni2194
ENCODING 8596
SWIDTH 600 0
DWIDTH 17 0
BBX 17 11 0 5
BITMAP
063000
0F7800
1F7C00
3E3E00
7FFF00
FFFF80
7FFF00
3E3E00
1F7C00
0F7800
063000
ENDCHAR
STARTCHAR uni2195
ENCODING 8597
SWIDTH 600 0
DWIDTH 17 0
BBX 13 20 2 0
BITMAP
0200
0700
0F80
1FC0
3FE0
7FF0
F778
E738
4720
0700
0700
4720
E738
F778
7FF0
3FE0
1FC0
0F80
0700
0200
ENDCHAR
STARTCHAR uni2196
ENCODING 8598
SWIDTH 600 0
DWIDTH 17 0
BBX 16 15 1 3
BITMAP
FFC0
FFC0
FFC0
FC00
FE00
FF00
EF80
E7C0
E3E0
E1F0
00F8
007C
003E
001F
000C
ENDCHAR
STARTCHAR uni2197
ENCODING 8599
SWIDTH 600 0
DWIDTH 17 0
BBX 16 15 0 3
BITMAP
03FF
03FF
03FF
003F
007F
00FF
01F7
03E7
07C7
0F87
1F00
3E00
7C00
F800
3000
ENDCHAR
STARTCHAR uni2198
ENCODING 8600
SWIDTH 600 0
DWIDTH 17 0
BBX 16 15 0 2
BITMAP
3000
7800
FC00
3E00
1F00
0F87
07C7
03E7
01F7
00FF
007F
003F
03FF
03FF
03FF
ENDCHAR
STARTCHAR uni2199
ENCODING 8601
SWIDTH 600 0
DWIDTH 17 0
BBX 16 15 1 2
BITMAP
000C
001E
003F
007C
00F8
E1F0
E3E0
E7C0
EF80
FF00
FE00
FC00
FFC0
FFC0
FFC0
ENDCHAR
STARTCHAR uni21A9
ENCODING 8617
SWIDTH 600 0
DWIDTH 17 0
BBX 17 16 0 2
BITMAP
003C00
003E00
003F00
020F80
070780
0F8780
1F0780
3E0F80
7FFF00
FFFF00
7FFC00
3E0000
1F0000
0F8000
070000
020000
ENDCHAR
STARTCHAR uni21AA
ENCODING 8618
SWIDTH 600 0
DWIDTH 17 0
BBX 17 16 0 2
BITMAP
1E0000
3E0000
7E0000
F82000
F07000
F0F800
F07C00
F83E00
7FFF00
7FFF80
1FFF00
003E00
007C00
00F800
007000
002000
ENDCHAR
STARTCHAR uni21B0
ENCODING 8624
SWIDTH 600 0
DWIDTH 17 0
BBX 15 20 1 0
BITMAP
0200
0700
0F80
1E00
3C00
7FFE
FFFE
7FFE
3C1E
1E1E
0F1E
079E
021E
001E
001E
001E
001E
001E
001E
001E
ENDCHAR
STARTCHAR uni21B1
ENCODING 8625
SWIDTH 600 0
DWIDTH 17 0
BBX 16 20 1 0
BITMAP
0080
01C0
03E0
00F0
0078
FFFC
FFFF
FFFE
F078
F0F0
F1E0
F3C0
F080
F000
F000
F000
F000
F000
F000
F000
ENDCHAR
STARTCHAR uni21B2
ENCODING 8626
SWIDTH 600 0
DWIDTH 17 0
BBX 15 20 1 0
BITMAP
001E
001E
001E
001E
001E
001E
001E
021E
071E
0F9E
1E1E
3C1E
7FFE
FFFE
7FFE
3C00
1E00
0F00
0780
0200
ENDCHAR
STARTCHAR uni21B3
ENCODING 8627
SWIDTH 600 0
DWIDTH 17 0
BBX 16 20 1 0
BITMAP
F000
F000
F000
F000
F000
F000
F000
F080
F1C0
F3E0
F0F0
F078
FFFC
FFFF
FFFE
0078
00F0
01E0
03C0
0080
ENDCHAR
STARTCHAR uni21B6
ENCODING 8630
SWIDTH 600 0
DWIDTH 17 0
BBX 17 18 0 1
BITMAP
00F800
01FE00
03FF00
07CF00
078780
078780
078780
078000
078000
279000
77B800
FFFC00
7FF000
3FE000
1FC000
0F8000
070000
020000
ENDCHAR
STARTCHAR uni21B7
ENCODING 8631
SWIDTH 600 0
DWIDTH 17 0
BBX 17 18 0 1
BITMAP
1F8000
3FC000
7FE000
79F000
F0F000
F0F000
F0F000
00F000
00F000
04F200
0EF700
1FFF80
07FF00
03FE00
01FC00
00F800
007000
002000
ENDCHAR
STARTCHAR uni21BA
ENCODING 8634
SWIDTH 600 0
DWIDTH 17 0
BBX 17 20 0 0
BITMAP
01FF80
01FF80
01FF80
11F800
19FC00
3DDE00
39CF00
79CF00
71C700
700700
F00780
F00780
700700
700700
780F00
780F00
3E1E00
3FFC00
1FF800
07E000
ENDCHAR
STARTCHAR uni21BB
ENCODING 8635
SWIDTH 600 0
DWIDTH 17 0
BBX 17 20 0 0
BITMAP
FFC000
FFC000
FFC000
0FC800
1FCC00
3DDE00
79DE00
79CF00
71CF00
700700
F00700
F00780
700700
700700
780F00
780F00
3C3E00
1FFE00
0FFC00
03F000
ENDCHAR
STARTCHAR uni21C4
ENCODING 8644
SWIDTH 600 0
DWIDTH 17 0
BBX 17 25 0 -2
BITMAP
006000
00F000
00F800
007C00
003E00
7FFF00
7FFF80
7FFF00
003E00
007C00
00F800
00F000
036000
078000
0F8000
1F0000
3E0000
7FFF00
FFFF00
7FFF00
3E0000
1F0000
0F8000
078000
030000
ENDCHAR
STARTCHAR uni21C6
ENCODING 8646
SWIDTH 600 0
DWIDTH 17 0
BBX 17 25 0 -2
BITMAP
030000
078000
0F8000
1F0000
3E0000
7FFF00
FFFF00
7FFF00
3E0000
1F0000
0F8000
078000
036000
00F000
00F800
007C00
003E00
7FFF00
7FFF80
7FFF00
003E00
007C00
00F800
00F000
006000
ENDCHAR
STARTCHAR partialdiff
ENCODING 8706
SWIDTH 600 0
DWIDTH 17 0
BBX 15 20 1 0
BITMAP
3F80
0FC0
03E0
01F0
00F8
1F78
3FBC
7FFC
7C7E
F83E
F83E
F01E
F01E
F01E
F83E
783E
7C7C
3FF8
1FF0
0FE0
ENDCHAR
STARTCHAR Delta
ENCODING 8710
SWIDTH 600 0
DWIDTH 17 0
BBX 15 20 1 0
BITMAP
0FE0
0FE0
0FE0
1FF0
1EF0
1EF0
1EF0
3EF8
3C78
3C78
7C7C
7C7C
783C
783C
F83E
F83E
F03E
FFFE
FFFE
FFFE
ENDCHAR
STARTCHAR product
ENCODING 8719
SWIDTH 600 0
DWIDTH 17 0
BBX 14 20 2 0
BITMAP
FFFC
FFFC
FFFC
F07C
F07C
F07C
F07C
F07C
F07C
F07C
F07C
F07C
F07C
F07C
F07C
F07C
F07C
F07C
F07C
F07C
ENDCHAR
STARTCHAR summation
ENCODING 8721
SWIDTH 600 0
DWIDTH 17 0
BBX 14 26 1 -6
BITMAP
FFFC
FFFC
FFFC
FC00
7C00
3E00
1F00
1F80
0F80
07C0
03E0
03E0
01E0
03E0
03E0
07C0
0F80
0F80
1F00
3F00
3E00
7C00
FC00
FFFC
FFFC
FFFC
ENDCHAR
STARTCHAR minus
ENCODING 8722
SWIDTH 600 0
DWIDTH 17 0
BBX 14 3 2 7
BITMAP
FFFC
FFFC
FFFC
ENDCHAR
STARTCHAR radical
ENCODING 8730
SWIDTH 600 0
DWIDTH 17 0
BBX 17 20 0 0
BITMAP
000780
000780
000700
000F00
000F00
F80E00
FC0E00
FC1E00
1C1E00
1E1C00
1E3C00
0E3C00
0E3800
0F3800
0F7800
077000
077000
07F000
03F000
03E000
ENDCHAR
STARTCHAR infinity
ENCODING 8734
SWIDTH 600 0
DWIDTH 17 0
BBX 17 10 0 4
BITMAP
3E1E00
7F3F00
7F7F00
F3E780
F1C380
F1C780
F3E780
7F7F00
7E7F00
3C3E00
ENDCHAR
STARTCHAR integral
ENCODING 8747
SWIDTH 600 0
DWIDTH 17 0
BBX 15 27 1 -6
BITMAP
01FE
03FE
07FE
0780
0780
0780
0780
0780
0780
0780
0780
0780
0780
0780
0780
0780
0780
0780
0780
0780
0780
0780
0780
0780
FF80
FF00
FE00
ENDCHAR
STARTCHAR approxequal
ENCODING 8776
SWIDTH 600 0
DWIDTH 17 0
BBX 15 11 1 3
BITMAP
3E0C
7F9E
FFFE
F3FC
6078
0000
3E0C
7F9E
FFFE
F3FC
6078
ENDCHAR
STARTCHAR notequal
ENCODING 8800
SWIDTH 600 0
DWIDTH 17 0
BBX 13 16 2 1
BITMAP
0078
00F0
00E0
FFF8
FFF8
FFF8
0780
0700
0700
0F00
FFF8
FFF8
FFF8
3800
7800
F000
ENDCHAR
STARTCHAR lessequal
ENCODING 8804
SWIDTH 600 0
DWIDTH 17 0
BBX 13 17 2 0
BITMAP
0018
00F8
07F8
1FF0
FF80
FC00
F800
FF00
7FE0
0FF8
03F8
0078
0008
0000
FFF8
FFF8
FFF8
ENDCHAR
STARTCHAR greaterequal
ENCODING 8805
SWIDTH 600 0
DWIDTH 17 0
BBX 13 17 2 0
BITMAP
C000
F800
FF00
7FE0
0FF8
01F8
00F8
07F8
3FF0
FF80
FE00
F000
8000
0000
FFF8
FFF8
FFF8
ENDCHAR
STARTCHAR lozenge
ENCODING 9674
SWIDTH 600 0
DWIDTH 17 0
BBX 15 20 1 0
BITMAP
0380
07C0
0FE0
0FE0
1EF0
3C78
3C78
783C
701C
F01E
F01E
701C
783C
3C78
3C78
1EF0
0FE0
0FE0
07C0
0380
ENDCHAR
STARTCHAR uni2713
ENCODING 10003
SWIDTH 600 0
DWIDTH 17 0
BBX 17 21 0 0
BITMAP
000600
000780
000F80
000F00
000F00
001F00
301E00
F03E00
F83C00
783C00
787C00
7C7800
3CF800
3CF000
3CF000
1FF000
1FE000
1FE000
0FC000
0FC000
0FC000
ENDCHAR
STARTCHAR uni274C
ENCODING 10060
SWIDTH 600 0
DWIDTH 17 0
BBX 17 22 0 -1
BITMAP
100400
700700
F80F80
7C1F00
3C1E00
3E3E00
1F7C00
0F7800
07F800
07F000
03E000
03E000
07F000
0FF800
0F7800
1F7C00
3E3E00
3C1E00
7C1F00
F80F80
700700
200400
ENDCHAR
STARTCHAR uni2B0E
ENCODING 11022
SWIDTH 600 0
DWIDTH 17 0
BBX 16 15 1 2
BITMAP
FFE0
FFE0
FFE0
01E0
01E0
01E0
09E6
1DEF
3FFF
0FFE
07FC
03F8
01F0
00E0
0040
ENDCHAR
STARTCHAR uni2B0F
ENCODING 11023
SWIDTH 600 0
DWIDTH 17 0
BBX 16 15 1 3
BITMAP
0040
00E0
01F0
03F8
07FC
0FFE
1FFF
3DEF
09E6
01E0
01E0
01E0
FFE0
FFE0
FFE0
ENDCHAR
STARTCHAR uni2B10
ENCODING 11024
SWIDTH 600 0
DWIDTH 17 0
BBX 16 15 0 2
BITMAP
07FF
07FF
07FF
0780
0780
0780
6790
F7B8
7FFC
3FF0
1FE0
0FC0
0780
0300
0200
ENDCHAR
STARTCHAR uni2B11
ENCODING 11025
SWIDTH 600 0
DWIDTH 17 0
BBX 16 15 0 3
BITMAP
0200
0700
0F80
1FC0
3FE0
7FF0
FFF8
F7BC
6790
0780
0780
0780
07FF
07FF
07FF
ENDCHAR
STARTCHAR dieresisacute
ENCODING 63191
SWIDTH 0 0
DWIDTH 0 0
BBX 12 12 -6 17
BITMAP
0200
0380
03C0
0780
0700
0F00
0600
79E0
79E0
F9F0
79E0
78E0
ENDCHAR
STARTCHAR dieresisgrave
ENCODING 63192
SWIDTH 0 0
DWIDTH 0 0
BBX 12 12 -6 17
BITMAP
0800
1C00
3C00
1E00
0E00
0F00
0600
79E0
79E0
F9F0
79E0
78E0
ENDCHAR
STARTCHAR fi
ENCODING 64257
SWIDTH 600 0
DWIDTH 17 0
BBX 15 22 1 0
BITMAP
003C
1F3E
3F3E
7F3E
783C
7800
7800
FFFC
FFFC
FFFC
783C
783C
783C
783C
783C
783C
783C
783C
783C
783C
783C
783C
ENDCHAR
STARTCHAR fl
ENCODING 64258
SWIDTH 600 0
DWIDTH 17 0
BBX 14 21 1 0
BITMAP
1F3C
3F3C
7F3C
783C
783C
783C
FF3C
FF3C
FF3C
783C
783C
783C
783C
783C
783C
783C
783C
783C
783C
783C
783C
ENDCHAR
STARTCHAR .notdef
ENCODING -1
SWIDTH 600 0
DWIDTH 17 0
BBX 15 23 1 0
BITMAP
FFFE
FFFE
FFFE
E00E
E00E
E00E
E00E
E00E
E00E
E00E
E00E
E00E
E00E
E00E
E00E
E00E
E00E
E00E
E00E
E00E
FFFE
FFFE
FFFE
ENDCHAR
STARTCHAR a.alt01
ENCODING -1
SWIDTH 600 0
DWIDTH 17 0
BBX 15 15 1 0
BITMAP
1F3E
3FBE
7FFE
7C7E
F83E
F03E
F03E
F03E
F03E
F03E
F83E
7C7E
7FFE
3FBE
1F3E
ENDCHAR
STARTCHAR g.alt01
ENCODING -1
SWIDTH 600 0
DWIDTH 17 0
BBX 14 21 1 -6
BITMAP
1F3C
3FBC
7FFC
7C7C
F83C
F83C
F03C
F03C
F03C
F83C
F83C
7C7C
7FFC
3FBC
1F3C
003C
203C
387C
7FF8
7FF0
1FC0
ENDCHAR
STARTCHAR g.alt02
ENCODING -1
SWIDTH 600 0
DWIDTH 17 0
BBX 16 21 1 -6
BITMAP
0FFF
3FFF
3FFF
787C
783C
783C
787C
7FF8
3FF0
1FE0
3000
7000
7FF8
7FFE
1FFE
701F
F00F
F01F
FFFE
7FFC
1FF0
ENDCHAR
STARTCHAR zero.alt01
ENCODING -1
SWIDTH 600 0
DWIDTH 17 0
BBX 15 20 1 0
BITMAP
0FE0
1FF0
3FF8
7C7C
F83C
F03E
F07E
F0FE
F1FE
F3DE
F79E
FF1E
FE1E
FC1E
F81E
F83C
7C7C
3FF8
1FF0
0FE0
ENDCHAR
STARTCHAR zero.alt02
ENCODING -1
SWIDTH 600 0
DWIDTH 17 0
BBX 15 20 1 0
BITMAP
0FE0
1FF0
3FF8
7C7C
F83C
F83E
F01E
F01E
F01E
F01E
F01E
F01E
F01E
F01E
F83E
F83C
7C7C
3FF8
1FF0
0FE0
ENDCHAR
STARTCHAR aacute.alt01
ENCODING -1
SWIDTH 600 0
DWIDTH 17 0
BBX 15 24 1 0
BITMAP
0080
01E0
01F0
03C0
03C0
0780
0100
0000
0000
1F3E
3FBE
7FFE
7C7E
F83E
F03E
F03E
F03E
F03E
F03E
F83E
7C7E
7FFE
3FBE
1F3E
ENDCHAR
STARTCHAR abreve.alt01
ENCODING -1
SWIDTH 600 0
DWIDTH 17 0
BBX 15 23 1 0
BITMAP
1030
3878
3C70
1FF0
0FE0
07C0
0000
0000
1F3E
3FBE
7FFE
7C7E
F83E
F03E
F03E
F03E
F03E
F03E
F83E
7C7E
7FFE
3FBE
1F3E
ENDCHAR
STARTCHAR acircumflex.alt01
ENCODING -1
SWIDTH 600 0
DWIDTH 17 0
BBX 15 23 1 0
BITMAP
07C0
0FC0
1FE0
3CF0
3878
1020
0000
0000
1F3E
3FBE
7FFE
7C7E
F83E
F03E
F03E
F03E
F03E
F03E
F83E
7C7E
7FFE
3FBE
1F3E
ENDCHAR
STARTCHAR adieresis.alt01
ENCODING -1
SWIDTH 600 0
DWIDTH 17 0
BBX 15 22 1 0
BITMAP
3C70
3CF8
3CF8
3CF8
3C70
0000
0000
1F3E
3FBE
7FFE
7C7E
F83E
F03E
F03E
F03E
F03E
F03E
F83E
7C7E
7FFE
3FBE
1F3E
ENDCHAR
STARTCHAR uni1EA1.alt01
ENCODING -1
SWIDTH 600 0
DWIDTH 17 0
BBX 15 22 1 -7
BITMAP
1F3E
3FBE
7FFE
7C7E
F83E
F03E
F03E
F03E
F03E
F03E
F83E
7C7E
7FFE
3FBE
1F3E
0000
0000
0380
07C0
07C0
07C0
0380
ENDCHAR
STARTCHAR agrave.alt01
ENCODING -1
SWIDTH 600 0
DWIDTH 17 0
BBX 15 24 1 0
BITMAP
0200
0E00
1F00
0F00
0780
0380
0300
0000
0000
1F3E
3FBE
7FFE
7C7E
F83E
F03E
F03E
F03E
F03E
F03E
F83E
7C7E
7FFE
3FBE
1F3E
ENDCHAR
STARTCHAR uni1EA3.alt01
ENCODING -1
SWIDTH 600 0
DWIDTH 17 0
BBX 15 23 1 0
BITMAP
0FC0
0FE0
0FE0
01E0
01C0
03C0
0180
0000
1F3E
3FBE
7FFE
7C7E
F83E
F03E
F03E
F03E
F03E
F03E
F83E
7C7E
7FFE
3FBE
1F3E
ENDCHAR
STARTCHAR amacron.alt01
ENCODING -1
SWIDTH 600 0
DWIDTH 17 0
BBX 15 21 1 0
BITMAP
1FF0
1FF0
1FF0
0000
0000
0000
1F3E
3FBE
7FFE
7C7E
F83E
F03E
F03E
F03E
F03E
F03E
F83E
7C7E
7FFE
3FBE
1F3E
ENDCHAR
STARTCHAR aogonek.alt01
ENCODING -1
SWIDTH 600 0
DWIDTH 17 0
BBX 15 21 1 -6
BITMAP
1F3E
3FBE
7FFE
7C7E
F83E
F03E
F03E
F03E
F03E
F03E
F83E
7C7E
7FFE
3FBE
1F3E
001C
0070
00E0
00E4
00FE
007C
ENDCHAR
STARTCHAR aring.alt01
ENCODING -1
SWIDTH 600 0
DWIDTH 17 0
BBX 15 24 1 0
BITMAP
0780
0FE0
1CE0
1C70
1C70
1CE0
0FE0
0780
0000
1F3E
3FBE
7FFE
7C7E
F83E
F03E
F03E
F03E
F03E
F03E
F83E
7C7E
7FFE
3FBE
1F3E
ENDCHAR
STARTCHAR aringacute.alt01
ENCODING -1
SWIDTH 600 0
DWIDTH 17 0
BBX 15 29 1 0
BITMAP
0040
00E0
03E0
0380
0100
0000
07C0
0FE0
1C70
1C70
1C70
0FE0
07C0
0000
1F3E
3FBE
7FFE
7C7E
F83E
F03E
F03E
F03E
F03E
F03E
F83E
7C7E
7FFE
3FBE
1F3E
ENDCHAR
STARTCHAR atilde.alt01
ENCODING -1
SWIDTH 600 0
DWIDTH 17 0
BBX 15 21 1 0
BITMAP
1E10
3FF0
3FF8
11E0
0000
0000
1F3E
3FBE
7FFE
7C7E
F83E
F03E
F03E
F03E
F03E
F03E
F83E
7C7E
7FFE
3FBE
1F3E
ENDCHAR
STARTCHAR uni1EAF.alt01
ENCODING -1
SWIDTH 600 0
DWIDTH 17 0
BBX 15 28 1 0
BITMAP
0080
00E0
01F0
01E0
03C0
0380
1110
3838
3C78
1FF0
1FE0
07C0
0000
1F3E
3FBE
7FFE
7C7E
F83E
F03E
F03E
F03E
F03E
F03E
F83E
7C7E
7FFE
3FBE
1F3E
ENDCHAR
STARTCHAR uni1EB7.alt01
ENCODING -1
SWIDTH 600 0
DWIDTH 17 0
BBX 15 30 1 -7
BITMAP
1030
3878
3C70
1FF0
0FE0
07C0
0000
0000
1F3E
3FBE
7FFE
7C7E
F83E
F03E
F03E
F03E
F03E
F03E
F83E
7C7E
7FFE
3FBE
1F3E
0000
0000
0380
07C0
07C0
07C0
0380
ENDCHAR
STARTCHAR uni1EB1.alt01
ENCODING -1
SWIDTH 600 0
DWIDTH 17 0
BBX 15 28 1 0
BITMAP
0400
0E00
1E00
0F00
0700
0380
1110
3838
3C78
1FF0
1FE0
07C0
0000
1F3E
3FBE
7FFE
7C7E
F83E
F03E
F03E
F03E
F03E
F03E
F83E
7C7E
7FFE
3FBE
1F3E
ENDCHAR
STARTCHAR uni1EB3.alt01
ENCODING -1
SWIDTH 600 0
DWIDTH 17 0
BBX 15 27 1 0
BITMAP
0FC0
0FC0
0FC0
01C0
01C0
1390
3938
3C78
1FF0
1FE0
07C0
0000
1F3E
3FBE
7FFE
7C7E
F83E
F03E
F03E
F03E
F03E
F03E
F83E
7C7E
7FFE
3FBE
1F3E
ENDCHAR
STARTCHAR uni1EB5.alt01
ENCODING -1
SWIDTH 600 0
DWIDTH 17 0
BBX 15 27 1 0
BITMAP
1F10
3FF0
3FF8
11F0
0000
1010
3838
3C78
1FF0
1FE0
07C0
0000
1F3E
3FBE
7FFE
7C7E
F83E
F03E
F03E
F03E
F03E
F03E
F83E
7C7E
7FFE
3FBE
1F3E
ENDCHAR
STARTCHAR uni1EA5.alt01
ENCODING -1
SWIDTH 600 0
DWIDTH 17 0
BBX 16 28 1 0
BITMAP
0004
000F
000F
001E
001C
003C
0398
07C0
0FE0
1EF0
3C78
1030
0000
1F3E
3FBE
7FFE
7C7E
F83E
F03E
F03E
F03E
F03E
F03E
F83E
7C7E
7FFE
3FBE
1F3E
ENDCHAR
STARTCHAR uni1EAD.alt01
ENCODING -1
SWIDTH 600 0
DWIDTH 17 0
BBX 15 30 1 -7
BITMAP
07C0
0FC0
1FE0
3CF0
3878
1020
0000
0000
1F3E
3FBE
7FFE
7C7E
F83E
F03E
F03E
F03E
F03E
F03E
F83E
7C7E
7FFE
3FBE
1F3E
0000
0000
0380
07C0
07C0
07C0
0380
ENDCHAR
STARTCHAR uni1EA7.alt01
ENCODING -1
SWIDTH 600 0
DWIDTH 17 0
BBX 16 28 0 0
BITMAP
2000
E000
F000
7800
7800
3C00
11C0
03E0
07F0
0F78
1E3C
0818
0000
0F9F
1FDF
3FFF
3E3F
7C1F
781F
781F
781F
781F
781F
7C1F
3E3F
3FFF
1FDF
0F9F
ENDCHAR
STARTCHAR uni1EA9.alt01
ENCODING -1
SWIDTH 600 0
DWIDTH 17 0
BBX 15 28 1 0
BITMAP
007C
007E
007E
000E
001C
001C
0388
07C0
0FE0
1EF0
3C78
1030
0000
1F3E
3FBE
7FFE
7C7E
F83E
F03E
F03E
F03E
F03E
F03E
F83E
7C7E
7FFE
3FBE
1F3E
ENDCHAR
STARTCHAR uni1EAB.alt01
ENCODING -1
SWIDTH 600 0
DWIDTH 17 0
BBX 15 27 1 0
BITMAP
1F10
3FF8
3FF8
11E0
0000
0380
07C0
1FE0
3EF0
3C78
1030
0000
1F3E
3FBE
7FFE
7C7E
F83E
F03E
F03E
F03E
F03E
F03E
F83E
7C7E
7FFE
3FBE
1F3E
ENDCHAR
STARTCHAR gbreve.alt01
ENCODING -1
SWIDTH 600 0
DWIDTH 17 0
BBX 14 29 1 -6
BITMAP
1030
3878
3C70
1FF0
0FE0
07C0
0000
0000
1F3C
3FBC
7FFC
7C7C
F83C
F83C
F03C
F03C
F03C
F83C
F83C
7C7C
7FFC
3FBC
1F3C
003C
203C
387C
7FF8
7FF0
1FC0
ENDCHAR
STARTCHAR gcircumflex.alt01
ENCODING -1
SWIDTH 600 0
DWIDTH 17 0
BBX 14 29 1 -6
BITMAP
07C0
0FC0
1FE0
3CF0
3878
1020
0000
0000
1F3C
3FBC
7FFC
7C7C
F83C
F83C
F03C
F03C
F03C
F83C
F83C
7C7C
7FFC
3FBC
1F3C
003C
203C
387C
7FF8
7FF0
1FC0
ENDCHAR
STARTCHAR gcommaaccent.alt01
ENCODING -1
SWIDTH 600 0
DWIDTH 17 0
BBX 14 29 1 -6
BITMAP
01C0
01C0
03C0
03C0
03C0
07C0
0000
0000
1F3C
3FBC
7FFC
7C7C
F83C
F83C
F03C
F03C
F03C
F83C
F83C
7C7C
7FFC
3FBC
1F3C
003C
203C
387C
7FF8
7FF0
1FC0
ENDCHAR
STARTCHAR gdotaccent.alt01
ENCODING -1
SWIDTH 600 0
DWIDTH 17 0
BBX 14 28 1 -6
BITMAP
0780
07C0
07C0
07C0
0780
0000
0000
1F3C
3FBC
7FFC
7C7C
F83C
F83C
F03C
F03C
F03C
F83C
F83C
7C7C
7FFC
3FBC
1F3C
003C
203C
387C
7FF8
7FF0
1FC0
ENDCHAR
STARTCHAR germandbls.alt01
ENCODING -1
SWIDTH 600 0
DWIDTH 17 0
BBX 17 21 0 0
BITMAP
07E000
1FF800
3FFC00
3C3E00
7C1E00
781E00
F81E00
F83E00
F8FE00
78FE00
79E000
79F000
78FC00
78FF00
787F80
780F80
780780
78C780
79FF80
7BFF00
787C00
ENDCHAR
STARTCHAR uni0430.alt01
ENCODING -1
SWIDTH 600 0
DWIDTH 17 0
BBX 15 15 1 0
BITMAP
1F3E
3FBE
7FFE
7C7E
F83E
F03E
F03E
F03E
F03E
F03E
F83E
7C7E
7FFE
3FBE
1F3E
ENDCHAR
STARTCHAR uni04D3.alt01
ENCODING -1
SWIDTH 600 0
DWIDTH 17 0
BBX 15 22 1 0
BITMAP
3C70
3CF8
3CF8
3CF8
3C70
0000
0000
1F3E
3FBE
7FFE
7C7E
F83E
F03E
F03E
F03E
F03E
F03E
F83E
7C7E
7FFE
3FBE
1F3E
ENDCHAR
STARTCHAR uni04D1.alt01
ENCODING -1
SWIDTH 600 0
DWIDTH 17 0
BBX 15 23 1 0
BITMAP
1870
3C78
3C70
1FF0
1FE0
07C0
0000
0000
1F3E
3FBE
7FFE
7C7E
F83E
F03E
F03E
F03E
F03E
F03E
F83E
7C7E
7FFE
3FBE
1F3E
ENDCHAR
STARTCHAR zero.numr
ENCODING -1
SWIDTH 600 0
DWIDTH 17 0
BBX 9 10 4 10
BITMAP
3E00
7F00
6300
E380
EB80
EB80
E380
6300
7F00
3E00
ENDCHAR
STARTCHAR one.numr
ENCODING -1
SWIDTH 600 0
DWIDTH 17 0
BBX 7 10 5 10
BITMAP
78
F8
D8
18
18
18
18
18
FE
FE
ENDCHAR
STARTCHAR two.numr
ENCODING -1
SWIDTH 600 0
DWIDTH 17 0
BBX 7 10 5 10
BITMAP
7C
FE
CE
0E
0E
1C
78
E0
FE
FE
ENDCHAR
STARTCHAR three.numr
ENCODING -1
SWIDTH 600 0
DWIDTH 17 0
BBX 9 10 4 10
BITMAP
3E00
7F00
6300
0700
1E00
1F00
0300
6380
FF00
3E00
ENDCHAR
STARTCHAR four.numr
ENCODING -1
SWIDTH 600 0
DWIDTH 17 0
BBX 9 10 4 10
BITMAP
0E00
1E00
1600
3600
6600
6600
FF80
FF80
0600
0600
ENDCHAR
STARTCHAR five.numr
ENCODING -1
SWIDTH 600 0
DWIDTH 17 0
BBX 8 10 5 10
BITMAP
FE
FE
C0
DC
FE
C7
07
C6
FE
7C
ENDCHAR
STARTCHAR six.numr
ENCODING -1
SWIDTH 600 0
DWIDTH 17 0
BBX 8 10 5 10
BITMAP
1E
78
60
FC
FE
E7
C7
E6
FE
7C
ENDCHAR
STARTCHAR seven.numr
ENCODING -1
SWIDTH 600 0
DWIDTH 17 0
BBX 7 10 5 10
BITMAP
FE
FE
C6
CE
CC
1C
1C
38
38
70
ENDCHAR
STARTCHAR eight.numr
ENCODING -1
SWIDTH 600 0
DWIDTH 17 0
BBX 7 10 5 10
BITMAP
7C
FE
C6
C6
7C
FE
C6
C6
FE
7C
ENDCHAR
STARTCHAR nine.numr
ENCODING -1
SWIDTH 600 0
DWIDTH 17 0
BBX 8 10 4 10
BITMAP
3E
7F
67
E3
E7
7F
3F
06
1E
78
ENDCHAR
STARTCHAR zero.dnom
ENCODING -1
SWIDTH 600 0
DWIDTH 17 0
BBX 9 10 4 0
BITMAP
3E00
7F00
6300
E380
EB80
EB80
E380
6300
7F00
3E00
ENDCHAR
STARTCHAR one.dnom
ENCODING -1
SWIDTH 600 0
DWIDTH 17 0
BBX 7 10 5 0
BITMAP
78
F8
D8
18
18
18
18
18
FE
FE
ENDCHAR
STARTCHAR two.dnom
ENCODING -1
SWIDTH 600 0
DWIDTH 17 0
BBX 7 10 5 0
BITMAP
7C
FE
CE
0E
0E
1C
78
E0
FE
FE
ENDCHAR
STARTCHAR three.dnom
ENCODING -1
SWIDTH 600 0
DWIDTH 17 0
BBX 9 10 4 0
BITMAP
3E00
7F00
6300
0700
1E00
1F00
0300
6380
FF00
3E00
ENDCHAR
STARTCHAR four.dnom
ENCODING -1
SWIDTH 600 0
DWIDTH 17 0
BBX 9 10 4 0
BITMAP
0E00
1E00
1600
3600
6600
6600
FF80
FF80
0600
0600
ENDCHAR
STARTCHAR five.dnom
ENCODING -1
SWIDTH 600 0
DWIDTH 17 0
BBX 8 10 5 0
BITMAP
FE
FE
C0
DC
FE
C7
07
C6
FE
7C
ENDCHAR
STARTCHAR six.dnom
ENCODING -1
SWIDTH 600 0
DWIDTH 17 0
BBX 8 10 5 0
BITMAP
1E
78
60
FC
FE
E7
C7
E6
FE
7C
ENDCHAR
STARTCHAR seven.dnom
ENCODING -1
SWIDTH 600 0
DWIDTH 17 0
BBX 7 10 5 0
BITMAP
FE
FE
C6
CE
0C
1C
1C
38
38
70
ENDCHAR
STARTCHAR eight.dnom
ENCODING -1
SWIDTH 600 0
DWIDTH 17 0
BBX 7 10 5 0
BITMAP
7C
FE
C6
C6
7C
FE
C6
C6
FE
7C
ENDCHAR
STARTCHAR nine.dnom
ENCODING -1
SWIDTH 600 0
DWIDTH 17 0
BBX 8 10 4 0
BITMAP
3E
7F
67
E3
E7
7F
3F
06
1E
78
ENDCHAR
STARTCHAR tilde.alt01
ENCODING -1
SWIDTH 600 0
DWIDTH 17 0
BBX 10 4 3 17
BITMAP
7880
FFC0
7FC0
0780
ENDCHAR
STARTCHAR breve.cyrl
ENCODING -1
SWIDTH 600 0
DWIDTH 17 0
BBX 11 6 3 17
BITMAP
71C0
F1E0
71C0
7FC0
3F80
1F00
ENDCHAR
STARTCHAR ringacute
ENCODING -1
SWIDTH 600 0
DWIDTH 17 0
BBX 9 13 4 16
BITMAP
0200
0700
0F80
1E00
0800
0000
3E00
7F00
E380
E380
E380
7F00
3E00
ENDCHAR
STARTCHAR breveacute
ENCODING -1
SWIDTH 0 0
DWIDTH 0 0
BBX 12 12 -6 16
BITMAP
0100
03C0
03C0
0780
0700
0F00
2640
E070
70E0
7FE0
3FC0
1F80
ENDCHAR
STARTCHAR brevegrave
ENCODING -1
SWIDTH 0 0
DWIDTH 0 0
BBX 12 12 -6 16
BITMAP
0800
3C00
3C00
1E00
0E00
0F00
2440
E070
70E0
7FE0
3FC0
1F80
ENDCHAR
STARTCHAR brevehook
ENCODING -1
SWIDTH 0 0
DWIDTH 0 0
BBX 12 11 -6 16
BITMAP
3F00
3F80
3F80
0380
0700
2740
E670
70E0
7FE0
3FC0
1F80
ENDCHAR
STARTCHAR brevetilde
ENCODING -1
SWIDTH 0 0
DWIDTH 0 0
BBX 12 11 -6 16
BITMAP
3C40
7FE0
7FE0
43C0
0000
2040
E070
70E0
7FE0
3FC0
1F00
ENDCHAR
STARTCHAR dieresiscaron
ENCODING -1
SWIDTH 0 0
DWIDTH 0 0
BBX 12 12 -6 17
BITMAP
2040
70E0
FFF0
3FC0
1F80
0F00
0000
79E0
79E0
F9F0
79E0
78E0
ENDCHAR
STARTCHAR circumflexacute
ENCODING -1
SWIDTH 0 0
DWIDTH 0 0
BBX 15 12 -6 16
BITMAP
0010
001C
003E
003C
0078
0070
0F20
1F80
3FC0
7BE0
F0F0
2040
ENDCHAR
STARTCHAR circumflexbreve
ENCODING -1
SWIDTH 0 0
DWIDTH 0 0
BBX 10 11 -5 16
BITMAP
C0C0
E1C0
FFC0
7F80
1E00
0000
1E00
3F00
FFC0
F3C0
4080
ENDCHAR
STARTCHAR circumflexgrave
ENCODING -1
SWIDTH 0 0
DWIDTH 0 0
BBX 15 12 -9 16
BITMAP
1000
7000
F800
7800
3C00
1C00
09E0
03F0
07F8
0F7C
1E1E
0408
ENDCHAR
STARTCHAR circumflexhook
ENCODING -1
SWIDTH 0 0
DWIDTH 0 0
BBX 14 12 -6 16
BITMAP
01F8
01FC
01FC
003C
0038
0070
0F30
1F80
3FC0
7BE0
F0F0
2040
ENDCHAR
STARTCHAR dieresismacron
ENCODING -1
SWIDTH 0 0
DWIDTH 0 0
BBX 12 9 -6 17
BITMAP
3FC0
3FC0
3FC0
0000
79E0
79E0
F9F0
79E0
78E0
ENDCHAR
STARTCHAR circumflextilde
ENCODING -1
SWIDTH 0 0
DWIDTH 0 0
BBX 12 11 -6 16
BITMAP
3C40
7FE0
7FE0
63C0
0000
0F00
1F80
3FC0
79E0
F0F0
2040
ENDCHAR
STARTCHAR tilde.case
ENCODING -1
SWIDTH 600 0
DWIDTH 17 0
BBX 11 4 3 22
BITMAP
7C40
FFE0
FFE0
47C0
ENDCHAR
STARTCHAR tilde.alt01.case
ENCODING -1
SWIDTH 600 0
DWIDTH 17 0
BBX 10 4 3 22
BITMAP
7880
FFC0
7FC0
0780
ENDCHAR
STARTCHAR macron.case
ENCODING -1
SWIDTH 600 0
DWIDTH 17 0
BBX 9 3 4 23
BITMAP
FF80
FF80
FF80
ENDCHAR
STARTCHAR dotaccent.case
ENCODING -1
SWIDTH 600 0
DWIDTH 17 0
BBX 5 5 6 22
BITMAP
70
F8
F8
F8
70
ENDCHAR
STARTCHAR dieresis.case
ENCODING -1
SWIDTH 600 0
DWIDTH 17 0
BBX 11 5 3 22
BITMAP
71C0
FBE0
FBE0
FBE0
71C0
ENDCHAR
STARTCHAR hungarumlaut.case
ENCODING -1
SWIDTH 600 0
DWIDTH 17 0
BBX 12 7 4 21
BITMAP
2080
38E0
7DF0
79C0
F3C0
E380
4500
ENDCHAR
STARTCHAR acute.case
ENCODING -1
SWIDTH 600 0
DWIDTH 17 0
BBX 7 7 6 21
BITMAP
10
1C
3E
3C
78
70
A0
ENDCHAR
STARTCHAR grave.case
ENCODING -1
SWIDTH 600 0
DWIDTH 17 0
BBX 7 7 4 21
BITMAP
10
70
F8
78
3C
1C
0A
ENDCHAR
STARTCHAR circumflex.case
ENCODING -1
SWIDTH 600 0
DWIDTH 17 0
BBX 11 6 3 21
BITMAP
1F00
3F80
3F80
7BC0
F1E0
60C0
ENDCHAR
STARTCHAR caron.case
ENCODING -1
SWIDTH 600 0
DWIDTH 17 0
BBX 11 6 3 22
BITMAP
6040
F1E0
7BC0
3F80
3F80
1F00
ENDCHAR
STARTCHAR breve.case
ENCODING -1
SWIDTH 600 0
DWIDTH 17 0
BBX 11 6 3 21
BITMAP
60C0
E0E0
F1E0
7FC0
3F80
1F00
ENDCHAR
STARTCHAR breve.cyrl_case
ENCODING -1
SWIDTH 600 0
DWIDTH 17 0
BBX 11 6 3 21
BITMAP
71C0
F1E0
71C0
7FC0
3F80
1F00
ENDCHAR
STARTCHAR ring.case
ENCODING -1
SWIDTH 600 0
DWIDTH 17 0
BBX 9 8 4 21
BITMAP
3E00
7F00
E300
E380
E380
E300
7F00
3E00
ENDCHAR
STARTCHAR ringacute.case
ENCODING -1
SWIDTH 600 0
DWIDTH 17 0
BBX 9 13 4 21
BITMAP
0200
0700
0F80
1E00
0800
0000
3E00
7F00
E380
E380
E380
7F00
3E00
ENDCHAR
STARTCHAR uni0309.case
ENCODING -1
SWIDTH 0 0
DWIDTH 0 0
BBX 7 7 -3 21
BITMAP
FC
FC
FE
1C
3C
38
10
ENDCHAR
STARTCHAR breveacute.case
ENCODING -1
SWIDTH 0 0
DWIDTH 0 0
BBX 12 12 -6 21
BITMAP
0100
03C0
03C0
0780
0700
0F00
2240
E070
70E0
7FE0
3FC0
1F80
ENDCHAR
STARTCHAR brevegrave.case
ENCODING -1
SWIDTH 0 0
DWIDTH 0 0
BBX 12 12 -6 21
BITMAP
0800
3C00
3C00
1E00
0E00
0F00
2440
E070
70E0
7FE0
3FC0
1F80
ENDCHAR
STARTCHAR brevehook.case
ENCODING -1
SWIDTH 0 0
DWIDTH 0 0
BBX 12 11 -6 21
BITMAP
3F00
3F80
3F80
0380
0700
2740
E670
70E0
7FE0
3FC0
1F80
ENDCHAR
STARTCHAR brevetilde.case
ENCODING -1
SWIDTH 0 0
DWIDTH 0 0
BBX 12 11 -6 21
BITMAP
3C40
7FE0
7FE0
63C0
0000
2040
E070
70E0
7FE0
3FC0
1F00
ENDCHAR
STARTCHAR dieresisacute.case
ENCODING -1
SWIDTH 0 0
DWIDTH 0 0
BBX 12 12 -6 22
BITMAP
0200
0380
03C0
0780
0700
0F00
0600
79E0
79E0
F9F0
79E0
78E0
ENDCHAR
STARTCHAR dieresiscaron.case
ENCODING -1
SWIDTH 0 0
DWIDTH 0 0
BBX 12 12 -6 22
BITMAP
2040
70E0
FDF0
3FC0
1F80
0F00
0000
79E0
79E0
F9F0
79E0
78E0
ENDCHAR
STARTCHAR dieresisgrave.case
ENCODING -1
SWIDTH 0 0
DWIDTH 0 0
BBX 12 12 -6 22
BITMAP
0800
1C00
3C00
1E00
0E00
0F00
0600
79E0
79E0
F9F0
79E0
78E0
ENDCHAR
STARTCHAR circumflexacute.case
ENCODING -1
SWIDTH 0 0
DWIDTH 0 0
BBX 15 12 -6 21
BITMAP
0010
001C
003E
003C
0078
0070
0F20
1F80
3FC0
7BE0
F0F0
2040
ENDCHAR
STARTCHAR circumflexbreve.case
ENCODING -1
SWIDTH 0 0
DWIDTH 0 0
BBX 10 11 -5 21
BITMAP
C0C0
E1C0
FFC0
7F80
1E00
0000
1E00
3F00
FFC0
F3C0
4080
ENDCHAR
STARTCHAR circumflexgrave.case
ENCODING -1
SWIDTH 0 0
DWIDTH 0 0
BBX 15 12 -9 21
BITMAP
1000
7000
F800
7800
3C00
1C00
09E0
03F0
07F8
0F7C
1E1E
0408
ENDCHAR
STARTCHAR circumflexhook.case
ENCODING -1
SWIDTH 0 0
DWIDTH 0 0
BBX 14 11 -6 21
BITMAP
01F8
01FC
01FC
003C
0038
0F70
1FB0
3FC0
7BE0
F0F0
2040
ENDCHAR
STARTCHAR dieresismacron.case
ENCODING -1
SWIDTH 0 0
DWIDTH 0 0
BBX 12 9 -6 22
BITMAP
3FC0
3FC0
3FC0
0000
79E0
79E0
F9F0
79E0
78E0
ENDCHAR
STARTCHAR circumflextilde.case
ENCODING -1
SWIDTH 0 0
DWIDTH 0 0
BBX 12 10 -6 21
BITMAP
3C40
7FE0
7FE0
63C0
0F00
1F80
3FC0
7BE0
F0F0
2040
ENDCHAR
ENDFONT
